<?xml version="1.0" standalone="no"?>
<!DOCTYPE svg PUBLIC "-//W3C//DTD SVG 1.1//EN" "http://www.w3.org/Graphics/SVG/1.1/DTD/svg11.dtd" >
<svg xmlns="http://www.w3.org/2000/svg" xmlns:xlink="http://www.w3.org/1999/xlink" version="1.1">
<metadata>
Created by FontForge 20170731 at Thu Jul 21 17:03:15 2016
 By Aleksey,,,
Copyright (c) 2010-2012 by The Entente (AS&#38;EH). All rights reserved. Re-release (Version 2.01) July 2015. For Movistar use only.
</metadata>
<defs>
<font id="ApercuMovistarPlus-Bold" horiz-adv-x="565" >
  <font-face 
    font-family="Apercu Movistar Plus"
    font-weight="700"
    font-stretch="normal"
    units-per-em="1000"
    panose-1="2 0 8 3 4 0 0 2 0 4"
    ascent="800"
    descent="-200"
    x-height="504"
    cap-height="700"
    bbox="-86 -266 1214 1104"
    underline-thickness="50"
    underline-position="-200"
    unicode-range="U+000D-FB02"
  />
<missing-glyph horiz-adv-x="625" 
d="M77 0v700h471v-700h-471zM428 594h-231v-488h231v488z" />
    <glyph glyph-name="fi" unicode="fi" horiz-adv-x="558" 
d="M28 398v106h64v6q0 98 63 148t171 50q65 0 128 -21v-112q-54 27 -121 27q-55 0 -86 -24t-31 -69v-5h283v-504h-124v398h-159v-398h-124v398h-64z" />
    <glyph glyph-name="fl" unicode="fl" horiz-adv-x="608" 
d="M28 398v106h64v26q0 89 46.5 133.5t127.5 44.5h277v-708h-124v602h-146q-57 0 -57 -63v-35h106v-106h-106v-398h-124v398h-64z" />
    <glyph glyph-name=".notdef" horiz-adv-x="625" 
d="M77 0v700h471v-700h-471zM428 594h-231v-488h231v488z" />
    <glyph glyph-name=".null" horiz-adv-x="0" 
 />
    <glyph glyph-name="nonmarkingreturn" horiz-adv-x="333" 
 />
    <glyph glyph-name="NULL" horiz-adv-x="0" 
 />
    <glyph glyph-name="NULL" horiz-adv-x="0" 
 />
    <glyph glyph-name="CR" unicode="&#xd;" horiz-adv-x="248" 
 />
    <glyph glyph-name="space" unicode=" " horiz-adv-x="248" 
 />
    <glyph glyph-name="exclam" unicode="!" horiz-adv-x="331" 
d="M86 700h164l-28 -458h-108zM85 76q0 35 24.5 59.5t58.5 24.5t58.5 -24.5t24.5 -59.5q0 -34 -24 -58t-59 -24t-59 24t-24 58z" />
    <glyph glyph-name="quotedbl" unicode="&#x22;" horiz-adv-x="467" 
d="M99 459l-31 249h141l-31 -249h-79zM289 459l-31 249h141l-31 -249h-79z" />
    <glyph glyph-name="numbersign" unicode="#" horiz-adv-x="718" 
d="M96 409v98h138l40 193h100l-40 -193h114l39 193h100l-39 -193h114v-98h-134l-24 -118h118v-98h-138l-40 -193h-100l40 193h-114l-39 -193h-100l39 193h-114v98h134l24 118h-118zM314 409l-24 -118h114l24 118h-114z" />
    <glyph glyph-name="dollar" unicode="$" horiz-adv-x="527" 
d="M465 581l-105 -67q-38 74 -97 74q-29 0 -48 -18t-19 -46q0 -33 31 -58.5t75 -45.5t87.5 -44t74.5 -66t31 -100q0 -86 -44 -141t-120 -71v-88h-122v90q-70 17 -117.5 68.5t-61.5 119.5l105 66q40 -142 139 -142q91 0 91 91q0 31 -30 55t-73.5 43t-86.5 43t-73 68t-30 106
q0 66 37.5 116t99.5 67v89h122v-91q91 -26 134 -118z" />
    <glyph glyph-name="percent" unicode="%" horiz-adv-x="824" 
d="M45 548q0 68 46.5 114t117.5 46t117.5 -46t46.5 -114t-46.5 -114t-117.5 -46t-117.5 46t-46.5 114zM147 548q0 -28 16.5 -46.5t45.5 -18.5t45.5 18.5t16.5 46.5t-16.5 46.5t-45.5 18.5t-45.5 -18.5t-16.5 -46.5zM451 152q0 68 46.5 114t117.5 46t117.5 -46t46.5 -114
t-46.5 -114t-117.5 -46t-117.5 46t-46.5 114zM553 152q0 -28 16.5 -46.5t45.5 -18.5t45.5 18.5t16.5 46.5t-16.5 46.5t-45.5 18.5t-45.5 -18.5t-16.5 -46.5zM648 738l72 -57l-538 -719l-72 58z" />
    <glyph glyph-name="ampersand" unicode="&#x26;" horiz-adv-x="682" 
d="M279 -8q-96 0 -159 57.5t-63 156.5q0 73 37.5 128t95.5 88q-48 67 -48 137q0 63 45 106t118 43q74 0 118 -41.5t44 -98.5q0 -59 -32.5 -105.5t-81.5 -72.5l115 -151q28 53 51 126l72 -84q-18 -77 -52 -135l112 -146h-147l-41 54q-78 -62 -184 -62zM280 107q66 0 114 39
l-141 188q-76 -46 -76 -126q0 -43 28.5 -72t74.5 -29zM305 602q-23 0 -38 -14t-15 -37q0 -37 32 -77q71 32 71 81q0 21 -14 34t-36 13z" />
    <glyph glyph-name="quotesingle" unicode="'" horiz-adv-x="277" 
d="M99 459l-31 249h141l-31 -249h-79z" />
    <glyph glyph-name="parenleft" unicode="(" horiz-adv-x="288" 
d="M160 750h107q-92 -168 -92 -400q0 -133 22.5 -223t69.5 -177h-107q-33 60 -52 103.5t-36 123t-17 173.5t17 173.5t36 123t52 103.5z" />
    <glyph glyph-name="parenright" unicode=")" horiz-adv-x="288" 
d="M21 750h107q33 -60 52 -103.5t36 -123t17 -173.5t-17 -173.5t-36 -123t-52 -103.5h-107q47 87 69.5 177t22.5 223q0 232 -92 400z" />
    <glyph glyph-name="asterisk" unicode="*" horiz-adv-x="472" 
d="M287 708v-113l109 36l33 -99l-109 -37l67 -91l-85 -63l-66 93l-66 -93l-85 63l67 91l-109 37l33 99l109 -36v113h102z" />
    <glyph glyph-name="plus" unicode="+" horiz-adv-x="604" 
d="M248 504h108v-198h198v-108h-198v-198h-108v198h-198v108h198v198z" />
    <glyph glyph-name="comma" unicode="," horiz-adv-x="346" 
d="M49 -156l75 302h167l-155 -302h-87z" />
    <glyph glyph-name="hyphen" unicode="-" horiz-adv-x="485" 
d="M56 263v108h373v-108h-373z" />
    <glyph glyph-name="period" unicode="." horiz-adv-x="304" 
d="M68 78q0 36 24 60t60 24t60 -24t24 -60t-24 -60t-60 -24t-60 24t-24 60z" />
    <glyph glyph-name="slash" unicode="/" horiz-adv-x="547" 
d="M443 750h120l-436 -800h-120z" />
    <glyph glyph-name="zero" unicode="0" horiz-adv-x="622" 
d="M311 708q124 0 191 -94.5t67 -263.5t-67 -263.5t-191 -94.5t-191 94.5t-67 263.5t67 263.5t191 94.5zM311 592q-134 0 -134 -242t134 -242t134 242t-134 242z" />
    <glyph glyph-name="one" unicode="1" horiz-adv-x="392" 
d="M263 700h55v-700h-126v524l-134 -80v136z" />
    <glyph glyph-name="two" unicode="2" horiz-adv-x="560" 
d="M55 0v50l250 323q54 68 54 127q0 43 -22 67.5t-64 24.5q-38 0 -61.5 -24t-29.5 -68l-116 22q5 80 64 133t146 53q98 0 153.5 -56t55.5 -147q0 -87 -60 -166l-171 -223h246v-116h-445z" />
    <glyph glyph-name="three" unicode="3" horiz-adv-x="572" 
d="M48 194l121 16q25 -102 113 -102q49 0 80 32t31 85q0 59 -30.5 91t-79.5 32q-32 0 -61 -15l-50 70l132 181h-223v116h401v-44l-165 -223q18 2 28 2q80 0 127 -57.5t47 -150.5q0 -107 -67 -171t-170 -64q-96 0 -160.5 56.5t-73.5 145.5z" />
    <glyph glyph-name="four" unicode="4" horiz-adv-x="600" 
d="M352 0v130h-301v64l295 506h132v-454h78v-116h-78v-130h-126zM204 246h148v267z" />
    <glyph glyph-name="five" unicode="5" 
d="M62 183l119 22q19 -97 105 -97q51 0 77.5 32t26.5 92q0 59 -28.5 90t-81.5 31q-68 0 -124 -63l-79 16l39 394h360v-116h-257l-16 -146q44 26 99 26q106 0 160 -62.5t54 -169.5t-63 -173.5t-167 -66.5q-90 0 -152.5 52.5t-71.5 138.5z" />
    <glyph glyph-name="six" unicode="6" horiz-adv-x="575" 
d="M286 448h16q97 0 161.5 -63.5t64.5 -164.5q0 -98 -67 -163t-167 -65q-99 0 -166.5 65t-67.5 163q0 64 34 123l204 365h140zM294 332q-47 0 -77.5 -30t-30.5 -82q0 -50 31.5 -81t76.5 -31q46 0 77 31t31 81q0 52 -30.5 82t-77.5 30z" />
    <glyph glyph-name="seven" unicode="7" horiz-adv-x="487" 
d="M466 700v-52l-264 -648h-124l239 584h-275v116h424z" />
    <glyph glyph-name="eight" unicode="8" horiz-adv-x="574" 
d="M287 708q88 0 144.5 -55.5t56.5 -135.5q0 -88 -66 -140q93 -52 93 -168q0 -99 -66.5 -158t-161.5 -59t-161.5 59t-66.5 158q0 116 92 168q-65 51 -65 140q0 80 56.5 135.5t144.5 55.5zM287 310q-44 0 -73 -27t-29 -74t29 -74t73 -27t73 27t29 74t-29 74t-73 27zM287 602
q-38 0 -61 -24t-23 -63q0 -40 23 -64.5t61 -24.5t61 24.5t23 64.5q0 39 -23 63t-61 24z" />
    <glyph glyph-name="nine" unicode="9" horiz-adv-x="575" 
d="M303 252h-16q-97 0 -161.5 63.5t-64.5 164.5q0 98 67 163t167 65q99 0 166.5 -65t67.5 -163q0 -64 -34 -123l-204 -365h-140zM295 368q47 0 77.5 30t30.5 82q0 50 -31.5 81t-76.5 31q-46 0 -77 -31t-31 -81q0 -52 30.5 -82t77.5 -30z" />
    <glyph glyph-name="colon" unicode=":" horiz-adv-x="313" 
d="M70 78q0 36 24 60t60 24t60 -24t24 -60t-24 -60t-60 -24t-60 24t-24 60zM70 428q0 36 24 60t60 24t60 -24t24 -60t-24 -60t-60 -24t-60 24t-24 60z" />
    <glyph glyph-name="semicolon" unicode=";" horiz-adv-x="325" 
d="M11 -156l75 302h167l-155 -302h-87zM80 428q0 36 24 60t60 24t60 -24t24 -60t-24 -60t-60 -24t-60 24t-24 60z" />
    <glyph glyph-name="less" unicode="&#x3c;" horiz-adv-x="474" 
d="M39 252v116l391 204v-131l-252 -131l252 -131v-131z" />
    <glyph glyph-name="equal" unicode="=" horiz-adv-x="591" 
d="M77 346v108h437v-108h-437zM77 166v108h437v-108h-437z" />
    <glyph glyph-name="greater" unicode="&#x3e;" horiz-adv-x="474" 
d="M435 368v-116l-391 -204v131l252 131l-252 131v131z" />
    <glyph glyph-name="question" unicode="?" horiz-adv-x="448" 
d="M370 316q-17 -48 -54.5 -75.5t-90.5 -27.5q-61 0 -99.5 35.5t-38.5 92.5q0 89 108 130q58 22 79 40t21 43t-18 37.5t-47 12.5q-65 0 -85 -67l-109 18q12 66 62.5 109.5t128.5 43.5q84 0 134.5 -43t50.5 -115q0 -56 -32.5 -87t-105.5 -59q-50 -20 -67.5 -33t-17.5 -33
q0 -16 10.5 -25.5t25.5 -9.5q41 0 57 46zM142 76q0 35 24.5 59.5t58.5 24.5t58.5 -24.5t24.5 -59.5q0 -34 -24 -58t-59 -24t-59 24t-24 58z" />
    <glyph glyph-name="at" unicode="@" horiz-adv-x="890" 
d="M238 296q0 92 58.5 156t157.5 64q61 0 104 -38l11 31h83l-20 -219q-2 -28 -2 -29q0 -51 39 -51q60 0 60 147q0 128 -73 193.5t-194 65.5q-118 0 -204.5 -82.5t-86.5 -232.5q0 -72 26 -129.5t68.5 -92t93 -53t102.5 -18.5q38 0 66 2.5t75 15.5t97 37l39 -97
q-70 -33 -133 -46.5t-144 -13.5q-182 0 -296 111.5t-114 283.5q0 189 116 303t300 114q183 0 282.5 -100.5t99.5 -265.5q0 -110 -52.5 -177t-137.5 -67q-38 0 -67.5 20t-41.5 49q-56 -69 -134 -69q-83 0 -130.5 52t-47.5 136zM449 414q-39 0 -67.5 -33.5t-28.5 -89.5
q0 -81 72 -81q45 0 75 34.5t30 85.5q0 40 -21 62t-60 22z" />
    <glyph glyph-name="A" unicode="A" horiz-adv-x="614" 
d="M469 0l-51 165h-222l-51 -165h-140l237 700h130l237 -700h-140zM307 528l-74 -243h148z" />
    <glyph glyph-name="B" unicode="B" horiz-adv-x="605" 
d="M77 700h256q92 0 146 -48t54 -141q0 -43 -18 -77.5t-51 -51.5q105 -43 105 -171q0 -101 -61.5 -156t-169.5 -55h-261v700zM323 580h-116v-152h119q41 0 61.5 17.5t20.5 58.5t-21 58.5t-64 17.5zM326 308h-119v-188h119q113 0 113 94t-113 94z" />
    <glyph glyph-name="C" unicode="C" horiz-adv-x="689" 
d="M662 496l-117 -30q-46 122 -173 122q-86 0 -142.5 -61t-56.5 -177t56.5 -177t142.5 -61q127 0 173 122l117 -30q-25 -101 -100.5 -156.5t-189.5 -55.5q-139 0 -235 95t-96 263t96 263t235 95q114 0 189.5 -55.5t100.5 -156.5z" />
    <glyph glyph-name="D" unicode="D" horiz-adv-x="663" 
d="M296 0h-219v700h219q64 0 121 -21t103.5 -62t74 -109.5t27.5 -157.5t-27.5 -157.5t-74 -109.5t-103.5 -62t-121 -21zM207 120h48q46 0 84.5 10.5t74 34.5t56 71t20.5 114t-20.5 114t-56 71t-74 34.5t-84.5 10.5h-48v-460z" />
    <glyph glyph-name="E" unicode="E" horiz-adv-x="556" 
d="M77 700h433v-120h-303v-147h243v-120h-243v-193h313v-120h-443v700z" />
    <glyph glyph-name="F" unicode="F" horiz-adv-x="545" 
d="M77 700h443v-120h-313v-160h252v-120h-252v-300h-130v700z" />
    <glyph glyph-name="G" unicode="G" horiz-adv-x="716" 
d="M545 0l-11 75q-55 -83 -170 -83q-136 0 -229.5 94t-93.5 264t97 264t236 94q113 0 188 -60.5t103 -160.5l-119 -31q-54 132 -172 132q-89 0 -145 -60.5t-56 -177.5q0 -120 55 -179t143 -59q71 0 110.5 39.5t46.5 93.5h-130v108h256v-353h-109z" />
    <glyph glyph-name="H" unicode="H" horiz-adv-x="694" 
d="M77 0v700h130v-266h280v266h130v-700h-130v314h-280v-314h-130z" />
    <glyph glyph-name="I" unicode="I" horiz-adv-x="284" 
d="M207 700v-700h-130v700h130z" />
    <glyph glyph-name="J" unicode="J" horiz-adv-x="504" 
d="M2 173l128 27q17 -88 88 -88q45 0 69 27t24 93v468h130v-454q0 -136 -57 -195t-166 -59q-91 0 -148 48t-68 133z" />
    <glyph glyph-name="K" unicode="K" horiz-adv-x="630" 
d="M77 700h130v-260l239 260h160l-284 -313l304 -387h-165l-254 334v-334h-130v700z" />
    <glyph glyph-name="L" unicode="L" horiz-adv-x="516" 
d="M77 700h130v-580h297v-120h-427v700z" />
    <glyph glyph-name="M" unicode="M" horiz-adv-x="776" 
d="M77 0v700h146l165 -437l165 437h146v-700h-130v432l-134 -368h-94l-134 368v-432h-130z" />
    <glyph glyph-name="N" unicode="N" horiz-adv-x="678" 
d="M471 700h130v-700h-137l-257 462v-462h-130v700h137l257 -462v462z" />
    <glyph glyph-name="O" unicode="O" horiz-adv-x="742" 
d="M371 708q91 0 164 -37.5t119.5 -120.5t46.5 -200t-46.5 -200t-119.5 -120.5t-164 -37.5t-164 37.5t-119.5 120.5t-46.5 200t46.5 200t119.5 120.5t164 37.5zM371 588q-85 0 -141.5 -60t-56.5 -178t56.5 -178t141.5 -60t141.5 60t56.5 178t-56.5 178t-141.5 60z" />
    <glyph glyph-name="P" unicode="P" horiz-adv-x="577" 
d="M341 274h-134v-274h-130v700h264q107 0 163 -58.5t56 -154.5t-56 -154.5t-163 -58.5zM336 394q92 0 92 93t-92 93h-129v-186h129z" />
    <glyph glyph-name="Q" unicode="Q" horiz-adv-x="745" 
d="M371 708q91 0 164 -37.5t119.5 -120.5t46.5 -200q0 -119 -47 -202l67 -66l-91 -90l-61 60q-82 -60 -198 -60q-91 0 -164 37.5t-119.5 120.5t-46.5 200t46.5 200t119.5 120.5t164 37.5zM387 234l91 90l76 -77q15 44 15 103q0 118 -56.5 178t-141.5 60t-141.5 -60
t-56.5 -178t56.5 -178t141.5 -60q61 0 107 30z" />
    <glyph glyph-name="R" unicode="R" horiz-adv-x="636" 
d="M545 501q0 -70 -34 -119.5t-97 -68.5l194 -313h-145l-188 302h-68v-302h-130v700h255q102 0 157.5 -54.5t55.5 -144.5zM333 422q82 0 82 79t-82 79h-126v-158h126z" />
    <glyph glyph-name="S" unicode="S" horiz-adv-x="527" 
d="M465 581l-105 -67q-38 74 -97 74q-29 0 -48 -18t-19 -46q0 -33 31 -58.5t75 -45.5t87.5 -44t74.5 -66t31 -100q0 -102 -61 -160t-163 -58q-92 0 -158 56.5t-83 139.5l105 66q40 -142 139 -142q91 0 91 91q0 31 -30 55t-73.5 43t-86.5 43t-73 68t-30 106q0 80 54.5 135
t136.5 55q142 0 202 -127z" />
    <glyph glyph-name="T" unicode="T" horiz-adv-x="532" 
d="M7 580v120h518v-120h-194v-580h-130v580h-194z" />
    <glyph glyph-name="U" unicode="U" horiz-adv-x="636" 
d="M579 700v-434q0 -136 -70.5 -205t-190.5 -69t-190.5 69t-70.5 205v434h130v-436q0 -152 131 -152t131 152v436h130z" />
    <glyph glyph-name="V" unicode="V" horiz-adv-x="604" 
d="M368 0h-132l-235 700h144l157 -518l157 518h144z" />
    <glyph glyph-name="W" unicode="W" horiz-adv-x="916" 
d="M762 700h138l-183 -700h-132l-127 412l-127 -412h-132l-183 700h138l117 -515l131 441h112l131 -441z" />
    <glyph glyph-name="X" unicode="X" horiz-adv-x="590" 
d="M409 700h142l-185 -322l218 -378h-144l-145 253l-145 -253h-144l218 378l-185 322h142l114 -198z" />
    <glyph glyph-name="Y" unicode="Y" horiz-adv-x="534" 
d="M0 700h140l127 -272l127 272h140l-202 -402v-298h-130v298z" />
    <glyph glyph-name="Z" unicode="Z" horiz-adv-x="550" 
d="M43 580v120h464v-60l-300 -520h314v-120h-495v60l303 520h-286z" />
    <glyph glyph-name="bracketleft" unicode="[" horiz-adv-x="335" 
d="M77 -50v800h230v-108h-110v-584h110v-108h-230z" />
    <glyph glyph-name="backslash" unicode="\" horiz-adv-x="547" 
d="M-16 750h120l436 -800h-120z" />
    <glyph glyph-name="bracketright" unicode="]" horiz-adv-x="335" 
d="M258 750v-800h-230v108h110v584h-110v108h230z" />
    <glyph glyph-name="asciicircum" unicode="^" horiz-adv-x="585" 
d="M239 700h107l195 -297h-120l-128 189l-129 -189h-120z" />
    <glyph glyph-name="underscore" unicode="_" horiz-adv-x="499" 
d="M22 -108v108h455v-108h-455z" />
    <glyph glyph-name="grave" unicode="`" horiz-adv-x="257" 
d="M180 708l64 -148h-95l-137 148h168z" />
    <glyph glyph-name="a" unicode="a" horiz-adv-x="601" 
d="M37 252q0 118 64 189t176 71q40 0 77 -17t55 -39v48h124v-504h-124v52q-44 -60 -132 -60q-112 0 -176 71t-64 189zM167 252q0 -71 37.5 -112.5t89.5 -41.5t89 41t37 113t-37 113t-89 41t-89.5 -41.5t-37.5 -112.5z" />
    <glyph glyph-name="b" unicode="b" horiz-adv-x="581" 
d="M544 252q0 -119 -59.5 -189.5t-170.5 -70.5q-43 0 -76.5 19t-45.5 41v-52h-124v708h124v-250q17 22 51 38t71 16q111 0 170.5 -70.5t59.5 -189.5zM414 252q0 72 -33 113t-84 41t-83.5 -40.5t-32.5 -113.5t32.5 -113.5t83.5 -40.5t84 41t33 113z" />
    <glyph glyph-name="c" unicode="c" horiz-adv-x="541" 
d="M401 181l111 -45q-58 -144 -229 -144q-118 0 -182 74t-64 186t64 186t182 74q171 0 229 -144l-111 -45q-41 83 -118 83q-57 0 -86.5 -42.5t-29.5 -111.5t29.5 -111.5t86.5 -42.5q77 0 118 83z" />
    <glyph glyph-name="d" unicode="d" horiz-adv-x="581" 
d="M37 252q0 119 59.5 189.5t170.5 70.5q37 0 71 -16t51 -38v250h124v-708h-124v52q-12 -22 -45.5 -41t-76.5 -19q-111 0 -170.5 70.5t-59.5 189.5zM167 252q0 -72 33 -113t84 -41t83.5 40.5t32.5 113.5t-32.5 113.5t-83.5 40.5t-84 -41t-33 -113z" />
    <glyph glyph-name="e" unicode="e" horiz-adv-x="545" 
d="M514 263v-51h-347q2 -46 33.5 -80t85.5 -34q75 0 119 72l100 -37q-66 -141 -226 -141q-62 0 -110.5 23.5t-76 62t-41.5 83t-14 91.5t14 91.5t41.5 83t76 62t110.5 23.5q60 0 107 -23t74 -60.5t40.5 -80t13.5 -85.5zM279 406q-44 0 -73 -28t-36 -68h217q-21 96 -108 96z
" />
    <glyph glyph-name="f" unicode="f" horiz-adv-x="360" 
d="M28 398v106h64v26q0 89 46.5 133.5t127.5 44.5q42 0 67 -8v-112q-33 14 -60 14q-57 0 -57 -63v-35h106v-106h-106v-398h-124v398h-64z" />
    <glyph glyph-name="g" unicode="g" horiz-adv-x="509" 
d="M76 342q0 77 53 123.5t132 46.5q49 0 93 -22l95 50l49 -82l-72 -36q20 -35 20 -80q0 -77 -53 -122.5t-132 -45.5q-38 0 -73 11q-24 -14 -24 -38q0 -37 47 -37h103q81 0 129 -38.5t48 -109.5q0 -59 -35 -99.5t-84.5 -57.5t-109.5 -17q-101 0 -164.5 43t-63.5 123
q0 62 41 100q-26 31 -26 78q0 69 62 106q-35 43 -35 104zM286 6h-68q-34 0 -58 4q-11 -17 -11 -46q0 -35 31 -53.5t82 -18.5q105 0 105 62q0 52 -81 52zM192 342q0 -30 19.5 -49t49.5 -19t49.5 19t19.5 49q0 31 -19.5 50.5t-49.5 19.5t-49.5 -19.5t-19.5 -50.5z" />
    <glyph glyph-name="h" unicode="h" horiz-adv-x="571" 
d="M68 708h124v-285q56 89 160 89q73 0 115 -38.5t42 -113.5v-360h-124v316q0 90 -75 90q-48 0 -83 -49t-35 -144v-213h-124v708z" />
    <glyph glyph-name="i" unicode="i" horiz-adv-x="246" 
d="M43 649q0 34 23 57t57 23t57 -23t23 -57t-23 -57t-57 -23t-57 23t-23 57zM61 504h124v-504h-124v504z" />
    <glyph glyph-name="j" unicode="j" horiz-adv-x="249" 
d="M64 504h124v-508q0 -208 -152 -208q-38 0 -61 9v108q21 -8 35 -8q54 0 54 81v526zM46 649q0 34 23 57t57 23t57 -23t23 -57t-23 -57t-57 -23t-57 23t-23 57z" />
    <glyph glyph-name="k" unicode="k" horiz-adv-x="525" 
d="M68 708h124v-402l164 198h153l-202 -232l215 -272h-152l-178 238v-238h-124v708z" />
    <glyph glyph-name="l" unicode="l" horiz-adv-x="256" 
d="M67 708h124v-708h-124v708z" />
    <glyph glyph-name="m" unicode="m" horiz-adv-x="844" 
d="M487 0h-124v336q0 70 -62 70q-48 0 -78.5 -56.5t-30.5 -164.5v-185h-124v504h124v-81q59 89 145 89q49 0 87 -26t54 -78q58 104 154 104q70 0 110 -41t40 -114v-357h-124v336q0 70 -62 70q-48 0 -78.5 -54t-30.5 -156v-196z" />
    <glyph glyph-name="n" unicode="n" 
d="M68 504h124v-81q62 89 156 89q70 0 112.5 -39t42.5 -113v-360h-124v323q0 83 -72 83q-48 0 -81.5 -55t-33.5 -150v-201h-124v504z" />
    <glyph glyph-name="o" unicode="o" horiz-adv-x="586" 
d="M37 252q0 113 69 186.5t187 73.5t187 -73.5t69 -186.5t-69 -186.5t-187 -73.5t-187 73.5t-69 186.5zM167 252q0 -65 34 -109.5t92 -44.5t92 44.5t34 109.5t-34 109.5t-92 44.5t-92 -44.5t-34 -109.5z" />
    <glyph glyph-name="p" unicode="p" horiz-adv-x="581" 
d="M544 252q0 -119 -59.5 -189.5t-170.5 -70.5q-37 0 -71 16t-51 38v-250h-124v708h124v-52q12 22 45.5 41t76.5 19q111 0 170.5 -70.5t59.5 -189.5zM414 252q0 72 -33 113t-84 41t-83.5 -40.5t-32.5 -113.5t32.5 -113.5t83.5 -40.5t84 41t33 113z" />
    <glyph glyph-name="q" unicode="q" horiz-adv-x="581" 
d="M37 252q0 119 59.5 189.5t170.5 70.5q43 0 76.5 -19t45.5 -41v52h124v-708h-124v250q-17 -22 -51 -38t-71 -16q-111 0 -170.5 70.5t-59.5 189.5zM167 252q0 -72 33 -113t84 -41t83.5 40.5t32.5 113.5t-32.5 113.5t-83.5 40.5t-84 -41t-33 -113z" />
    <glyph glyph-name="r" unicode="r" horiz-adv-x="406" 
d="M192 0h-124v504h124v-82q27 43 66 66.5t83 23.5q22 0 38 -4v-121q-23 14 -52 14q-59 0 -97 -53.5t-38 -168.5v-179z" />
    <glyph glyph-name="s" unicode="s" horiz-adv-x="445" 
d="M226 512q50 0 92 -22.5t66 -59.5l-74 -68q-34 44 -84 44q-19 0 -32.5 -11t-13.5 -31q0 -31 48 -49q6 -2 36.5 -12.5t42.5 -15.5t36.5 -18.5t35.5 -26.5t21 -34.5t10 -47.5q0 -70 -49.5 -119t-129.5 -49q-72 0 -125 41t-75 95l99 53q30 -83 101 -83q62 0 62 54
q0 12 -6.5 21.5t-20.5 16.5t-27.5 12.5t-35.5 13t-36 13.5q-48 20 -75 51t-27 85q0 61 45 104t116 43z" />
    <glyph glyph-name="t" unicode="t" horiz-adv-x="385" 
d="M345 114v-111q-37 -11 -75 -11q-81 0 -128.5 47.5t-47.5 138.5v220h-78v106h78v126l124 78v-204h133v-106h-133v-218q0 -45 16.5 -63.5t49.5 -18.5q27 0 61 16z" />
    <glyph glyph-name="u" unicode="u" 
d="M497 0h-124v81q-62 -89 -156 -89q-70 0 -112.5 39t-42.5 113v360h124v-323q0 -83 72 -83q48 0 81.5 55t33.5 150v201h124v-504z" />
    <glyph glyph-name="v" unicode="v" horiz-adv-x="464" 
d="M5 504h125l102 -351l102 351h125l-171 -504h-112z" />
    <glyph glyph-name="w" unicode="w" horiz-adv-x="760" 
d="M613 504h125l-161 -504h-110l-87 326l-87 -326h-110l-161 504h125l90 -346l85 346h116l85 -346z" />
    <glyph glyph-name="x" unicode="x" horiz-adv-x="480" 
d="M322 504h130l-146 -235l167 -269h-130l-103 164l-103 -164h-130l167 269l-146 235h130l82 -131z" />
    <glyph glyph-name="y" unicode="y" horiz-adv-x="481" 
d="M3 504h125l117 -316l110 316h124l-260 -708h-120l87 236z" />
    <glyph glyph-name="z" unicode="z" horiz-adv-x="454" 
d="M51 398v106h356v-48l-216 -350h230v-106h-386v48l218 350h-202z" />
    <glyph glyph-name="braceleft" unicode="{" horiz-adv-x="335" 
d="M128 50v166q0 46 -17.5 63t-62.5 17v108q45 0 62.5 17t17.5 63v166q0 45 27.5 72.5t72.5 27.5h88v-108h-27q-24 0 -32.5 -9.5t-8.5 -35.5v-149q0 -54 -19 -73.5t-55 -24.5q36 -5 55 -24.5t19 -73.5v-149q0 -26 8.5 -35.5t32.5 -9.5h27v-108h-88q-45 0 -72.5 27.5
t-27.5 72.5z" />
    <glyph glyph-name="bar" unicode="|" horiz-adv-x="276" 
d="M77 750h122v-800h-122v800z" />
    <glyph glyph-name="braceright" unicode="}" horiz-adv-x="335" 
d="M207 216v-166q0 -45 -27.5 -72.5t-72.5 -27.5h-88v108h27q24 0 32.5 9.5t8.5 35.5v149q0 54 19 73.5t55 24.5q-36 5 -55 24.5t-19 73.5v149q0 26 -8.5 35.5t-32.5 9.5h-27v108h88q45 0 72.5 -27.5t27.5 -72.5v-166q0 -46 17.5 -63t62.5 -17v-108q-45 0 -62.5 -17
t-17.5 -63z" />
    <glyph glyph-name="asciitilde" unicode="~" horiz-adv-x="632" 
d="M127 249l-64 69q19 46 60.5 78.5t90.5 32.5q44 0 106 -29.5t94 -29.5q51 0 91 51l64 -69q-19 -46 -60.5 -78.5t-90.5 -32.5q-44 0 -106 29.5t-94 29.5q-51 0 -91 -51z" />
    <glyph glyph-name="uni00A0" unicode="&#xa0;" horiz-adv-x="248" 
 />
    <glyph glyph-name="exclamdown" unicode="&#xa1;" horiz-adv-x="331" 
d="M245 -204h-164l28 458h108zM80 420q0 34 24 58t59 24t59 -24t24 -58q0 -35 -24.5 -59.5t-58.5 -24.5t-58.5 24.5t-24.5 59.5z" />
    <glyph glyph-name="cent" unicode="&#xa2;" horiz-adv-x="567" 
d="M410 279l111 -45q-47 -115 -168 -138v-146h-122v146q-90 19 -137.5 88.5t-47.5 165.5t47.5 165.5t137.5 88.5v146h122v-146q121 -23 168 -138l-111 -45q-41 83 -118 83q-57 0 -86.5 -42.5t-29.5 -111.5t29.5 -111.5t86.5 -42.5q77 0 118 83z" />
    <glyph glyph-name="sterling" unicode="&#xa3;" horiz-adv-x="550" 
d="M48 306v116h48q-16 46 -16 78q0 90 58.5 149t154.5 59q78 0 131 -36.5t76 -101.5l-103 -49q-33 71 -104 71q-37 0 -63 -24.5t-26 -74.5q0 -41 8 -71h173v-116h-138q3 -18 3 -38q0 -57 -21 -93.5t-60 -69.5q53 32 99 32q25 0 55 -15t53 -15q20 0 36.5 11.5t35.5 44.5
l86 -54q-34 -60 -73.5 -88.5t-91.5 -28.5q-37 0 -80 18.5t-72 18.5q-52 0 -116 -37l-69 76q35 33 54 53.5t36.5 54.5t17.5 69q0 27 -9 61h-83z" />
    <glyph glyph-name="currency" unicode="&#xa4;" horiz-adv-x="564" 
d="M17 139l89 69q-25 45 -25 99t25 99l-89 69l97 97l69 -89q44 26 99 26t99 -26l69 89l97 -97l-89 -69q25 -45 25 -99t-25 -99l89 -69l-97 -97l-69 89q-44 -26 -99 -26t-99 26l-69 -89zM201 307q0 -40 21.5 -64.5t59.5 -24.5t59.5 24.5t21.5 64.5t-21.5 64.5t-59.5 24.5
t-59.5 -24.5t-21.5 -64.5z" />
    <glyph glyph-name="yen" unicode="&#xa5;" horiz-adv-x="536" 
d="M7 700h140l121 -272l121 272h140l-144 -294h91v-108h-143v-72h143v-108h-143v-118h-130v118h-143v108h143v72h-143v108h91z" />
    <glyph glyph-name="brokenbar" unicode="&#xa6;" horiz-adv-x="276" 
d="M77 299h122v-349h-122v349zM199 401h-122v349h122v-349z" />
    <glyph glyph-name="section" unicode="&#xa7;" horiz-adv-x="532" 
d="M481 222q0 -88 -59 -139q25 -43 25 -100q0 -87 -53 -141t-128 -54q-160 0 -200 151l110 36q25 -71 90 -71q28 0 44.5 18.5t16.5 53.5q0 14 -3.5 26t-13 23t-18 19t-27 18.5t-30 16.5t-38.5 19.5l-41 20.5q-105 53 -105 155q0 88 59 139q-25 43 -25 100q0 87 53 141
t128 54q160 0 200 -151l-110 -36q-25 71 -90 71q-28 0 -44.5 -18.5t-16.5 -53.5q0 -14 3.5 -26t13 -23t18 -19t27 -18.5t30 -16.5t38.5 -19.5l41 -20.5q105 -53 105 -155zM373 213q0 17 -10 32t-31 28t-40.5 22.5t-51.5 24t-51 24.5q-30 -23 -30 -61q0 -17 10 -32t31 -28
t40.5 -22.5t51.5 -24t51 -24.5q30 24 30 61z" />
    <glyph glyph-name="dieresis" unicode="&#xa8;" horiz-adv-x="377" 
d="M14 651q0 31 20 51t51 20t51 -20t20 -51t-20 -51t-51 -20t-51 20t-20 51zM221 651q0 31 20 51t51 20t51 -20t20 -51t-20 -51t-51 -20t-51 20t-20 51z" />
    <glyph glyph-name="copyright" unicode="&#xa9;" horiz-adv-x="872" 
d="M51 350q0 166 110.5 278t274.5 112t274.5 -112t110.5 -278t-110.5 -278t-274.5 -112t-274.5 112t-110.5 278zM161 350q0 -124 77 -204t198 -80t198 80t77 204t-77 204t-198 80t-198 -80t-77 -204zM524 294l97 -19q-10 -67 -62 -104t-123 -37q-84 0 -142.5 57t-58.5 159
t58.5 159t142.5 57q71 0 123 -37t62 -104l-97 -19q-21 65 -88 65q-40 0 -65.5 -34t-25.5 -87t25.5 -87t65.5 -34q67 0 88 65z" />
    <glyph glyph-name="ordfeminine" unicode="&#xaa;" horiz-adv-x="433" 
d="M147 575l-82 19q9 49 50 79.5t101 30.5q166 0 166 -166v-238h-81l-9 52q-48 -56 -122 -56q-51 0 -85.5 32t-34.5 88q0 59 47 94.5t122 35.5h66v17q0 58 -69 58q-53 0 -69 -46zM152 416q0 -16 10.5 -26.5t30.5 -10.5q36 0 64 23t28 59v11h-66q-31 0 -49 -15t-18 -41z" />
    <glyph glyph-name="guillemotleft" unicode="&#xab;" horiz-adv-x="690" 
d="M38 269v82l309 218v-128l-185 -131l185 -131v-128zM338 269v82l309 218v-128l-185 -131l185 -131v-128z" />
    <glyph glyph-name="logicalnot" unicode="&#xac;" horiz-adv-x="577" 
d="M51 295v112h466v-265h-124v153h-342z" />
    <glyph glyph-name="registered" unicode="&#xae;" horiz-adv-x="872" 
d="M51 350q0 166 110.5 278t274.5 112t274.5 -112t110.5 -278t-110.5 -278t-274.5 -112t-274.5 112t-110.5 278zM161 350q0 -124 77 -204t198 -80t198 80t77 204t-77 204t-198 80t-198 -80t-77 -204zM506 137l-109 182h-12v-182h-105v426h169q140 0 140 -122
q0 -50 -23.5 -79.5t-63.5 -37.5l117 -187h-113zM439 480h-54v-78h54q48 0 48 39t-48 39z" />
    <glyph glyph-name="macron" unicode="&#xaf;" horiz-adv-x="285" 
d="M8 618v110h269v-110h-269z" />
    <glyph glyph-name="degree" unicode="&#xb0;" horiz-adv-x="346" 
d="M51 593q0 52 35 86.5t87 34.5t87 -34.5t35 -86.5t-35 -86.5t-87 -34.5t-87 34.5t-35 86.5zM134 593q0 -18 10.5 -29t28.5 -11t28.5 11t10.5 29t-10.5 29t-28.5 11t-28.5 -11t-10.5 -29z" />
    <glyph glyph-name="plusminus" unicode="&#xb1;" horiz-adv-x="575" 
d="M231 637h108v-184h184v-108h-184v-184h-108v184h-184v108h184v184zM50 0v108h476v-108h-476z" />
    <glyph glyph-name="twosuperior" unicode="&#xb2;" horiz-adv-x="364" 
d="M46 300v35l145 177q27 32 27 68q0 20 -10.5 30.5t-27.5 10.5q-41 0 -51 -53l-80 23q6 50 42.5 81.5t88.5 31.5q59 0 95 -33t36 -89q0 -50 -40 -99l-82 -100h128v-83h-271z" />
    <glyph glyph-name="threesuperior" unicode="&#xb3;" horiz-adv-x="373" 
d="M46 422l80 10q5 -26 21 -39.5t37 -13.5q49 0 49 59q0 26 -13.5 39.5t-34.5 13.5q-18 0 -37 -10l-40 50l66 86h-110v83h237v-35l-89 -114q49 0 81.5 -34t32.5 -82q0 -64 -35.5 -101.5t-104.5 -37.5q-60 0 -98.5 36t-41.5 90z" />
    <glyph glyph-name="acute" unicode="&#xb4;" horiz-adv-x="257" 
d="M13 560l64 148h168l-137 -148h-95z" />
    <glyph glyph-name="mu" unicode="&#xb5;" 
d="M497 0h-124v81q-62 -89 -156 -89q-16 0 -31 3v-199h-124v708h124v-323q0 -83 72 -83q48 0 81.5 55t33.5 150v201h124v-504z" />
    <glyph glyph-name="paragraph" unicode="&#xb6;" horiz-adv-x="727" 
d="M46 473q0 94 66.5 160.5t160.5 66.5h403v-108h-62v-796h-120v796h-101v-796h-120v450q-94 0 -160.5 66.5t-66.5 160.5z" />
    <glyph glyph-name="periodcentered" unicode="&#xb7;" horiz-adv-x="304" 
d="M68 368q0 36 24 60t60 24t60 -24t24 -60t-24 -60t-60 -24t-60 24t-24 60z" />
    <glyph glyph-name="cedilla" unicode="&#xb8;" horiz-adv-x="241" 
d="M236 -60l-83 -206l-148 66l141 140h90z" />
    <glyph glyph-name="onesuperior" unicode="&#xb9;" horiz-adv-x="287" 
d="M182 700h37v-400h-89v278l-85 -38v95z" />
    <glyph glyph-name="ordmasculine" unicode="&#xba;" horiz-adv-x="504" 
d="M51 500q0 89 54 146.5t147 57.5t147 -57.5t54 -146.5t-54 -146.5t-147 -57.5t-147 57.5t-54 146.5zM153 500q0 -51 26.5 -86t72.5 -35t72.5 35t26.5 86t-26.5 86t-72.5 35t-72.5 -35t-26.5 -86z" />
    <glyph glyph-name="guillemotright" unicode="&#xbb;" horiz-adv-x="690" 
d="M652 351v-82l-309 -218v128l185 131l-185 131v128zM352 351v-82l-309 -218v128l185 131l-185 131v128z" />
    <glyph glyph-name="onequarter" unicode="&#xbc;" horiz-adv-x="841" 
d="M659 738l72 -57l-538 -719l-72 58zM197 700h37v-400h-89v278l-85 -38v95zM641 0v65h-167v45l161 290h95v-252h43v-83h-43v-65h-89zM578 148h63v122z" />
    <glyph glyph-name="onehalf" unicode="&#xbd;" horiz-adv-x="896" 
d="M659 738l72 -57l-538 -719l-72 58zM197 700h37v-400h-89v278l-85 -38v95zM557 0v35l145 177q27 32 27 68q0 20 -10.5 30.5t-27.5 10.5q-41 0 -51 -53l-80 23q6 50 42.5 81.5t88.5 31.5q59 0 95 -33t36 -89q0 -50 -40 -99l-82 -100h128v-83h-271z" />
    <glyph glyph-name="threequarters" unicode="&#xbe;" horiz-adv-x="826" 
d="M684 738l72 -57l-538 -719l-72 58zM46 422l80 10q5 -26 21 -39.5t37 -13.5q49 0 49 59q0 26 -13.5 39.5t-34.5 13.5q-18 0 -37 -10l-40 50l66 86h-110v83h237v-35l-89 -114q49 0 81.5 -34t32.5 -82q0 -64 -35.5 -101.5t-104.5 -37.5q-60 0 -98.5 36t-41.5 90zM647 0v65
h-167v45l161 290h95v-252h43v-83h-43v-65h-89zM584 148h63v122z" />
    <glyph glyph-name="questiondown" unicode="&#xbf;" horiz-adv-x="458" 
d="M83 180q17 48 54.5 75.5t90.5 27.5q61 0 99.5 -35.5t38.5 -92.5q0 -89 -108 -130q-58 -22 -79 -40t-21 -43t18 -37.5t47 -12.5q65 0 85 67l109 -18q-12 -66 -62.5 -109.5t-128.5 -43.5q-84 0 -134.5 43t-50.5 115q0 56 32.5 87t105.5 59q50 20 67.5 33t17.5 33
q0 16 -10.5 25.5t-25.5 9.5q-41 0 -57 -46zM311 420q0 -35 -24.5 -59.5t-58.5 -24.5t-58.5 24.5t-24.5 59.5q0 34 24 58t59 24t59 -24t24 -58z" />
    <glyph glyph-name="Agrave" unicode="&#xc0;" horiz-adv-x="614" 
d="M469 0l-51 165h-222l-51 -165h-140l237 700h130l237 -700h-140zM307 528l-74 -243h148zM315 904l64 -148h-95l-137 148h168z" />
    <glyph glyph-name="Aacute" unicode="&#xc1;" horiz-adv-x="614" 
d="M469 0l-51 165h-222l-51 -165h-140l237 700h130l237 -700h-140zM307 528l-74 -243h148zM229 756l64 148h168l-137 -148h-95z" />
    <glyph glyph-name="Acircumflex" unicode="&#xc2;" horiz-adv-x="614" 
d="M469 0l-51 165h-222l-51 -165h-140l237 700h130l237 -700h-140zM307 528l-74 -243h148zM119 762l171 186h34l171 -186h-120l-68 74l-68 -74h-120z" />
    <glyph glyph-name="Atilde" unicode="&#xc3;" horiz-adv-x="614" 
d="M469 0l-51 165h-222l-51 -165h-140l237 700h130l237 -700h-140zM307 528l-74 -243h148zM180 765l-65 55q17 39 51 63t72 24q35 0 73 -20.5t60 -20.5q33 0 64 43l65 -55q-17 -39 -51 -63t-72 -24q-35 0 -73 20.5t-60 20.5q-33 0 -64 -43z" />
    <glyph glyph-name="Adieresis" unicode="&#xc4;" horiz-adv-x="614" 
d="M469 0l-51 165h-222l-51 -165h-140l237 700h130l237 -700h-140zM307 528l-74 -243h148zM133 847q0 31 20 51t51 20t51 -20t20 -51t-20 -51t-51 -20t-51 20t-20 51zM340 847q0 31 20 51t51 20t51 -20t20 -51t-20 -51t-51 -20t-51 20t-20 51z" />
    <glyph glyph-name="Aring" unicode="&#xc5;" horiz-adv-x="614" 
d="M469 0l-51 165h-222l-51 -165h-140l237 700h130l237 -700h-140zM307 528l-74 -243h148zM204 851q0 44 29 73t74 29t74 -29t29 -73t-29 -73t-74 -29t-74 29t-29 73zM277 851q0 -32 30 -32t30 32t-30 32t-30 -32z" />
    <glyph glyph-name="AE" unicode="&#xc6;" horiz-adv-x="852" 
d="M313 700h493v-120h-303v-147h243v-120h-243v-193h313v-120h-443v165h-160l-66 -165h-140zM360 528l-98 -243h111v243h-13z" />
    <glyph glyph-name="Ccedilla" unicode="&#xc7;" horiz-adv-x="689" 
d="M662 496l-117 -30q-46 122 -173 122q-86 0 -142.5 -61t-56.5 -177t56.5 -177t142.5 -61q127 0 173 122l117 -30q-25 -101 -100.5 -156.5t-189.5 -55.5q-139 0 -235 95t-96 263t96 263t235 95q114 0 189.5 -55.5t100.5 -156.5zM456 -60l-83 -206l-148 66l141 140h90z" />
    <glyph glyph-name="Egrave" unicode="&#xc8;" horiz-adv-x="556" 
d="M77 700h433v-120h-303v-147h243v-120h-243v-193h313v-120h-443v700zM308 904l64 -148h-95l-137 148h168z" />
    <glyph glyph-name="Eacute" unicode="&#xc9;" horiz-adv-x="556" 
d="M77 700h433v-120h-303v-147h243v-120h-243v-193h313v-120h-443v700zM205 756l64 148h168l-137 -148h-95z" />
    <glyph glyph-name="Ecircumflex" unicode="&#xca;" horiz-adv-x="556" 
d="M77 700h433v-120h-303v-147h243v-120h-243v-193h313v-120h-443v700zM111 762l171 186h34l171 -186h-120l-68 74l-68 -74h-120z" />
    <glyph glyph-name="Edieresis" unicode="&#xcb;" horiz-adv-x="556" 
d="M77 700h433v-120h-303v-147h243v-120h-243v-193h313v-120h-443v700zM126 847q0 31 20 51t51 20t51 -20t20 -51t-20 -51t-51 -20t-51 20t-20 51zM333 847q0 31 20 51t51 20t51 -20t20 -51t-20 -51t-51 -20t-51 20t-20 51z" />
    <glyph glyph-name="Igrave" unicode="&#xcc;" horiz-adv-x="298" 
d="M220 700v-700h-130v700h130zM163 904l64 -148h-95l-137 148h168z" />
    <glyph glyph-name="Iacute" unicode="&#xcd;" horiz-adv-x="298" 
d="M208 700v-700h-130v700h130zM71 756l64 148h168l-137 -148h-95z" />
    <glyph glyph-name="Icircumflex" unicode="&#xce;" horiz-adv-x="302" 
d="M216 700v-700h-130v700h130zM-37 762l171 186h34l171 -186h-120l-68 74l-68 -74h-120z" />
    <glyph glyph-name="Idieresis" unicode="&#xcf;" horiz-adv-x="305" 
d="M218 700v-700h-130v700h130zM-21 847q0 31 20 51t51 20t51 -20t20 -51t-20 -51t-51 -20t-51 20t-20 51zM186 847q0 31 20 51t51 20t51 -20t20 -51t-20 -51t-51 -20t-51 20t-20 51z" />
    <glyph glyph-name="Eth" unicode="&#xd0;" horiz-adv-x="698" 
d="M19 296v108h93v296h219q64 0 121 -21t103.5 -62t74 -109.5t27.5 -157.5t-27.5 -157.5t-74 -109.5t-103.5 -62t-121 -21h-219v296h-93zM290 580h-48v-176h93v-108h-93v-176h48q46 0 84.5 10.5t74 34.5t56 71t20.5 114t-20.5 114t-56 71t-74 34.5t-84.5 10.5z" />
    <glyph glyph-name="Ntilde" unicode="&#xd1;" horiz-adv-x="678" 
d="M471 700h130v-700h-137l-257 462v-462h-130v700h137l257 -462v462zM206 765l-65 55q17 39 51 63t72 24q35 0 73 -20.5t60 -20.5q33 0 64 43l65 -55q-17 -39 -51 -63t-72 -24q-35 0 -73 20.5t-60 20.5q-33 0 -64 -43z" />
    <glyph glyph-name="Ograve" unicode="&#xd2;" horiz-adv-x="742" 
d="M371 708q91 0 164 -37.5t119.5 -120.5t46.5 -200t-46.5 -200t-119.5 -120.5t-164 -37.5t-164 37.5t-119.5 120.5t-46.5 200t46.5 200t119.5 120.5t164 37.5zM371 588q-85 0 -141.5 -60t-56.5 -178t56.5 -178t141.5 -60t141.5 60t56.5 178t-56.5 178t-141.5 60zM372 904
l64 -148h-95l-137 148h168z" />
    <glyph glyph-name="Oacute" unicode="&#xd3;" horiz-adv-x="742" 
d="M371 708q91 0 164 -37.5t119.5 -120.5t46.5 -200t-46.5 -200t-119.5 -120.5t-164 -37.5t-164 37.5t-119.5 120.5t-46.5 200t46.5 200t119.5 120.5t164 37.5zM371 588q-85 0 -141.5 -60t-56.5 -178t56.5 -178t141.5 -60t141.5 60t56.5 178t-56.5 178t-141.5 60zM290 756
l64 148h168l-137 -148h-95z" />
    <glyph glyph-name="Ocircumflex" unicode="&#xd4;" horiz-adv-x="742" 
d="M371 708q91 0 164 -37.5t119.5 -120.5t46.5 -200t-46.5 -200t-119.5 -120.5t-164 -37.5t-164 37.5t-119.5 120.5t-46.5 200t46.5 200t119.5 120.5t164 37.5zM371 588q-85 0 -141.5 -60t-56.5 -178t56.5 -178t141.5 -60t141.5 60t56.5 178t-56.5 178t-141.5 60zM183 762
l171 186h34l171 -186h-120l-68 74l-68 -74h-120z" />
    <glyph glyph-name="Otilde" unicode="&#xd5;" horiz-adv-x="742" 
d="M371 708q91 0 164 -37.5t119.5 -120.5t46.5 -200t-46.5 -200t-119.5 -120.5t-164 -37.5t-164 37.5t-119.5 120.5t-46.5 200t46.5 200t119.5 120.5t164 37.5zM371 588q-85 0 -141.5 -60t-56.5 -178t56.5 -178t141.5 -60t141.5 60t56.5 178t-56.5 178t-141.5 60zM244 765
l-65 55q17 39 51 63t72 24q35 0 73 -20.5t60 -20.5q33 0 64 43l65 -55q-17 -39 -51 -63t-72 -24q-35 0 -73 20.5t-60 20.5q-33 0 -64 -43z" />
    <glyph glyph-name="Odieresis" unicode="&#xd6;" horiz-adv-x="742" 
d="M371 708q91 0 164 -37.5t119.5 -120.5t46.5 -200t-46.5 -200t-119.5 -120.5t-164 -37.5t-164 37.5t-119.5 120.5t-46.5 200t46.5 200t119.5 120.5t164 37.5zM371 588q-85 0 -141.5 -60t-56.5 -178t56.5 -178t141.5 -60t141.5 60t56.5 178t-56.5 178t-141.5 60zM197 847
q0 31 20 51t51 20t51 -20t20 -51t-20 -51t-51 -20t-51 20t-20 51zM404 847q0 31 20 51t51 20t51 -20t20 -51t-20 -51t-51 -20t-51 20t-20 51z" />
    <glyph glyph-name="multiply" unicode="&#xd7;" horiz-adv-x="572" 
d="M521 159l-77 -77l-158 159l-158 -159l-77 77l159 158l-159 158l77 77l158 -159l158 159l77 -77l-159 -158z" />
    <glyph glyph-name="Oslash" unicode="&#xd8;" horiz-adv-x="742" 
d="M607 741l86 -63l-66 -85q74 -93 74 -243q0 -117 -46.5 -200t-119.5 -120.5t-164 -37.5q-99 0 -175 45l-61 -78l-86 63l66 85q-74 93 -74 243q0 117 46.5 200t119.5 120.5t164 37.5q99 0 175 -45zM569 350q0 78 -27 134l-269 -347q44 -25 98 -25q85 0 141.5 60t56.5 178z
M371 588q-85 0 -141.5 -60t-56.5 -178q0 -78 27 -134l269 347q-44 25 -98 25z" />
    <glyph glyph-name="Ugrave" unicode="&#xd9;" horiz-adv-x="636" 
d="M579 700v-434q0 -136 -70.5 -205t-190.5 -69t-190.5 69t-70.5 205v434h130v-436q0 -152 131 -152t131 152v436h130zM320 904l64 -148h-95l-137 148h168z" />
    <glyph glyph-name="Uacute" unicode="&#xda;" horiz-adv-x="636" 
d="M579 700v-434q0 -136 -70.5 -205t-190.5 -69t-190.5 69t-70.5 205v434h130v-436q0 -152 131 -152t131 152v436h130zM251 756l64 148h168l-137 -148h-95z" />
    <glyph glyph-name="Ucircumflex" unicode="&#xdb;" horiz-adv-x="636" 
d="M579 700v-434q0 -136 -70.5 -205t-190.5 -69t-190.5 69t-70.5 205v434h130v-436q0 -152 131 -152t131 152v436h130zM130 762l171 186h34l171 -186h-120l-68 74l-68 -74h-120z" />
    <glyph glyph-name="Udieresis" unicode="&#xdc;" horiz-adv-x="636" 
d="M579 700v-434q0 -136 -70.5 -205t-190.5 -69t-190.5 69t-70.5 205v434h130v-436q0 -152 131 -152t131 152v436h130zM144 847q0 31 20 51t51 20t51 -20t20 -51t-20 -51t-51 -20t-51 20t-20 51zM351 847q0 31 20 51t51 20t51 -20t20 -51t-20 -51t-51 -20t-51 20t-20 51z
" />
    <glyph glyph-name="Yacute" unicode="&#xdd;" horiz-adv-x="534" 
d="M0 700h140l127 -272l127 272h140l-202 -402v-298h-130v298zM191 756l64 148h168l-137 -148h-95z" />
    <glyph glyph-name="Thorn" unicode="&#xde;" horiz-adv-x="577" 
d="M341 137h-134v-137h-130v700h130v-137h134q107 0 163 -58.5t56 -154.5t-56 -154.5t-163 -58.5zM336 257q92 0 92 93t-92 93h-129v-186h129z" />
    <glyph glyph-name="germandbls" unicode="&#xdf;" horiz-adv-x="561" 
d="M28 326v112h52v62q0 100 55 154t146 54t140.5 -48t49.5 -129q0 -48 -23 -83t-57 -47q59 -16 97.5 -62.5t38.5 -119.5q0 -227 -223 -227q-35 0 -65 8v108q40 -8 63 -8q105 0 105 112q0 114 -120 114h-33v112h20q84 0 84 82q0 39 -20.5 60.5t-56.5 21.5q-37 0 -59 -25.5
t-22 -73.5v-503h-120v326h-52z" />
    <glyph glyph-name="agrave" unicode="&#xe0;" horiz-adv-x="601" 
d="M37 252q0 118 64 189t176 71q40 0 77 -17t55 -39v48h124v-504h-124v52q-44 -60 -132 -60q-112 0 -176 71t-64 189zM167 252q0 -71 37.5 -112.5t89.5 -41.5t89 41t37 113t-37 113t-89 41t-89.5 -41.5t-37.5 -112.5zM292 708l64 -148h-95l-137 148h168z" />
    <glyph glyph-name="aacute" unicode="&#xe1;" horiz-adv-x="601" 
d="M37 252q0 118 64 189t176 71q40 0 77 -17t55 -39v48h124v-504h-124v52q-44 -60 -132 -60q-112 0 -176 71t-64 189zM167 252q0 -71 37.5 -112.5t89.5 -41.5t89 41t37 113t-37 113t-89 41t-89.5 -41.5t-37.5 -112.5zM224 560l64 148h168l-137 -148h-95z" />
    <glyph glyph-name="acircumflex" unicode="&#xe2;" horiz-adv-x="601" 
d="M37 252q0 118 64 189t176 71q40 0 77 -17t55 -39v48h124v-504h-124v52q-44 -60 -132 -60q-112 0 -176 71t-64 189zM167 252q0 -71 37.5 -112.5t89.5 -41.5t89 41t37 113t-37 113t-89 41t-89.5 -41.5t-37.5 -112.5zM107 566l171 186h34l171 -186h-120l-68 74l-68 -74h-120
z" />
    <glyph glyph-name="atilde" unicode="&#xe3;" horiz-adv-x="601" 
d="M37 252q0 118 64 189t176 71q40 0 77 -17t55 -39v48h124v-504h-124v52q-44 -60 -132 -60q-112 0 -176 71t-64 189zM167 252q0 -71 37.5 -112.5t89.5 -41.5t89 41t37 113t-37 113t-89 41t-89.5 -41.5t-37.5 -112.5zM161 569l-65 55q17 39 51 63t72 24q35 0 73 -20.5
t60 -20.5q33 0 64 43l65 -55q-17 -39 -51 -63t-72 -24q-35 0 -73 20.5t-60 20.5q-33 0 -64 -43z" />
    <glyph glyph-name="adieresis" unicode="&#xe4;" horiz-adv-x="601" 
d="M37 252q0 118 64 189t176 71q40 0 77 -17t55 -39v48h124v-504h-124v52q-44 -60 -132 -60q-112 0 -176 71t-64 189zM167 252q0 -71 37.5 -112.5t89.5 -41.5t89 41t37 113t-37 113t-89 41t-89.5 -41.5t-37.5 -112.5zM118 651q0 31 20 51t51 20t51 -20t20 -51t-20 -51
t-51 -20t-51 20t-20 51zM325 651q0 31 20 51t51 20t51 -20t20 -51t-20 -51t-51 -20t-51 20t-20 51z" />
    <glyph glyph-name="aring" unicode="&#xe5;" horiz-adv-x="601" 
d="M37 252q0 118 64 189t176 71q40 0 77 -17t55 -39v48h124v-504h-124v52q-44 -60 -132 -60q-112 0 -176 71t-64 189zM167 252q0 -71 37.5 -112.5t89.5 -41.5t89 41t37 113t-37 113t-89 41t-89.5 -41.5t-37.5 -112.5zM168 655q0 44 29 73t74 29t74 -29t29 -73t-29 -73
t-74 -29t-74 29t-29 73zM241 655q0 -32 30 -32t30 32t-30 32t-30 -32z" />
    <glyph glyph-name="ae" unicode="&#xe6;" horiz-adv-x="840" 
d="M809 263v-51h-347q2 -46 33.5 -80t85.5 -34q77 0 122 78l100 -37q-64 -147 -229 -147q-134 0 -200 105q-70 -105 -188 -105q-67 0 -110 40.5t-43 112.5q0 75 59.5 120t155.5 45h84v22q0 74 -88 74q-67 0 -87 -58l-105 24q12 63 64 101.5t128 38.5q113 0 166 -61
q64 61 164 61q60 0 107 -23t74 -60.5t40.5 -80t13.5 -85.5zM163 147q0 -20 13.5 -34.5t38.5 -14.5q46 0 81.5 29t35.5 75v10h-83q-86 0 -86 -65zM574 406q-44 0 -73.5 -28.5t-36.5 -67.5h218q-21 96 -108 96z" />
    <glyph glyph-name="ccedilla" unicode="&#xe7;" horiz-adv-x="541" 
d="M401 181l111 -45q-58 -144 -229 -144q-118 0 -182 74t-64 186t64 186t182 74q171 0 229 -144l-111 -45q-41 83 -118 83q-57 0 -86.5 -42.5t-29.5 -111.5t29.5 -111.5t86.5 -42.5q77 0 118 83zM364 -60l-83 -206l-148 66l141 140h90z" />
    <glyph glyph-name="egrave" unicode="&#xe8;" horiz-adv-x="545" 
d="M514 263v-51h-347q2 -46 33.5 -80t85.5 -34q75 0 119 72l100 -37q-66 -141 -226 -141q-62 0 -110.5 23.5t-76 62t-41.5 83t-14 91.5t14 91.5t41.5 83t76 62t110.5 23.5q60 0 107 -23t74 -60.5t40.5 -80t13.5 -85.5zM279 406q-44 0 -73 -28t-36 -68h217q-21 96 -108 96z
M281 708l64 -148h-95l-137 148h168z" />
    <glyph glyph-name="eacute" unicode="&#xe9;" horiz-adv-x="545" 
d="M514 263v-51h-347q2 -46 33.5 -80t85.5 -34q75 0 119 72l100 -37q-66 -141 -226 -141q-62 0 -110.5 23.5t-76 62t-41.5 83t-14 91.5t14 91.5t41.5 83t76 62t110.5 23.5q60 0 107 -23t74 -60.5t40.5 -80t13.5 -85.5zM279 406q-44 0 -73 -28t-36 -68h217q-21 96 -108 96z
M196 560l64 148h168l-137 -148h-95z" />
    <glyph glyph-name="ecircumflex" unicode="&#xea;" horiz-adv-x="545" 
d="M514 263v-51h-347q2 -46 33.5 -80t85.5 -34q75 0 119 72l100 -37q-66 -141 -226 -141q-62 0 -110.5 23.5t-76 62t-41.5 83t-14 91.5t14 91.5t41.5 83t76 62t110.5 23.5q60 0 107 -23t74 -60.5t40.5 -80t13.5 -85.5zM279 406q-44 0 -73 -28t-36 -68h217q-21 96 -108 96z
M90 566l171 186h34l171 -186h-120l-68 74l-68 -74h-120z" />
    <glyph glyph-name="edieresis" unicode="&#xeb;" horiz-adv-x="545" 
d="M514 263v-51h-347q2 -46 33.5 -80t85.5 -34q75 0 119 72l100 -37q-66 -141 -226 -141q-62 0 -110.5 23.5t-76 62t-41.5 83t-14 91.5t14 91.5t41.5 83t76 62t110.5 23.5q60 0 107 -23t74 -60.5t40.5 -80t13.5 -85.5zM279 406q-44 0 -73 -28t-36 -68h217q-21 96 -108 96z
M107 651q0 31 20 51t51 20t51 -20t20 -51t-20 -51t-51 -20t-51 20t-20 51zM314 651q0 31 20 51t51 20t51 -20t20 -51t-20 -51t-51 -20t-51 20t-20 51z" />
    <glyph glyph-name="igrave" unicode="&#xec;" horiz-adv-x="252" 
d="M66 504h124v-504h-124v504zM150 708l64 -148h-95l-137 148h168z" />
    <glyph glyph-name="iacute" unicode="&#xed;" horiz-adv-x="252" 
d="M62 504h124v-504h-124v504zM38 560l64 148h168l-137 -148h-95z" />
    <glyph glyph-name="icircumflex" unicode="&#xee;" horiz-adv-x="244" 
d="M60 504h124v-504h-124v504zM-66 566l171 186h34l171 -186h-120l-68 74l-68 -74h-120z" />
    <glyph glyph-name="idieresis" unicode="&#xef;" horiz-adv-x="248" 
d="M62 504h124v-504h-124v504zM-50 651q0 31 20 51t51 20t51 -20t20 -51t-20 -51t-51 -20t-51 20t-20 51zM157 651q0 31 20 51t51 20t51 -20t20 -51t-20 -51t-51 -20t-51 20t-20 51z" />
    <glyph glyph-name="eth" unicode="&#xf0;" horiz-adv-x="572" 
d="M253 534l-75 53l29 42q-50 26 -86 39l62 91q45 -19 84 -42l33 48l76 -52l-32 -47q97 -69 144 -163t47 -227q0 -128 -65.5 -206t-183.5 -78t-183.5 73t-65.5 187t65.5 187t183.5 73q43 0 81 -20q-29 51 -82 89zM167 252q0 -66 31 -110t88 -44t88 44t31 110
q-1 66 -31.5 110t-87.5 44t-88 -44t-31 -110z" />
    <glyph glyph-name="ntilde" unicode="&#xf1;" 
d="M68 504h124v-81q62 89 156 89q70 0 112.5 -39t42.5 -113v-360h-124v323q0 83 -72 83q-48 0 -81.5 -55t-33.5 -150v-201h-124v504zM166 569l-65 55q17 39 51 63t72 24q35 0 73 -20.5t60 -20.5q33 0 64 43l65 -55q-17 -39 -51 -63t-72 -24q-35 0 -73 20.5t-60 20.5
q-33 0 -64 -43z" />
    <glyph glyph-name="ograve" unicode="&#xf2;" horiz-adv-x="586" 
d="M37 252q0 113 69 186.5t187 73.5t187 -73.5t69 -186.5t-69 -186.5t-187 -73.5t-187 73.5t-69 186.5zM167 252q0 -65 34 -109.5t92 -44.5t92 44.5t34 109.5t-34 109.5t-92 44.5t-92 -44.5t-34 -109.5zM299 708l64 -148h-95l-137 148h168z" />
    <glyph glyph-name="oacute" unicode="&#xf3;" horiz-adv-x="586" 
d="M37 252q0 113 69 186.5t187 73.5t187 -73.5t69 -186.5t-69 -186.5t-187 -73.5t-187 73.5t-69 186.5zM167 252q0 -65 34 -109.5t92 -44.5t92 44.5t34 109.5t-34 109.5t-92 44.5t-92 -44.5t-34 -109.5zM215 560l64 148h168l-137 -148h-95z" />
    <glyph glyph-name="ocircumflex" unicode="&#xf4;" horiz-adv-x="586" 
d="M37 252q0 113 69 186.5t187 73.5t187 -73.5t69 -186.5t-69 -186.5t-187 -73.5t-187 73.5t-69 186.5zM167 252q0 -65 34 -109.5t92 -44.5t92 44.5t34 109.5t-34 109.5t-92 44.5t-92 -44.5t-34 -109.5zM105 566l171 186h34l171 -186h-120l-68 74l-68 -74h-120z" />
    <glyph glyph-name="otilde" unicode="&#xf5;" horiz-adv-x="586" 
d="M37 252q0 113 69 186.5t187 73.5t187 -73.5t69 -186.5t-69 -186.5t-187 -73.5t-187 73.5t-69 186.5zM167 252q0 -65 34 -109.5t92 -44.5t92 44.5t34 109.5t-34 109.5t-92 44.5t-92 -44.5t-34 -109.5zM166 569l-65 55q17 39 51 63t72 24q35 0 73 -20.5t60 -20.5
q33 0 64 43l65 -55q-17 -39 -51 -63t-72 -24q-35 0 -73 20.5t-60 20.5q-33 0 -64 -43z" />
    <glyph glyph-name="odieresis" unicode="&#xf6;" horiz-adv-x="586" 
d="M37 252q0 113 69 186.5t187 73.5t187 -73.5t69 -186.5t-69 -186.5t-187 -73.5t-187 73.5t-69 186.5zM167 252q0 -65 34 -109.5t92 -44.5t92 44.5t34 109.5t-34 109.5t-92 44.5t-92 -44.5t-34 -109.5zM119 651q0 31 20 51t51 20t51 -20t20 -51t-20 -51t-51 -20t-51 20
t-20 51zM326 651q0 31 20 51t51 20t51 -20t20 -51t-20 -51t-51 -20t-51 20t-20 51z" />
    <glyph glyph-name="divide" unicode="&#xf7;" horiz-adv-x="548" 
d="M190 124q0 36 24 60t60 24t60 -24t24 -60t-24 -60t-60 -24t-60 24t-24 60zM190 506q0 36 24 60t60 24t60 -24t24 -60t-24 -60t-60 -24t-60 24t-24 60zM36 261v108h476v-108h-476z" />
    <glyph glyph-name="oslash" unicode="&#xf8;" horiz-adv-x="588" 
d="M38 252q0 113 69 186.5t187 73.5q64 0 117 -24l60 76l86 -63l-62 -79q55 -69 55 -170q0 -113 -69 -186.5t-187 -73.5q-64 0 -117 24l-60 -76l-86 63l62 79q-55 69 -55 170zM420 252q0 35 -10 62l-162 -207q21 -9 46 -9q58 0 92 44.5t34 109.5zM168 252q0 -35 10 -62
l162 207q-21 9 -46 9q-58 0 -92 -44.5t-34 -109.5z" />
    <glyph glyph-name="ugrave" unicode="&#xf9;" 
d="M497 0h-124v81q-62 -89 -156 -89q-70 0 -112.5 39t-42.5 113v360h124v-323q0 -83 72 -83q48 0 81.5 55t33.5 150v201h124v-504zM280 708l64 -148h-95l-137 148h168z" />
    <glyph glyph-name="uacute" unicode="&#xfa;" 
d="M497 0h-124v81q-62 -89 -156 -89q-70 0 -112.5 39t-42.5 113v360h124v-323q0 -83 72 -83q48 0 81.5 55t33.5 150v201h124v-504zM210 560l64 148h168l-137 -148h-95z" />
    <glyph glyph-name="ucircumflex" unicode="&#xfb;" 
d="M497 0h-124v81q-62 -89 -156 -89q-70 0 -112.5 39t-42.5 113v360h124v-323q0 -83 72 -83q48 0 81.5 55t33.5 150v201h124v-504zM93 566l171 186h34l171 -186h-120l-68 74l-68 -74h-120z" />
    <glyph glyph-name="udieresis" unicode="&#xfc;" 
d="M497 0h-124v81q-62 -89 -156 -89q-70 0 -112.5 39t-42.5 113v360h124v-323q0 -83 72 -83q48 0 81.5 55t33.5 150v201h124v-504zM110 651q0 31 20 51t51 20t51 -20t20 -51t-20 -51t-51 -20t-51 20t-20 51zM317 651q0 31 20 51t51 20t51 -20t20 -51t-20 -51t-51 -20t-51 20
t-20 51z" />
    <glyph glyph-name="yacute" unicode="&#xfd;" horiz-adv-x="481" 
d="M3 504h125l117 -316l110 316h124l-260 -708h-120l87 236zM173 560l64 148h168l-137 -148h-95z" />
    <glyph glyph-name="thorn" unicode="&#xfe;" horiz-adv-x="581" 
d="M544 252q0 -119 -59.5 -189.5t-170.5 -70.5q-43 0 -76.5 19t-45.5 41v-256h-124v912h124v-250q17 22 51 38t71 16q111 0 170.5 -70.5t59.5 -189.5zM414 252q0 72 -33 113t-84 41t-83.5 -40.5t-32.5 -113.5t32.5 -113.5t83.5 -40.5t84 41t33 113z" />
    <glyph glyph-name="ydieresis" unicode="&#xff;" horiz-adv-x="481" 
d="M3 504h125l117 -316l110 316h124l-260 -708h-120l87 236zM69 651q0 31 20 51t51 20t51 -20t20 -51t-20 -51t-51 -20t-51 20t-20 51zM276 651q0 31 20 51t51 20t51 -20t20 -51t-20 -51t-51 -20t-51 20t-20 51z" />
    <glyph glyph-name="Amacron" unicode="&#x100;" horiz-adv-x="614" 
d="M469 0l-51 165h-222l-51 -165h-140l237 700h130l237 -700h-140zM307 528l-74 -243h148zM173 794v110h269v-110h-269z" />
    <glyph glyph-name="amacron" unicode="&#x101;" horiz-adv-x="601" 
d="M37 252q0 118 64 189t176 71q40 0 77 -17t55 -39v48h124v-504h-124v52q-44 -60 -132 -60q-112 0 -176 71t-64 189zM167 252q0 -71 37.5 -112.5t89.5 -41.5t89 41t37 113t-37 113t-89 41t-89.5 -41.5t-37.5 -112.5zM147 598v110h269v-110h-269z" />
    <glyph glyph-name="Abreve" unicode="&#x102;" horiz-adv-x="614" 
d="M469 0l-51 165h-222l-51 -165h-140l237 700h130l237 -700h-140zM307 528l-74 -243h148zM189 896h91q0 -12 7.5 -20t19.5 -8t19.5 8t7.5 20h91q0 -45 -32.5 -77t-85.5 -32t-85.5 32t-32.5 77z" />
    <glyph glyph-name="abreve" unicode="&#x103;" horiz-adv-x="601" 
d="M37 252q0 118 64 189t176 71q40 0 77 -17t55 -39v48h124v-504h-124v52q-44 -60 -132 -60q-112 0 -176 71t-64 189zM167 252q0 -71 37.5 -112.5t89.5 -41.5t89 41t37 113t-37 113t-89 41t-89.5 -41.5t-37.5 -112.5zM180 700h91q0 -12 7.5 -20t19.5 -8t19.5 8t7.5 20h91
q0 -45 -32.5 -77t-85.5 -32t-85.5 32t-32.5 77z" />
    <glyph glyph-name="Aogonek" unicode="&#x104;" horiz-adv-x="605" 
d="M469 0l-51 165h-222l-51 -165h-140l237 700h130l237 -700q-58 -49 -58 -78q0 -26 26 -26q13 0 22.5 8t26.5 31l53 -43q-24 -39 -50.5 -58t-65.5 -19q-44 0 -70.5 24t-26.5 66q0 28 18 53.5t45 41.5h-60zM307 528l-74 -243h148z" />
    <glyph glyph-name="aogonek" unicode="&#x105;" horiz-adv-x="601" 
d="M453 0h-44v52q-44 -60 -132 -60q-112 0 -176 71t-64 189t64 189t176 71q40 0 77 -17t55 -39v48h124v-504q-58 -49 -58 -78q0 -26 26 -26q13 0 22.5 8t26.5 31l53 -43q-24 -39 -50.5 -58t-65.5 -19q-44 0 -70.5 24t-26.5 66q0 28 18 53.5t45 41.5zM167 252
q0 -71 37.5 -112.5t89.5 -41.5t89 41t37 113t-37 113t-89 41t-89.5 -41.5t-37.5 -112.5z" />
    <glyph glyph-name="Cacute" unicode="&#x106;" horiz-adv-x="689" 
d="M662 496l-117 -30q-46 122 -173 122q-86 0 -142.5 -61t-56.5 -177t56.5 -177t142.5 -61q127 0 173 122l117 -30q-25 -101 -100.5 -156.5t-189.5 -55.5q-139 0 -235 95t-96 263t96 263t235 95q114 0 189.5 -55.5t100.5 -156.5zM298 756l64 148h168l-137 -148h-95z" />
    <glyph glyph-name="cacute" unicode="&#x107;" horiz-adv-x="541" 
d="M401 181l111 -45q-58 -144 -229 -144q-118 0 -182 74t-64 186t64 186t182 74q171 0 229 -144l-111 -45q-41 83 -118 83q-57 0 -86.5 -42.5t-29.5 -111.5t29.5 -111.5t86.5 -42.5q77 0 118 83zM210 560l64 148h168l-137 -148h-95z" />
    <glyph glyph-name="Ccircumflex" unicode="&#x108;" horiz-adv-x="689" 
d="M662 496l-117 -30q-46 122 -173 122q-86 0 -142.5 -61t-56.5 -177t56.5 -177t142.5 -61q127 0 173 122l117 -30q-25 -101 -100.5 -156.5t-189.5 -55.5q-139 0 -235 95t-96 263t96 263t235 95q114 0 189.5 -55.5t100.5 -156.5zM185 762l171 186h34l171 -186h-120l-68 74
l-68 -74h-120z" />
    <glyph glyph-name="ccircumflex" unicode="&#x109;" horiz-adv-x="541" 
d="M401 181l111 -45q-58 -144 -229 -144q-118 0 -182 74t-64 186t64 186t182 74q171 0 229 -144l-111 -45q-41 83 -118 83q-57 0 -86.5 -42.5t-29.5 -111.5t29.5 -111.5t86.5 -42.5q77 0 118 83zM98 566l171 186h34l171 -186h-120l-68 74l-68 -74h-120z" />
    <glyph glyph-name="Cdotaccent" unicode="&#x10a;" horiz-adv-x="689" 
d="M662 496l-117 -30q-46 122 -173 122q-86 0 -142.5 -61t-56.5 -177t56.5 -177t142.5 -61q127 0 173 122l117 -30q-25 -101 -100.5 -156.5t-189.5 -55.5q-139 0 -235 95t-96 263t96 263t235 95q114 0 189.5 -55.5t100.5 -156.5zM294 845q0 34 23 57t57 23t57 -23t23 -57
t-23 -57t-57 -23t-57 23t-23 57z" />
    <glyph glyph-name="cdotaccent" unicode="&#x10b;" horiz-adv-x="541" 
d="M401 181l111 -45q-58 -144 -229 -144q-118 0 -182 74t-64 186t64 186t182 74q171 0 229 -144l-111 -45q-41 83 -118 83q-57 0 -86.5 -42.5t-29.5 -111.5t29.5 -111.5t86.5 -42.5q77 0 118 83zM204 649q0 34 23 57t57 23t57 -23t23 -57t-23 -57t-57 -23t-57 23t-23 57z
" />
    <glyph glyph-name="Ccaron" unicode="&#x10c;" horiz-adv-x="689" 
d="M662 496l-117 -30q-46 122 -173 122q-86 0 -142.5 -61t-56.5 -177t56.5 -177t142.5 -61q127 0 173 122l117 -30q-25 -101 -100.5 -156.5t-189.5 -55.5q-139 0 -235 95t-96 263t96 263t235 95q114 0 189.5 -55.5t100.5 -156.5zM356 762l-171 186h120l68 -74l68 74h120
l-171 -186h-34z" />
    <glyph glyph-name="ccaron" unicode="&#x10d;" horiz-adv-x="541" 
d="M401 181l111 -45q-58 -144 -229 -144q-118 0 -182 74t-64 186t64 186t182 74q171 0 229 -144l-111 -45q-41 83 -118 83q-57 0 -86.5 -42.5t-29.5 -111.5t29.5 -111.5t86.5 -42.5q77 0 118 83zM267 566l-171 186h120l68 -74l68 74h120l-171 -186h-34z" />
    <glyph glyph-name="Dcaron" unicode="&#x10e;" horiz-adv-x="663" 
d="M296 0h-219v700h219q64 0 121 -21t103.5 -62t74 -109.5t27.5 -157.5t-27.5 -157.5t-74 -109.5t-103.5 -62t-121 -21zM207 120h48q46 0 84.5 10.5t74 34.5t56 71t20.5 114t-20.5 114t-56 71t-74 34.5t-84.5 10.5h-48v-460zM245 762l-171 186h120l68 -74l68 74h120
l-171 -186h-34z" />
    <glyph glyph-name="dcaron" unicode="&#x10f;" horiz-adv-x="744" 
d="M579 554l25 184h136l-82 -184h-79zM37 252q0 119 59.5 189.5t170.5 70.5q37 0 71 -16t51 -38v250h124v-708h-124v52q-12 -22 -45.5 -41t-76.5 -19q-111 0 -170.5 70.5t-59.5 189.5zM167 252q0 -72 33 -113t84 -41t83.5 40.5t32.5 113.5t-32.5 113.5t-83.5 40.5t-84 -41
t-33 -113z" />
    <glyph glyph-name="Dcroat" unicode="&#x110;" horiz-adv-x="698" 
d="M19 296v108h93v296h219q64 0 121 -21t103.5 -62t74 -109.5t27.5 -157.5t-27.5 -157.5t-74 -109.5t-103.5 -62t-121 -21h-219v296h-93zM290 580h-48v-176h93v-108h-93v-176h48q46 0 84.5 10.5t74 34.5t56 71t20.5 114t-20.5 114t-56 71t-74 34.5t-84.5 10.5z" />
    <glyph glyph-name="dcroat" unicode="&#x111;" horiz-adv-x="592" 
d="M278 559v92h111v57h124v-57h72v-92h-72v-559h-124v52q-12 -22 -45.5 -41t-76.5 -19q-111 0 -170.5 70.5t-59.5 189.5t59.5 189.5t170.5 70.5q37 0 71 -16t51 -38v101h-111zM167 252q0 -72 33 -113t84 -41t83.5 40.5t32.5 113.5t-32.5 113.5t-83.5 40.5t-84 -41t-33 -113z
" />
    <glyph glyph-name="Emacron" unicode="&#x112;" horiz-adv-x="556" 
d="M77 700h433v-120h-303v-147h243v-120h-243v-193h313v-120h-443v700zM168 794v110h269v-110h-269z" />
    <glyph glyph-name="emacron" unicode="&#x113;" horiz-adv-x="545" 
d="M514 263v-51h-347q2 -46 33.5 -80t85.5 -34q75 0 119 72l100 -37q-66 -141 -226 -141q-62 0 -110.5 23.5t-76 62t-41.5 83t-14 91.5t14 91.5t41.5 83t76 62t110.5 23.5q60 0 107 -23t74 -60.5t40.5 -80t13.5 -85.5zM279 406q-44 0 -73 -28t-36 -68h217q-21 96 -108 96z
M145 598v110h269v-110h-269z" />
    <glyph glyph-name="Ebreve" unicode="&#x114;" horiz-adv-x="556" 
d="M77 700h433v-120h-303v-147h243v-120h-243v-193h313v-120h-443v700zM176 896h91q0 -12 7.5 -20t19.5 -8t19.5 8t7.5 20h91q0 -45 -32.5 -77t-85.5 -32t-85.5 32t-32.5 77z" />
    <glyph glyph-name="ebreve" unicode="&#x115;" horiz-adv-x="545" 
d="M514 263v-51h-347q2 -46 33.5 -80t85.5 -34q75 0 119 72l100 -37q-66 -141 -226 -141q-62 0 -110.5 23.5t-76 62t-41.5 83t-14 91.5t14 91.5t41.5 83t76 62t110.5 23.5q60 0 107 -23t74 -60.5t40.5 -80t13.5 -85.5zM279 406q-44 0 -73 -28t-36 -68h217q-21 96 -108 96z
M158 700h91q0 -12 7.5 -20t19.5 -8t19.5 8t7.5 20h91q0 -45 -32.5 -77t-85.5 -32t-85.5 32t-32.5 77z" />
    <glyph glyph-name="Edotaccent" unicode="&#x116;" horiz-adv-x="556" 
d="M77 700h433v-120h-303v-147h243v-120h-243v-193h313v-120h-443v700zM210 845q0 34 23 57t57 23t57 -23t23 -57t-23 -57t-57 -23t-57 23t-23 57z" />
    <glyph glyph-name="edotaccent" unicode="&#x117;" horiz-adv-x="545" 
d="M514 263v-51h-347q2 -46 33.5 -80t85.5 -34q75 0 119 72l100 -37q-66 -141 -226 -141q-62 0 -110.5 23.5t-76 62t-41.5 83t-14 91.5t14 91.5t41.5 83t76 62t110.5 23.5q60 0 107 -23t74 -60.5t40.5 -80t13.5 -85.5zM279 406q-44 0 -73 -28t-36 -68h217q-21 96 -108 96z
M197 649q0 34 23 57t57 23t57 -23t23 -57t-23 -57t-57 -23t-57 23t-23 57z" />
    <glyph glyph-name="Eogonek" unicode="&#x118;" horiz-adv-x="558" 
d="M440 0h-363v700h433v-120h-303v-147h243v-120h-243v-193h313v-120q-58 -49 -58 -78q0 -26 26 -26q13 0 22.5 8t26.5 31l53 -43q-24 -39 -50.5 -58t-65.5 -19q-44 0 -70.5 24t-26.5 66q0 28 18 53.5t45 41.5z" />
    <glyph glyph-name="eogonek" unicode="&#x119;" horiz-adv-x="545" 
d="M514 263v-51h-347q2 -46 33.5 -80t85.5 -34q77 0 122 78l100 -37q-50 -113 -156 -139q-58 -49 -58 -78q0 -26 26 -26q13 0 22.5 8t26.5 31l53 -43q-24 -39 -50.5 -58t-65.5 -19q-44 0 -70.5 24t-26.5 66q0 51 51 88q-57 3 -101.5 27.5t-70 62.5t-38.5 81t-13 88
q0 47 14 91.5t41.5 83t76 62t110.5 23.5q60 0 107 -23t74 -60.5t40.5 -80t13.5 -85.5zM279 406q-44 0 -73 -28t-36 -68h217q-21 96 -108 96z" />
    <glyph glyph-name="Ecaron" unicode="&#x11a;" horiz-adv-x="556" 
d="M77 700h433v-120h-303v-147h243v-120h-243v-193h313v-120h-443v700zM276 762l-171 186h120l68 -74l68 74h120l-171 -186h-34z" />
    <glyph glyph-name="ecaron" unicode="&#x11b;" horiz-adv-x="545" 
d="M514 263v-51h-347q2 -46 33.5 -80t85.5 -34q75 0 119 72l100 -37q-66 -141 -226 -141q-62 0 -110.5 23.5t-76 62t-41.5 83t-14 91.5t14 91.5t41.5 83t76 62t110.5 23.5q60 0 107 -23t74 -60.5t40.5 -80t13.5 -85.5zM279 406q-44 0 -73 -28t-36 -68h217q-21 96 -108 96z
M262 566l-171 186h120l68 -74l68 74h120l-171 -186h-34z" />
    <glyph glyph-name="Gcircumflex" unicode="&#x11c;" horiz-adv-x="716" 
d="M545 0l-11 75q-55 -83 -170 -83q-136 0 -229.5 94t-93.5 264t97 264t236 94q113 0 188 -60.5t103 -160.5l-119 -31q-54 132 -172 132q-89 0 -145 -60.5t-56 -177.5q0 -120 55 -179t143 -59q71 0 110.5 39.5t46.5 93.5h-130v108h256v-353h-109zM186 762l171 186h34
l171 -186h-120l-68 74l-68 -74h-120z" />
    <glyph glyph-name="gcircumflex" unicode="&#x11d;" horiz-adv-x="509" 
d="M76 342q0 77 53 123.5t132 46.5q49 0 93 -22l95 50l49 -82l-72 -36q20 -35 20 -80q0 -77 -53 -122.5t-132 -45.5q-38 0 -73 11q-24 -14 -24 -38q0 -37 47 -37h103q81 0 129 -38.5t48 -109.5q0 -59 -35 -99.5t-84.5 -57.5t-109.5 -17q-101 0 -164.5 43t-63.5 123
q0 62 41 100q-26 31 -26 78q0 69 62 106q-35 43 -35 104zM286 6h-68q-34 0 -58 4q-11 -17 -11 -46q0 -35 31 -53.5t82 -18.5q105 0 105 62q0 52 -81 52zM192 342q0 -30 19.5 -49t49.5 -19t49.5 19t19.5 49q0 31 -19.5 50.5t-49.5 19.5t-49.5 -19.5t-19.5 -50.5zM73 566
l171 186h34l171 -186h-120l-68 74l-68 -74h-120z" />
    <glyph glyph-name="Gbreve" unicode="&#x11e;" horiz-adv-x="716" 
d="M545 0l-11 75q-55 -83 -170 -83q-136 0 -229.5 94t-93.5 264t97 264t236 94q113 0 188 -60.5t103 -160.5l-119 -31q-54 132 -172 132q-89 0 -145 -60.5t-56 -177.5q0 -120 55 -179t143 -59q71 0 110.5 39.5t46.5 93.5h-130v108h256v-353h-109zM255 896h91q0 -12 7.5 -20
t19.5 -8t19.5 8t7.5 20h91q0 -45 -32.5 -77t-85.5 -32t-85.5 32t-32.5 77z" />
    <glyph glyph-name="gbreve" unicode="&#x11f;" horiz-adv-x="509" 
d="M76 342q0 77 53 123.5t132 46.5q49 0 93 -22l95 50l49 -82l-72 -36q20 -35 20 -80q0 -77 -53 -122.5t-132 -45.5q-38 0 -73 11q-24 -14 -24 -38q0 -37 47 -37h103q81 0 129 -38.5t48 -109.5q0 -59 -35 -99.5t-84.5 -57.5t-109.5 -17q-101 0 -164.5 43t-63.5 123
q0 62 41 100q-26 31 -26 78q0 69 62 106q-35 43 -35 104zM286 6h-68q-34 0 -58 4q-11 -17 -11 -46q0 -35 31 -53.5t82 -18.5q105 0 105 62q0 52 -81 52zM192 342q0 -30 19.5 -49t49.5 -19t49.5 19t19.5 49q0 31 -19.5 50.5t-49.5 19.5t-49.5 -19.5t-19.5 -50.5zM144 700h91
q0 -12 7.5 -20t19.5 -8t19.5 8t7.5 20h91q0 -45 -32.5 -77t-85.5 -32t-85.5 32t-32.5 77z" />
    <glyph glyph-name="Gdotaccent" unicode="&#x120;" horiz-adv-x="716" 
d="M545 0l-11 75q-55 -83 -170 -83q-136 0 -229.5 94t-93.5 264t97 264t236 94q113 0 188 -60.5t103 -160.5l-119 -31q-54 132 -172 132q-89 0 -145 -60.5t-56 -177.5q0 -120 55 -179t143 -59q71 0 110.5 39.5t46.5 93.5h-130v108h256v-353h-109zM295 845q0 34 23 57t57 23
t57 -23t23 -57t-23 -57t-57 -23t-57 23t-23 57z" />
    <glyph glyph-name="gdotaccent" unicode="&#x121;" horiz-adv-x="509" 
d="M76 342q0 77 53 123.5t132 46.5q49 0 93 -22l95 50l49 -82l-72 -36q20 -35 20 -80q0 -77 -53 -122.5t-132 -45.5q-38 0 -73 11q-24 -14 -24 -38q0 -37 47 -37h103q81 0 129 -38.5t48 -109.5q0 -59 -35 -99.5t-84.5 -57.5t-109.5 -17q-101 0 -164.5 43t-63.5 123
q0 62 41 100q-26 31 -26 78q0 69 62 106q-35 43 -35 104zM286 6h-68q-34 0 -58 4q-11 -17 -11 -46q0 -35 31 -53.5t82 -18.5q105 0 105 62q0 52 -81 52zM192 342q0 -30 19.5 -49t49.5 -19t49.5 19t19.5 49q0 31 -19.5 50.5t-49.5 19.5t-49.5 -19.5t-19.5 -50.5zM181 649
q0 34 23 57t57 23t57 -23t23 -57t-23 -57t-57 -23t-57 23t-23 57z" />
    <glyph glyph-name="uni0122" unicode="&#x122;" horiz-adv-x="716" 
d="M255 -252l50 200h153l-124 -200h-79zM545 0l-11 75q-55 -83 -170 -83q-136 0 -229.5 94t-93.5 264t97 264t236 94q113 0 188 -60.5t103 -160.5l-119 -31q-54 132 -172 132q-89 0 -145 -60.5t-56 -177.5q0 -120 55 -179t143 -59q71 0 110.5 39.5t46.5 93.5h-130v108h256
v-353h-109z" />
    <glyph glyph-name="uni0123" unicode="&#x123;" horiz-adv-x="509" 
d="M263 744l42 -168h-88l-99 168h145zM76 342q0 77 53 123.5t132 46.5q49 0 93 -22l95 50l49 -82l-72 -36q20 -35 20 -80q0 -77 -53 -122.5t-132 -45.5q-38 0 -73 11q-24 -14 -24 -38q0 -37 47 -37h103q81 0 129 -38.5t48 -109.5q0 -59 -35 -99.5t-84.5 -57.5t-109.5 -17
q-101 0 -164.5 43t-63.5 123q0 62 41 100q-26 31 -26 78q0 69 62 106q-35 43 -35 104zM286 6h-68q-34 0 -58 4q-11 -17 -11 -46q0 -35 31 -53.5t82 -18.5q105 0 105 62q0 52 -81 52zM192 342q0 -30 19.5 -49t49.5 -19t49.5 19t19.5 49q0 31 -19.5 50.5t-49.5 19.5
t-49.5 -19.5t-19.5 -50.5z" />
    <glyph glyph-name="Hcircumflex" unicode="&#x124;" horiz-adv-x="694" 
d="M77 0v700h130v-266h280v266h130v-700h-130v314h-280v-314h-130zM159 762l171 186h34l171 -186h-120l-68 74l-68 -74h-120z" />
    <glyph glyph-name="hcircumflex" unicode="&#x125;" horiz-adv-x="571" 
d="M68 708h124v-285q56 89 160 89q73 0 115 -38.5t42 -113.5v-360h-124v316q0 90 -75 90q-48 0 -83 -49t-35 -144v-213h-124v708zM68 762l171 186h34l171 -186h-120l-68 74l-68 -74h-120z" />
    <glyph glyph-name="Hbar" unicode="&#x126;" horiz-adv-x="714" 
d="M22 496v108h65v96h130v-96h280v96h130v-96h64v-108h-64v-496h-130v314h-280v-314h-130v496h-65zM217 434h280v62h-280v-62z" />
    <glyph glyph-name="hbar" unicode="&#x127;" horiz-adv-x="582" 
d="M7 559v92h72v57h124v-57h111v-92h-111v-136q56 89 160 89q73 0 115 -38.5t42 -113.5v-360h-124v316q0 90 -75 90q-48 0 -83 -49t-35 -144v-213h-124v559h-72z" />
    <glyph glyph-name="Itilde" unicode="&#x128;" horiz-adv-x="300" 
d="M215 700v-700h-130v700h130zM23 765l-65 55q17 39 51 63t72 24q35 0 73 -20.5t60 -20.5q33 0 64 43l65 -55q-17 -39 -51 -63t-72 -24q-35 0 -73 20.5t-60 20.5q-33 0 -64 -43z" />
    <glyph glyph-name="itilde" unicode="&#x129;" horiz-adv-x="242" 
d="M59 504h124v-504h-124v504zM-6 569l-65 55q17 39 51 63t72 24q35 0 73 -20.5t60 -20.5q33 0 64 43l65 -55q-17 -39 -51 -63t-72 -24q-35 0 -73 20.5t-60 20.5q-33 0 -64 -43z" />
    <glyph glyph-name="Imacron" unicode="&#x12a;" horiz-adv-x="304" 
d="M217 700v-700h-130v700h130zM17 794v110h269v-110h-269z" />
    <glyph glyph-name="imacron" unicode="&#x12b;" horiz-adv-x="260" 
d="M68 504h124v-504h-124v504zM-4 598v110h269v-110h-269z" />
    <glyph glyph-name="Ibreve" unicode="&#x12c;" horiz-adv-x="300" 
d="M215 700v-700h-130v700h130zM32 896h91q0 -12 7.5 -20t19.5 -8t19.5 8t7.5 20h91q0 -45 -32.5 -77t-85.5 -32t-85.5 32t-32.5 77z" />
    <glyph glyph-name="ibreve" unicode="&#x12d;" horiz-adv-x="258" 
d="M67 504h124v-504h-124v504zM11 700h91q0 -12 7.5 -20t19.5 -8t19.5 8t7.5 20h91q0 -45 -32.5 -77t-85.5 -32t-85.5 32t-32.5 77z" />
    <glyph glyph-name="Iogonek" unicode="&#x12e;" horiz-adv-x="296" 
d="M129 0h-50v700h130v-700q-58 -49 -58 -78q0 -26 26 -26q13 0 22.5 8t26.5 31l53 -43q-24 -39 -50.5 -58t-65.5 -19q-44 0 -70.5 24t-26.5 66q0 28 18 53.5t45 41.5z" />
    <glyph glyph-name="iogonek" unicode="&#x12f;" horiz-adv-x="253" 
d="M105 0h-44v504h124v-504q-58 -49 -58 -78q0 -26 26 -26q13 0 22.5 8t26.5 31l53 -43q-24 -39 -50.5 -58t-65.5 -19q-44 0 -70.5 24t-26.5 66q0 28 18 53.5t45 41.5zM43 649q0 34 23 57t57 23t57 -23t23 -57t-23 -57t-57 -23t-57 23t-23 57z" />
    <glyph glyph-name="Idotaccent" unicode="&#x130;" horiz-adv-x="288" 
d="M209 700v-700h-130v700h130zM64 845q0 34 23 57t57 23t57 -23t23 -57t-23 -57t-57 -23t-57 23t-23 57z" />
    <glyph glyph-name="dotlessi" unicode="&#x131;" horiz-adv-x="240" 
d="M58 504h124v-504h-124v504z" />
    <glyph glyph-name="IJ" unicode="&#x132;" horiz-adv-x="801" 
d="M207 700v-700h-130v700h130zM299 173l128 27q17 -88 88 -88q45 0 69 27t24 93v468h130v-454q0 -136 -57 -195t-166 -59q-91 0 -148 48t-68 133z" />
    <glyph glyph-name="ij" unicode="&#x133;" horiz-adv-x="506" 
d="M43 649q0 34 23 57t57 23t57 -23t23 -57t-23 -57t-57 -23t-57 23t-23 57zM61 504h124v-504h-124v504zM321 504h124v-508q0 -208 -152 -208q-38 0 -61 9v108q21 -8 35 -8q54 0 54 81v526zM303 649q0 34 23 57t57 23t57 -23t23 -57t-23 -57t-57 -23t-57 23t-23 57z" />
    <glyph glyph-name="Jcircumflex" unicode="&#x134;" horiz-adv-x="508" 
d="M2 173l128 27q17 -88 88 -88q45 0 69 27t24 93v468h130v-454q0 -136 -57 -195t-166 -59q-91 0 -148 48t-68 133zM190 762l171 186h34l171 -186h-120l-68 74l-68 -74h-120z" />
    <glyph glyph-name="jcircumflex" unicode="&#x135;" horiz-adv-x="244" 
d="M60 504h124v-446q0 -118 -51.5 -181.5t-159.5 -88.5l-30 109q59 15 88 47t29 99v461zM-66 566l171 186h34l171 -186h-120l-68 74l-68 -74h-120z" />
    <glyph glyph-name="uni0136" unicode="&#x136;" horiz-adv-x="630" 
d="M199 -252l50 200h153l-124 -200h-79zM77 700h130v-260l239 260h160l-284 -313l304 -387h-165l-254 334v-334h-130v700z" />
    <glyph glyph-name="uni0137" unicode="&#x137;" horiz-adv-x="525" 
d="M156 -252l50 200h153l-124 -200h-79zM68 708h124v-402l164 198h153l-202 -232l215 -272h-152l-178 238v-238h-124v708z" />
    <glyph glyph-name="kgreenlandic" unicode="&#x138;" horiz-adv-x="525" 
d="M68 504h124v-198l164 198h153l-202 -232l215 -272h-152l-178 238v-238h-124v504z" />
    <glyph glyph-name="Lacute" unicode="&#x139;" horiz-adv-x="516" 
d="M77 700h130v-580h297v-120h-427v700zM79 756l64 148h168l-137 -148h-95z" />
    <glyph glyph-name="lacute" unicode="&#x13a;" horiz-adv-x="262" 
d="M67 708h124v-708h-124v708zM69 756l64 148h168l-137 -148h-95z" />
    <glyph glyph-name="uni013B" unicode="&#x13b;" horiz-adv-x="516" 
d="M172 -252l50 200h153l-124 -200h-79zM77 700h130v-580h297v-120h-427v700z" />
    <glyph glyph-name="uni013C" unicode="&#x13c;" horiz-adv-x="268" 
d="M12 -252l50 200h153l-124 -200h-79zM77 708h124v-708h-124v708z" />
    <glyph glyph-name="Lcaron" unicode="&#x13d;" horiz-adv-x="518" 
d="M352 554l25 184h136l-82 -184h-79zM77 700h130v-580h297v-120h-427v700z" />
    <glyph glyph-name="lcaron" unicode="&#x13e;" horiz-adv-x="422" 
d="M257 554l25 184h136l-82 -184h-79zM67 708h124v-708h-124v708z" />
    <glyph glyph-name="Ldot" unicode="&#x13f;" horiz-adv-x="516" 
d="M77 700h130v-580h297v-120h-427v700zM302 369q0 36 24 60t60 24t60 -24t24 -60t-24 -60t-60 -24t-60 24t-24 60z" />
    <glyph glyph-name="ldot" unicode="&#x140;" horiz-adv-x="485" 
d="M67 708h124v-708h-124v708zM260 369q0 36 24 60t60 24t60 -24t24 -60t-24 -60t-60 -24t-60 24t-24 60z" />
    <glyph glyph-name="Lslash" unicode="&#x141;" horiz-adv-x="549" 
d="M110 700h130v-268l101 56l53 -95l-154 -85v-188h297v-120h-427v236l-54 -30l-53 95l107 59v340z" />
    <glyph glyph-name="lslash" unicode="&#x142;" horiz-adv-x="363" 
d="M118 708h124v-249l49 27l53 -95l-102 -56v-335h-124v267l-49 -26l-53 95l102 55v317z" />
    <glyph glyph-name="Nacute" unicode="&#x143;" horiz-adv-x="678" 
d="M471 700h130v-700h-137l-257 462v-462h-130v700h137l257 -462v462zM275 756l64 148h168l-137 -148h-95z" />
    <glyph glyph-name="nacute" unicode="&#x144;" 
d="M68 504h124v-81q62 89 156 89q70 0 112.5 -39t42.5 -113v-360h-124v323q0 83 -72 83q-48 0 -81.5 -55t-33.5 -150v-201h-124v504zM215 560l64 148h168l-137 -148h-95z" />
    <glyph glyph-name="uni0145" unicode="&#x145;" horiz-adv-x="678" 
d="M217 -252l50 200h153l-124 -200h-79zM471 700h130v-700h-137l-257 462v-462h-130v700h137l257 -462v462z" />
    <glyph glyph-name="uni0146" unicode="&#x146;" 
d="M156 -252l50 200h153l-124 -200h-79zM68 504h124v-81q62 89 156 89q70 0 112.5 -39t42.5 -113v-360h-124v323q0 83 -72 83q-48 0 -81.5 -55t-33.5 -150v-201h-124v504z" />
    <glyph glyph-name="Ncaron" unicode="&#x147;" horiz-adv-x="678" 
d="M471 700h130v-700h-137l-257 462v-462h-130v700h137l257 -462v462zM322 762l-171 186h120l68 -74l68 74h120l-171 -186h-34z" />
    <glyph glyph-name="ncaron" unicode="&#x148;" 
d="M68 504h124v-81q62 89 156 89q70 0 112.5 -39t42.5 -113v-360h-124v323q0 83 -72 83q-48 0 -81.5 -55t-33.5 -150v-201h-124v504zM280 566l-171 186h120l68 -74l68 74h120l-171 -186h-34z" />
    <glyph glyph-name="napostrophe" unicode="&#x149;" horiz-adv-x="594" 
d="M14 554l25 184h136l-82 -184h-79zM97 504h124v-81q62 89 156 89q70 0 112.5 -39t42.5 -113v-360h-124v323q0 83 -72 83q-48 0 -81.5 -55t-33.5 -150v-201h-124v504z" />
    <glyph glyph-name="Eng" unicode="&#x14a;" horiz-adv-x="678" 
d="M378 -212v120q43 0 66.5 20t26.5 72l-264 462v-462h-130v700h137l257 -462v462h130v-700q0 -212 -223 -212z" />
    <glyph glyph-name="eng" unicode="&#x14b;" 
d="M379 323q0 83 -72 83q-48 0 -81.5 -55t-33.5 -150v-201h-124v504h124v-81q62 89 156 89q70 0 112.5 -39t42.5 -113v-302q0 -118 -51.5 -181.5t-159.5 -88.5l-30 109q59 15 88 47t29 99v280z" />
    <glyph glyph-name="Omacron" unicode="&#x14c;" horiz-adv-x="742" 
d="M371 708q91 0 164 -37.5t119.5 -120.5t46.5 -200t-46.5 -200t-119.5 -120.5t-164 -37.5t-164 37.5t-119.5 120.5t-46.5 200t46.5 200t119.5 120.5t164 37.5zM371 588q-85 0 -141.5 -60t-56.5 -178t56.5 -178t141.5 -60t141.5 60t56.5 178t-56.5 178t-141.5 60zM236 794
v110h269v-110h-269z" />
    <glyph glyph-name="omacron" unicode="&#x14d;" horiz-adv-x="586" 
d="M37 252q0 113 69 186.5t187 73.5t187 -73.5t69 -186.5t-69 -186.5t-187 -73.5t-187 73.5t-69 186.5zM167 252q0 -65 34 -109.5t92 -44.5t92 44.5t34 109.5t-34 109.5t-92 44.5t-92 -44.5t-34 -109.5zM158 598v110h269v-110h-269z" />
    <glyph glyph-name="Obreve" unicode="&#x14e;" horiz-adv-x="742" 
d="M371 708q91 0 164 -37.5t119.5 -120.5t46.5 -200t-46.5 -200t-119.5 -120.5t-164 -37.5t-164 37.5t-119.5 120.5t-46.5 200t46.5 200t119.5 120.5t164 37.5zM371 588q-85 0 -141.5 -60t-56.5 -178t56.5 -178t141.5 -60t141.5 60t56.5 178t-56.5 178t-141.5 60zM253 896
h91q0 -12 7.5 -20t19.5 -8t19.5 8t7.5 20h91q0 -45 -32.5 -77t-85.5 -32t-85.5 32t-32.5 77z" />
    <glyph glyph-name="obreve" unicode="&#x14f;" horiz-adv-x="586" 
d="M37 252q0 113 69 186.5t187 73.5t187 -73.5t69 -186.5t-69 -186.5t-187 -73.5t-187 73.5t-69 186.5zM167 252q0 -65 34 -109.5t92 -44.5t92 44.5t34 109.5t-34 109.5t-92 44.5t-92 -44.5t-34 -109.5zM175 700h91q0 -12 7.5 -20t19.5 -8t19.5 8t7.5 20h91q0 -45 -32.5 -77
t-85.5 -32t-85.5 32t-32.5 77z" />
    <glyph glyph-name="Ohungarumlaut" unicode="&#x150;" horiz-adv-x="742" 
d="M371 708q91 0 164 -37.5t119.5 -120.5t46.5 -200t-46.5 -200t-119.5 -120.5t-164 -37.5t-164 37.5t-119.5 120.5t-46.5 200t46.5 200t119.5 120.5t164 37.5zM371 588q-85 0 -141.5 -60t-56.5 -178t56.5 -178t141.5 -60t141.5 60t56.5 178t-56.5 178t-141.5 60zM190 756
l64 148h168l-137 -148h-95zM393 756l64 148h168l-137 -148h-95z" />
    <glyph glyph-name="ohungarumlaut" unicode="&#x151;" horiz-adv-x="586" 
d="M37 252q0 113 69 186.5t187 73.5t187 -73.5t69 -186.5t-69 -186.5t-187 -73.5t-187 73.5t-69 186.5zM167 252q0 -65 34 -109.5t92 -44.5t92 44.5t34 109.5t-34 109.5t-92 44.5t-92 -44.5t-34 -109.5zM105 560l64 148h168l-137 -148h-95zM308 560l64 148h168l-137 -148
h-95z" />
    <glyph glyph-name="OE" unicode="&#x152;" horiz-adv-x="1049" 
d="M570 700h433v-120h-303v-147h243v-120h-243v-193h313v-120h-443v52q-84 -60 -199 -60q-91 0 -164 37.5t-119.5 120.5t-46.5 200t46.5 200t119.5 120.5t164 37.5q116 0 199 -61v53zM371 588q-85 0 -141.5 -60t-56.5 -178t56.5 -178t141.5 -60t142 60t57 178t-57 178
t-142 60z" />
    <glyph glyph-name="oe" unicode="&#x153;" horiz-adv-x="927" 
d="M896 263v-51h-347q2 -46 33.5 -80t85.5 -34q77 0 122 78l100 -37q-64 -147 -229 -147q-113 0 -179 76q-71 -76 -189 -76t-187 73.5t-69 186.5t69 186.5t187 73.5q119 0 190 -76q66 76 178 76q60 0 107 -23t74 -60.5t40.5 -80t13.5 -85.5zM167 252q0 -65 34 -109.5
t92 -44.5t92 44.5t34 109.5q0 64 -34.5 109t-91.5 45q-58 0 -92 -44.5t-34 -109.5zM661 406q-44 0 -73 -28t-36 -68h217q-21 96 -108 96z" />
    <glyph glyph-name="Racute" unicode="&#x154;" horiz-adv-x="636" 
d="M545 501q0 -70 -34 -119.5t-97 -68.5l194 -313h-145l-188 302h-68v-302h-130v700h255q102 0 157.5 -54.5t55.5 -144.5zM333 422q82 0 82 79t-82 79h-126v-158h126zM201 756l64 148h168l-137 -148h-95z" />
    <glyph glyph-name="racute" unicode="&#x155;" horiz-adv-x="406" 
d="M192 0h-124v504h124v-82q27 43 66 66.5t83 23.5q22 0 38 -4v-121q-23 14 -52 14q-59 0 -97 -53.5t-38 -168.5v-179zM151 560l64 148h168l-137 -148h-95z" />
    <glyph glyph-name="uni0156" unicode="&#x156;" horiz-adv-x="636" 
d="M210 -252l50 200h153l-124 -200h-79zM545 501q0 -70 -34 -119.5t-97 -68.5l194 -313h-145l-188 302h-68v-302h-130v700h255q102 0 157.5 -54.5t55.5 -144.5zM333 422q82 0 82 79t-82 79h-126v-158h126z" />
    <glyph glyph-name="uni0157" unicode="&#x157;" horiz-adv-x="414" 
d="M23 -252l50 200h153l-124 -200h-79zM200 0h-124v504h124v-82q27 43 66 66.5t83 23.5q22 0 38 -4v-121q-23 14 -52 14q-59 0 -97 -53.5t-38 -168.5v-179z" />
    <glyph glyph-name="Rcaron" unicode="&#x158;" horiz-adv-x="636" 
d="M545 501q0 -70 -34 -119.5t-97 -68.5l194 -313h-145l-188 302h-68v-302h-130v700h255q102 0 157.5 -54.5t55.5 -144.5zM333 422q82 0 82 79t-82 79h-126v-158h126zM256 762l-171 186h120l68 -74l68 74h120l-171 -186h-34z" />
    <glyph glyph-name="rcaron" unicode="&#x159;" horiz-adv-x="413" 
d="M196 0h-124v504h124v-82q27 43 66 66.5t83 23.5q22 0 38 -4v-121q-23 14 -52 14q-59 0 -97 -53.5t-38 -168.5v-179zM222 566l-171 186h120l68 -74l68 74h120l-171 -186h-34z" />
    <glyph glyph-name="Sacute" unicode="&#x15a;" horiz-adv-x="527" 
d="M465 581l-105 -67q-38 74 -97 74q-29 0 -48 -18t-19 -46q0 -33 31 -58.5t75 -45.5t87.5 -44t74.5 -66t31 -100q0 -102 -61 -160t-163 -58q-92 0 -158 56.5t-83 139.5l105 66q40 -142 139 -142q91 0 91 91q0 31 -30 55t-73.5 43t-86.5 43t-73 68t-30 106q0 80 54.5 135
t136.5 55q142 0 202 -127zM193 756l64 148h168l-137 -148h-95z" />
    <glyph glyph-name="sacute" unicode="&#x15b;" horiz-adv-x="445" 
d="M226 512q50 0 92 -22.5t66 -59.5l-74 -68q-34 44 -84 44q-19 0 -32.5 -11t-13.5 -31q0 -31 48 -49q6 -2 36.5 -12.5t42.5 -15.5t36.5 -18.5t35.5 -26.5t21 -34.5t10 -47.5q0 -70 -49.5 -119t-129.5 -49q-72 0 -125 41t-75 95l99 53q30 -83 101 -83q62 0 62 54
q0 12 -6.5 21.5t-20.5 16.5t-27.5 12.5t-35.5 13t-36 13.5q-48 20 -75 51t-27 85q0 61 45 104t116 43zM158 560l64 148h168l-137 -148h-95z" />
    <glyph glyph-name="Scircumflex" unicode="&#x15c;" horiz-adv-x="527" 
d="M465 581l-105 -67q-38 74 -97 74q-29 0 -48 -18t-19 -46q0 -33 31 -58.5t75 -45.5t87.5 -44t74.5 -66t31 -100q0 -102 -61 -160t-163 -58q-92 0 -158 56.5t-83 139.5l105 66q40 -142 139 -142q91 0 91 91q0 31 -30 55t-73.5 43t-86.5 43t-73 68t-30 106q0 80 54.5 135
t136.5 55q142 0 202 -127zM80 762l171 186h34l171 -186h-120l-68 74l-68 -74h-120z" />
    <glyph glyph-name="scircumflex" unicode="&#x15d;" horiz-adv-x="446" 
d="M226 512q50 0 92 -22.5t66 -59.5l-74 -68q-34 44 -84 44q-19 0 -32.5 -11t-13.5 -31q0 -31 48 -49q6 -2 36.5 -12.5t42.5 -15.5t36.5 -18.5t35.5 -26.5t21 -34.5t10 -47.5q0 -70 -49.5 -119t-129.5 -49q-72 0 -125 41t-75 95l99 53q30 -83 101 -83q62 0 62 54
q0 12 -6.5 21.5t-20.5 16.5t-27.5 12.5t-35.5 13t-36 13.5q-48 20 -75 51t-27 85q0 61 45 104t116 43zM41 566l171 186h34l171 -186h-120l-68 74l-68 -74h-120z" />
    <glyph glyph-name="Scedilla" unicode="&#x15e;" horiz-adv-x="527" 
d="M465 581l-105 -67q-38 74 -97 74q-29 0 -48 -18t-19 -46q0 -33 31 -58.5t75 -45.5t87.5 -44t74.5 -66t31 -100q0 -102 -61 -160t-163 -58q-92 0 -158 56.5t-83 139.5l105 66q40 -142 139 -142q91 0 91 91q0 31 -30 55t-73.5 43t-86.5 43t-73 68t-30 106q0 80 54.5 135
t136.5 55q142 0 202 -127zM347 -60l-83 -206l-148 66l141 140h90z" />
    <glyph glyph-name="scedilla" unicode="&#x15f;" horiz-adv-x="445" 
d="M226 512q50 0 92 -22.5t66 -59.5l-74 -68q-34 44 -84 44q-19 0 -32.5 -11t-13.5 -31q0 -31 48 -49q6 -2 36.5 -12.5t42.5 -15.5t36.5 -18.5t35.5 -26.5t21 -34.5t10 -47.5q0 -70 -49.5 -119t-129.5 -49q-72 0 -125 41t-75 95l99 53q30 -83 101 -83q62 0 62 54
q0 12 -6.5 21.5t-20.5 16.5t-27.5 12.5t-35.5 13t-36 13.5q-48 20 -75 51t-27 85q0 61 45 104t116 43zM307 -60l-83 -206l-148 66l141 140h90z" />
    <glyph glyph-name="Scaron" unicode="&#x160;" horiz-adv-x="527" 
d="M465 581l-105 -67q-38 74 -97 74q-29 0 -48 -18t-19 -46q0 -33 31 -58.5t75 -45.5t87.5 -44t74.5 -66t31 -100q0 -102 -61 -160t-163 -58q-92 0 -158 56.5t-83 139.5l105 66q40 -142 139 -142q91 0 91 91q0 31 -30 55t-73.5 43t-86.5 43t-73 68t-30 106q0 80 54.5 135
t136.5 55q142 0 202 -127zM246 762l-171 186h120l68 -74l68 74h120l-171 -186h-34z" />
    <glyph glyph-name="scaron" unicode="&#x161;" horiz-adv-x="451" 
d="M226 512q50 0 92 -22.5t66 -59.5l-74 -68q-34 44 -84 44q-19 0 -32.5 -11t-13.5 -31q0 -31 48 -49q6 -2 36.5 -12.5t42.5 -15.5t36.5 -18.5t35.5 -26.5t21 -34.5t10 -47.5q0 -70 -49.5 -119t-129.5 -49q-72 0 -125 41t-75 95l99 53q30 -83 101 -83q62 0 62 54
q0 12 -6.5 21.5t-20.5 16.5t-27.5 12.5t-35.5 13t-36 13.5q-48 20 -75 51t-27 85q0 61 45 104t116 43zM212 566l-171 186h120l68 -74l68 74h120l-171 -186h-34z" />
    <glyph glyph-name="uni0162" unicode="&#x162;" horiz-adv-x="532" 
d="M139 -252l50 200h153l-124 -200h-79zM7 580v120h518v-120h-194v-580h-130v580h-194z" />
    <glyph glyph-name="uni0163" unicode="&#x163;" horiz-adv-x="385" 
d="M126 -252l50 200h153l-124 -200h-79zM345 114v-111q-37 -11 -75 -11q-81 0 -128.5 47.5t-47.5 138.5v220h-78v106h78v126l124 78v-204h133v-106h-133v-218q0 -45 16.5 -63.5t49.5 -18.5q27 0 61 16z" />
    <glyph glyph-name="Tcaron" unicode="&#x164;" horiz-adv-x="532" 
d="M7 580v120h518v-120h-194v-580h-130v580h-194zM249 762l-171 186h120l68 -74l68 74h120l-171 -186h-34z" />
    <glyph glyph-name="tcaron" unicode="&#x165;" horiz-adv-x="384" 
d="M272 554l25 184h136l-82 -184h-79zM345 114v-111q-37 -11 -75 -11q-81 0 -128.5 47.5t-47.5 138.5v220h-78v106h78v126l124 78v-204h133v-106h-133v-218q0 -45 16.5 -63.5t49.5 -18.5q27 0 61 16z" />
    <glyph glyph-name="Tbar" unicode="&#x166;" horiz-adv-x="532" 
d="M7 580v120h518v-120h-194v-96h169v-108h-169v-376h-130v376h-170v108h170v96h-194z" />
    <glyph glyph-name="tbar" unicode="&#x167;" horiz-adv-x="386" 
d="M32 242v92h62v64h-78v106h78v126l124 78v-204h133v-106h-133v-64h111v-92h-111v-62q0 -45 16.5 -63.5t49.5 -18.5q25 0 48 12l29 -100q-39 -18 -82 -18q-87 0 -136 47t-49 139v64h-62z" />
    <glyph glyph-name="Utilde" unicode="&#x168;" horiz-adv-x="636" 
d="M579 700v-434q0 -136 -70.5 -205t-190.5 -69t-190.5 69t-70.5 205v434h130v-436q0 -152 131 -152t131 152v436h130zM191 765l-65 55q17 39 51 63t72 24q35 0 73 -20.5t60 -20.5q33 0 64 43l65 -55q-17 -39 -51 -63t-72 -24q-35 0 -73 20.5t-60 20.5q-33 0 -64 -43z" />
    <glyph glyph-name="utilde" unicode="&#x169;" 
d="M497 0h-124v81q-62 -89 -156 -89q-70 0 -112.5 39t-42.5 113v360h124v-323q0 -83 72 -83q48 0 81.5 55t33.5 150v201h124v-504zM156 569l-65 55q17 39 51 63t72 24q35 0 73 -20.5t60 -20.5q33 0 64 43l65 -55q-17 -39 -51 -63t-72 -24q-35 0 -73 20.5t-60 20.5
q-33 0 -64 -43z" />
    <glyph glyph-name="Umacron" unicode="&#x16a;" horiz-adv-x="636" 
d="M579 700v-434q0 -136 -70.5 -205t-190.5 -69t-190.5 69t-70.5 205v434h130v-436q0 -152 131 -152t131 152v436h130zM184 794v110h269v-110h-269z" />
    <glyph glyph-name="umacron" unicode="&#x16b;" 
d="M497 0h-124v81q-62 -89 -156 -89q-70 0 -112.5 39t-42.5 113v360h124v-323q0 -83 72 -83q48 0 81.5 55t33.5 150v201h124v-504zM149 598v110h269v-110h-269z" />
    <glyph glyph-name="Ubreve" unicode="&#x16c;" horiz-adv-x="636" 
d="M579 700v-434q0 -136 -70.5 -205t-190.5 -69t-190.5 69t-70.5 205v434h130v-436q0 -152 131 -152t131 152v436h130zM200 896h91q0 -12 7.5 -20t19.5 -8t19.5 8t7.5 20h91q0 -45 -32.5 -77t-85.5 -32t-85.5 32t-32.5 77z" />
    <glyph glyph-name="ubreve" unicode="&#x16d;" 
d="M497 0h-124v81q-62 -89 -156 -89q-70 0 -112.5 39t-42.5 113v360h124v-323q0 -83 72 -83q48 0 81.5 55t33.5 150v201h124v-504zM165 700h91q0 -12 7.5 -20t19.5 -8t19.5 8t7.5 20h91q0 -45 -32.5 -77t-85.5 -32t-85.5 32t-32.5 77z" />
    <glyph glyph-name="Uring" unicode="&#x16e;" horiz-adv-x="636" 
d="M579 700v-434q0 -136 -70.5 -205t-190.5 -69t-190.5 69t-70.5 205v434h130v-436q0 -152 131 -152t131 152v436h130zM215 851q0 44 29 73t74 29t74 -29t29 -73t-29 -73t-74 -29t-74 29t-29 73zM288 851q0 -32 30 -32t30 32t-30 32t-30 -32z" />
    <glyph glyph-name="uring" unicode="&#x16f;" 
d="M497 0h-124v81q-62 -89 -156 -89q-70 0 -112.5 39t-42.5 113v360h124v-323q0 -83 72 -83q48 0 81.5 55t33.5 150v201h124v-504zM180 655q0 44 29 73t74 29t74 -29t29 -73t-29 -73t-74 -29t-74 29t-29 73zM253 655q0 -32 30 -32t30 32t-30 32t-30 -32z" />
    <glyph glyph-name="Uhungarumlaut" unicode="&#x170;" horiz-adv-x="636" 
d="M579 700v-434q0 -136 -70.5 -205t-190.5 -69t-190.5 69t-70.5 205v434h130v-436q0 -152 131 -152t131 152v436h130zM130 756l64 148h168l-137 -148h-95zM333 756l64 148h168l-137 -148h-95z" />
    <glyph glyph-name="uhungarumlaut" unicode="&#x171;" horiz-adv-x="570" 
d="M497 0h-124v81q-62 -89 -156 -89q-70 0 -112.5 39t-42.5 113v360h124v-323q0 -83 72 -83q48 0 81.5 55t33.5 150v201h124v-504zM95 560l64 148h168l-137 -148h-95zM298 560l64 148h168l-137 -148h-95z" />
    <glyph glyph-name="Uogonek" unicode="&#x172;" horiz-adv-x="636" 
d="M579 700v-434q0 -113 -49.5 -180t-137.5 -86q-57 -50 -57 -78q0 -26 26 -26q13 0 22.5 8t26.5 31l53 -43q-24 -39 -50.5 -58t-65.5 -19q-44 0 -70.5 24t-26.5 66q0 51 50 87q-112 5 -177.5 74t-65.5 200v434h130v-436q0 -152 131 -152t131 152v436h130z" />
    <glyph glyph-name="uogonek" unicode="&#x173;" horiz-adv-x="576" 
d="M417 0h-44v81q-62 -89 -156 -89q-70 0 -112.5 39t-42.5 113v360h124v-323q0 -83 72 -83q48 0 81.5 55t33.5 150v201h124v-504q-58 -49 -58 -78q0 -26 26 -26q13 0 22.5 8t26.5 31l53 -43q-24 -39 -50.5 -58t-65.5 -19q-44 0 -70.5 24t-26.5 66q0 28 18 53.5t45 41.5z" />
    <glyph glyph-name="Wcircumflex" unicode="&#x174;" horiz-adv-x="916" 
d="M762 700h138l-183 -700h-132l-127 412l-127 -412h-132l-183 700h138l117 -515l131 441h112l131 -441zM270 762l171 186h34l171 -186h-120l-68 74l-68 -74h-120z" />
    <glyph glyph-name="wcircumflex" unicode="&#x175;" horiz-adv-x="760" 
d="M613 504h125l-161 -504h-110l-87 326l-87 -326h-110l-161 504h125l90 -346l85 346h116l85 -346zM192 566l171 186h34l171 -186h-120l-68 74l-68 -74h-120z" />
    <glyph glyph-name="Ycircumflex" unicode="&#x176;" horiz-adv-x="534" 
d="M0 700h140l127 -272l127 272h140l-202 -402v-298h-130v298zM79 762l171 186h34l171 -186h-120l-68 74l-68 -74h-120z" />
    <glyph glyph-name="ycircumflex" unicode="&#x177;" horiz-adv-x="481" 
d="M3 504h125l117 -316l110 316h124l-260 -708h-120l87 236zM57 566l171 186h34l171 -186h-120l-68 74l-68 -74h-120z" />
    <glyph glyph-name="Ydieresis" unicode="&#x178;" horiz-adv-x="534" 
d="M0 700h140l127 -272l127 272h140l-202 -402v-298h-130v298zM93 847q0 31 20 51t51 20t51 -20t20 -51t-20 -51t-51 -20t-51 20t-20 51zM300 847q0 31 20 51t51 20t51 -20t20 -51t-20 -51t-51 -20t-51 20t-20 51z" />
    <glyph glyph-name="Zacute" unicode="&#x179;" horiz-adv-x="550" 
d="M43 580v120h464v-60l-300 -520h314v-120h-495v60l303 520h-286zM187 756l64 148h168l-137 -148h-95z" />
    <glyph glyph-name="zacute" unicode="&#x17a;" horiz-adv-x="454" 
d="M51 398v106h356v-48l-216 -350h230v-106h-386v48l218 350h-202zM140 560l64 148h168l-137 -148h-95z" />
    <glyph glyph-name="Zdotaccent" unicode="&#x17b;" horiz-adv-x="550" 
d="M43 580v120h464v-60l-300 -520h314v-120h-495v60l303 520h-286zM186 845q0 34 23 57t57 23t57 -23t23 -57t-23 -57t-57 -23t-57 23t-23 57z" />
    <glyph glyph-name="zdotaccent" unicode="&#x17c;" horiz-adv-x="454" 
d="M51 398v106h356v-48l-216 -350h230v-106h-386v48l218 350h-202zM148 649q0 34 23 57t57 23t57 -23t23 -57t-23 -57t-57 -23t-57 23t-23 57z" />
    <glyph glyph-name="Zcaron" unicode="&#x17d;" horiz-adv-x="550" 
d="M43 580v120h464v-60l-300 -520h314v-120h-495v60l303 520h-286zM257 762l-171 186h120l68 -74l68 74h120l-171 -186h-34z" />
    <glyph glyph-name="zcaron" unicode="&#x17e;" horiz-adv-x="454" 
d="M51 398v106h356v-48l-216 -350h230v-106h-386v48l218 350h-202zM215 566l-171 186h120l68 -74l68 74h120l-171 -186h-34z" />
    <glyph glyph-name="longs" unicode="&#x17f;" horiz-adv-x="364" 
d="M28 398v106h64v26q0 89 46.5 133.5t127.5 44.5q57 0 94 -20l-27 -100q-33 14 -60 14q-57 0 -57 -63v-539h-124v398h-64z" />
    <glyph glyph-name="uni018E" unicode="&#x18e;" horiz-adv-x="556" 
d="M501 0h-433v120h303v147h-243v120h243v193h-313v120h443v-700z" />
    <glyph glyph-name="uni018F" unicode="&#x18f;" horiz-adv-x="545" 
d="M41 241v51h347q-2 46 -33.5 80t-85.5 34q-75 0 -119 -72l-100 37q66 141 226 141q62 0 110.5 -23.5t76 -62t41.5 -83t14 -91.5t-14 -91.5t-41.5 -83t-76 -62t-110.5 -23.5q-60 0 -107 23t-74 60.5t-40.5 80t-13.5 85.5zM276 98q44 0 73 28t36 68h-217q21 -96 108 -96z
" />
    <glyph glyph-name="florin" unicode="&#x192;" horiz-adv-x="469" 
d="M93 398l21 106h80l5 26q17 89 72 133.5t136 44.5q58 0 90 -20l-46 -100q-30 14 -57 14q-57 0 -70 -63l-6 -35h108l-21 -106h-108l-85 -432q-17 -89 -72 -133.5t-136 -44.5q-58 0 -90 20l46 100q30 -14 57 -14q57 0 70 63l85 441h-79z" />
    <glyph glyph-name="uni01B5" unicode="&#x1b5;" horiz-adv-x="550" 
d="M43 580v120h464v-60l-136 -236h114v-108h-177l-101 -176h314v-120h-495v60l137 236h-94v108h157l103 176h-286z" />
    <glyph glyph-name="uni01B6" unicode="&#x1b6;" horiz-adv-x="454" 
d="M51 398v106h356v-48l-90 -146h68v-92h-124l-70 -112h230v-106h-386v48l106 170h-79v92h135l56 88h-202z" />
    <glyph glyph-name="Aringacute" unicode="&#x1fa;" horiz-adv-x="614" 
d="M469 0l-51 165h-222l-51 -165h-140l237 700h130l237 -700h-140zM307 528l-74 -243h148zM204 825q0 44 29 73t74 29t74 -29t29 -73t-29 -73t-74 -29t-74 29t-29 73zM277 825q0 -32 30 -32t30 32t-30 32t-30 -32zM227 956l64 148h168l-137 -148h-95z" />
    <glyph glyph-name="aringacute" unicode="&#x1fb;" horiz-adv-x="601" 
d="M37 252q0 118 64 189t176 71q40 0 77 -17t55 -39v48h124v-504h-124v52q-44 -60 -132 -60q-112 0 -176 71t-64 189zM167 252q0 -71 37.5 -112.5t89.5 -41.5t89 41t37 113t-37 113t-89 41t-89.5 -41.5t-37.5 -112.5zM166 655q0 44 29 73t74 29t74 -29t29 -73t-29 -73
t-74 -29t-74 29t-29 73zM239 655q0 -32 30 -32t30 32t-30 32t-30 -32zM190 786l64 148h168l-137 -148h-95z" />
    <glyph glyph-name="AEacute" unicode="&#x1fc;" horiz-adv-x="852" 
d="M313 700h493v-120h-303v-147h243v-120h-243v-193h313v-120h-443v165h-160l-66 -165h-140zM360 528l-98 -243h111v243h-13zM460 756l64 148h168l-137 -148h-95z" />
    <glyph glyph-name="aeacute" unicode="&#x1fd;" horiz-adv-x="840" 
d="M809 263v-51h-347q2 -46 33.5 -80t85.5 -34q77 0 122 78l100 -37q-64 -147 -229 -147q-134 0 -200 105q-70 -105 -188 -105q-67 0 -110 40.5t-43 112.5q0 75 59.5 120t155.5 45h84v22q0 74 -88 74q-67 0 -87 -58l-105 24q12 63 64 101.5t128 38.5q113 0 166 -61
q64 61 164 61q60 0 107 -23t74 -60.5t40.5 -80t13.5 -85.5zM163 147q0 -20 13.5 -34.5t38.5 -14.5q46 0 81.5 29t35.5 75v10h-83q-86 0 -86 -65zM574 406q-44 0 -73.5 -28.5t-36.5 -67.5h218q-21 96 -108 96zM347 560l64 148h168l-137 -148h-95z" />
    <glyph glyph-name="Scommaaccent" unicode="&#x218;" horiz-adv-x="527" 
d="M148 -252l50 200h153l-124 -200h-79zM465 581l-105 -67q-38 74 -97 74q-29 0 -48 -18t-19 -46q0 -33 31 -58.5t75 -45.5t87.5 -44t74.5 -66t31 -100q0 -102 -61 -160t-163 -58q-92 0 -158 56.5t-83 139.5l105 66q40 -142 139 -142q91 0 91 91q0 31 -30 55t-73.5 43
t-86.5 43t-73 68t-30 106q0 80 54.5 135t136.5 55q142 0 202 -127z" />
    <glyph glyph-name="scommaaccent" unicode="&#x219;" horiz-adv-x="445" 
d="M109 -252l50 200h153l-124 -200h-79zM226 512q50 0 92 -22.5t66 -59.5l-74 -68q-34 44 -84 44q-19 0 -32.5 -11t-13.5 -31q0 -31 48 -49q6 -2 36.5 -12.5t42.5 -15.5t36.5 -18.5t35.5 -26.5t21 -34.5t10 -47.5q0 -70 -49.5 -119t-129.5 -49q-72 0 -125 41t-75 95l99 53
q30 -83 101 -83q62 0 62 54q0 12 -6.5 21.5t-20.5 16.5t-27.5 12.5t-35.5 13t-36 13.5q-48 20 -75 51t-27 85q0 61 45 104t116 43z" />
    <glyph glyph-name="uni021A" unicode="&#x21a;" horiz-adv-x="532" 
d="M139 -252l50 200h153l-124 -200h-79zM7 580v120h518v-120h-194v-580h-130v580h-194z" />
    <glyph glyph-name="uni021B" unicode="&#x21b;" horiz-adv-x="385" 
d="M126 -252l50 200h153l-124 -200h-79zM345 114v-111q-37 -11 -75 -11q-81 0 -128.5 47.5t-47.5 138.5v220h-78v106h78v126l124 78v-204h133v-106h-133v-218q0 -45 16.5 -63.5t49.5 -18.5q27 0 61 16z" />
    <glyph glyph-name="circumflex" unicode="&#x2c6;" horiz-adv-x="422" 
d="M23 566l171 186h34l171 -186h-120l-68 74l-68 -74h-120z" />
    <glyph glyph-name="caron" unicode="&#x2c7;" horiz-adv-x="422" 
d="M194 566l-171 186h120l68 -74l68 74h120l-171 -186h-34z" />
    <glyph glyph-name="breve" unicode="&#x2d8;" horiz-adv-x="256" 
d="M7 700h91q0 -12 7.5 -20t19.5 -8t19.5 8t7.5 20h91q0 -45 -32.5 -77t-85.5 -32t-85.5 32t-32.5 77z" />
    <glyph glyph-name="dotaccent" unicode="&#x2d9;" horiz-adv-x="270" 
d="M55 649q0 34 23 57t57 23t57 -23t23 -57t-23 -57t-57 -23t-57 23t-23 57z" />
    <glyph glyph-name="ring" unicode="&#x2da;" horiz-adv-x="230" 
d="M12 655q0 44 29 73t74 29t74 -29t29 -73t-29 -73t-74 -29t-74 29t-29 73zM85 655q0 -32 30 -32t30 32t-30 32t-30 -32z" />
    <glyph glyph-name="ogonek" unicode="&#x2db;" horiz-adv-x="227" 
d="M70 0h80q-58 -49 -58 -78q0 -26 26 -26q13 0 22.5 8t26.5 31l53 -43q-24 -39 -50.5 -58t-65.5 -19q-44 0 -70.5 24t-26.5 66q0 28 18 53.5t45 41.5z" />
    <glyph glyph-name="tilde" unicode="&#x2dc;" horiz-adv-x="411" 
d="M78 569l-65 55q17 39 51 63t72 24q35 0 73 -20.5t60 -20.5q33 0 64 43l65 -55q-17 -39 -51 -63t-72 -24q-35 0 -73 20.5t-60 20.5q-33 0 -64 -43z" />
    <glyph glyph-name="hungarumlaut" unicode="&#x2dd;" horiz-adv-x="460" 
d="M16 560l64 148h168l-137 -148h-95zM219 560l64 148h168l-137 -148h-95z" />
    <glyph glyph-name="pi" unicode="&#x3c0;" horiz-adv-x="606" 
d="M43 396v108h519v-108h-83v-396h-124v396h-105v-396h-124v396h-83z" />
    <glyph glyph-name="uni0400" unicode="&#x400;" horiz-adv-x="556" 
d="M77 700h433v-120h-303v-147h243v-120h-243v-193h313v-120h-443v700zM313 904l64 -148h-95l-137 148h168z" />
    <glyph glyph-name="uni0401" unicode="&#x401;" horiz-adv-x="556" 
d="M77 700h433v-120h-303v-147h243v-120h-243v-193h313v-120h-443v700zM126 847q0 31 20 51t51 20t51 -20t20 -51t-20 -51t-51 -20t-51 20t-20 51zM333 847q0 31 20 51t51 20t51 -20t20 -51t-20 -51t-51 -20t-51 20t-20 51z" />
    <glyph glyph-name="uni0402" unicode="&#x402;" horiz-adv-x="709" 
d="M7 580v120h518v-120h-194v-157q56 89 160 89q73 0 115 -38.5t42 -113.5v-98q0 -118 -51.5 -181.5t-159.5 -88.5l-30 109q59 15 88 47t29 99v69q0 90 -75 90q-47 0 -82.5 -49t-35.5 -144v-213h-130v580h-194z" />
    <glyph glyph-name="uni0403" unicode="&#x403;" horiz-adv-x="517" 
d="M207 580v-580h-130v700h434v-120h-304zM211 756l64 148h168l-137 -148h-95z" />
    <glyph glyph-name="uni0404" unicode="&#x404;" horiz-adv-x="674" 
d="M493 410v-120h-316q13 -88 60 -133t119 -45q121 0 174 124l117 -32q-32 -96 -110 -154t-181 -58q-140 0 -227.5 93.5t-87.5 264.5t87.5 264.5t227.5 93.5q103 0 181 -58t110 -154l-117 -32q-53 124 -174 124q-72 0 -119 -45t-60 -133h316z" />
    <glyph glyph-name="uni0405" unicode="&#x405;" horiz-adv-x="527" 
d="M465 581l-105 -67q-38 74 -97 74q-29 0 -48 -18t-19 -46q0 -33 31 -58.5t75 -45.5t87.5 -44t74.5 -66t31 -100q0 -102 -61 -160t-163 -58q-92 0 -158 56.5t-83 139.5l105 66q40 -142 139 -142q91 0 91 91q0 31 -30 55t-73.5 43t-86.5 43t-73 68t-30 106q0 80 54.5 135
t136.5 55q142 0 202 -127z" />
    <glyph glyph-name="uni0406" unicode="&#x406;" horiz-adv-x="284" 
d="M207 700v-700h-130v700h130z" />
    <glyph glyph-name="uni0407" unicode="&#x407;" horiz-adv-x="305" 
d="M218 700v-700h-130v700h130zM-21 847q0 31 20 51t51 20t51 -20t20 -51t-20 -51t-51 -20t-51 20t-20 51zM186 847q0 31 20 51t51 20t51 -20t20 -51t-20 -51t-51 -20t-51 20t-20 51z" />
    <glyph glyph-name="uni0408" unicode="&#x408;" horiz-adv-x="504" 
d="M2 173l128 27q17 -88 88 -88q45 0 69 27t24 93v468h130v-454q0 -136 -57 -195t-166 -59q-91 0 -148 48t-68 133z" />
    <glyph glyph-name="uni0409" unicode="&#x409;" horiz-adv-x="910" 
d="M100 200l37 500h375v-272h131q109 0 170 -55.5t61 -158.5t-61 -158.5t-170 -55.5h-261v576h-128l-28 -386q-7 -95 -63 -142.5t-157 -47.5v124q33 0 49.5 3.5t29.5 20.5t15 52zM631 308h-119v-188h119q113 0 113 94t-113 94z" />
    <glyph glyph-name="uni040A" unicode="&#x40a;" horiz-adv-x="933" 
d="M405 428v272h130v-272h131q109 0 170 -55.5t61 -158.5t-61 -158.5t-170 -55.5h-261v308h-198v-308h-130v700h130v-272h198zM654 308h-119v-188h119q113 0 113 94t-113 94z" />
    <glyph glyph-name="uni040B" unicode="&#x40b;" horiz-adv-x="710" 
d="M7 580v120h518v-120h-194v-157q56 89 160 89q73 0 115 -38.5t42 -113.5v-360h-124v316q0 90 -75 90q-48 0 -83 -49t-35 -144v-213h-130v580h-194z" />
    <glyph glyph-name="uni040C" unicode="&#x40c;" horiz-adv-x="630" 
d="M77 700h130v-260l239 260h160l-284 -313l304 -387h-165l-254 334v-334h-130v700zM247 756l64 148h168l-137 -148h-95z" />
    <glyph glyph-name="uni040D" unicode="&#x40d;" horiz-adv-x="678" 
d="M340 904l64 -148h-95l-137 148h168zM229 700h-130v-700h137l257 462v-462h130v700h-137l-257 -462v462z" />
    <glyph glyph-name="uni040E" unicode="&#x40e;" horiz-adv-x="520" 
d="M-2 700h125l139 -337l136 337h124l-290 -708h-120l89 220zM146 896h91q0 -12 7.5 -20t19.5 -8t19.5 8t7.5 20h91q0 -45 -32.5 -77t-85.5 -32t-85.5 32t-32.5 77z" />
    <glyph glyph-name="uni040F" unicode="&#x40f;" horiz-adv-x="666" 
d="M77 0v700h130v-576h252v576h130v-700h-191v-124h-130v124h-191z" />
    <glyph glyph-name="uni0410" unicode="&#x410;" horiz-adv-x="614" 
d="M469 0l-51 165h-222l-51 -165h-140l237 700h130l237 -700h-140zM307 528l-74 -243h148z" />
    <glyph glyph-name="uni0411" unicode="&#x411;" horiz-adv-x="605" 
d="M207 428h131q109 0 170 -55.5t61 -158.5t-61 -158.5t-170 -55.5h-261v700h426v-120h-296v-152zM326 308h-119v-188h119q113 0 113 94t-113 94z" />
    <glyph glyph-name="uni0412" unicode="&#x412;" horiz-adv-x="605" 
d="M77 700h256q92 0 146 -48t54 -141q0 -43 -18 -77.5t-51 -51.5q105 -43 105 -171q0 -101 -61.5 -156t-169.5 -55h-261v700zM323 580h-116v-152h119q41 0 61.5 17.5t20.5 58.5t-21 58.5t-64 17.5zM326 308h-119v-188h119q113 0 113 94t-113 94z" />
    <glyph glyph-name="uni0413" unicode="&#x413;" horiz-adv-x="517" 
d="M207 580v-580h-130v700h434v-120h-304z" />
    <glyph glyph-name="uni0414" unicode="&#x414;" horiz-adv-x="693" 
d="M57 -124l-14 248h64l98 576h403v-576h61l-14 -248h-112v124h-374v-124h-112zM478 580h-159l-84 -456h243v456z" />
    <glyph glyph-name="uni0415" unicode="&#x415;" horiz-adv-x="556" 
d="M77 700h433v-120h-303v-147h243v-120h-243v-193h313v-120h-443v700z" />
    <glyph glyph-name="uni0416" unicode="&#x416;" horiz-adv-x="976" 
d="M423 700h130v-260l239 260h160l-284 -313l304 -387h-165l-254 334v-334h-130v334l-254 -334h-165l304 387l-284 313h160l239 -260v260z" />
    <glyph glyph-name="uni0417" unicode="&#x417;" horiz-adv-x="567" 
d="M175 512l-110 22q11 79 67 126.5t142 47.5q100 0 156 -49.5t56 -129.5q0 -94 -85 -149q51 -22 83 -66t32 -103q0 -95 -64.5 -157t-169.5 -62q-93 0 -158.5 50.5t-82.5 137.5l122 43q8 -54 39.5 -84.5t77.5 -30.5t77 29t31 75q0 54 -39 80t-95 26h-34v108h28q56 0 88 24
t32 69q0 35 -27 57t-67 22t-65.5 -24t-33.5 -62z" />
    <glyph glyph-name="uni0418" unicode="&#x418;" horiz-adv-x="678" 
d="M77 700h130v-462l257 462h137v-700h-130v462l-257 -462h-137v700z" />
    <glyph glyph-name="uni0419" unicode="&#x419;" horiz-adv-x="678" 
d="M229 700h-130v-700h137l257 462v-462h130v700h-137l-257 -462v462zM217 896h91q0 -12 7.5 -20t19.5 -8t19.5 8t7.5 20h91q0 -45 -32.5 -77t-85.5 -32t-85.5 32t-32.5 77z" />
    <glyph glyph-name="uni041A" unicode="&#x41a;" horiz-adv-x="630" 
d="M77 700h130v-260l239 260h160l-284 -313l304 -387h-165l-254 334v-334h-130v700z" />
    <glyph glyph-name="uni041B" unicode="&#x41b;" horiz-adv-x="637" 
d="M101 200l37 500h422v-700h-130v576h-175l-28 -386q-14 -190 -221 -190v124q25 0 38.5 1.5t27.5 9t20.5 23t8.5 42.5z" />
    <glyph glyph-name="uni041C" unicode="&#x41c;" horiz-adv-x="776" 
d="M77 0v700h146l165 -437l165 437h146v-700h-130v432l-134 -368h-94l-134 368v-432h-130z" />
    <glyph glyph-name="uni041D" unicode="&#x41d;" horiz-adv-x="694" 
d="M77 0v700h130v-266h280v266h130v-700h-130v314h-280v-314h-130z" />
    <glyph glyph-name="uni041E" unicode="&#x41e;" horiz-adv-x="742" 
d="M371 708q91 0 164 -37.5t119.5 -120.5t46.5 -200t-46.5 -200t-119.5 -120.5t-164 -37.5t-164 37.5t-119.5 120.5t-46.5 200t46.5 200t119.5 120.5t164 37.5zM371 588q-85 0 -141.5 -60t-56.5 -178t56.5 -178t141.5 -60t141.5 60t56.5 178t-56.5 178t-141.5 60z" />
    <glyph glyph-name="uni041F" unicode="&#x41f;" horiz-adv-x="666" 
d="M77 0v700h512v-700h-130v576h-252v-576h-130z" />
    <glyph glyph-name="uni0420" unicode="&#x420;" horiz-adv-x="577" 
d="M341 274h-134v-274h-130v700h264q107 0 163 -58.5t56 -154.5t-56 -154.5t-163 -58.5zM336 394q92 0 92 93t-92 93h-129v-186h129z" />
    <glyph glyph-name="uni0421" unicode="&#x421;" horiz-adv-x="689" 
d="M662 496l-117 -30q-46 122 -173 122q-86 0 -142.5 -61t-56.5 -177t56.5 -177t142.5 -61q127 0 173 122l117 -30q-25 -101 -100.5 -156.5t-189.5 -55.5q-139 0 -235 95t-96 263t96 263t235 95q114 0 189.5 -55.5t100.5 -156.5z" />
    <glyph glyph-name="uni0422" unicode="&#x422;" horiz-adv-x="532" 
d="M7 580v120h518v-120h-194v-580h-130v580h-194z" />
    <glyph glyph-name="uni0423" unicode="&#x423;" horiz-adv-x="520" 
d="M-2 700h125l139 -337l136 337h124l-290 -708h-120l89 220z" />
    <glyph glyph-name="uni0424" unicode="&#x424;" horiz-adv-x="768" 
d="M446 72v-72h-124v72h-9q-120 0 -198 81.5t-78 196.5t78 196.5t198 81.5h9v72h124v-72h9q120 0 198 -81.5t78 -196.5t-78 -196.5t-198 -81.5h-9zM455 522h-9v-344h9q67 0 106.5 50t39.5 122t-39.5 122t-106.5 50zM322 178v344h-9q-67 0 -106.5 -50t-39.5 -122t39.5 -122
t106.5 -50h9z" />
    <glyph glyph-name="uni0425" unicode="&#x425;" horiz-adv-x="590" 
d="M409 700h142l-185 -322l218 -378h-144l-145 253l-145 -253h-144l218 378l-185 322h142l114 -198z" />
    <glyph glyph-name="uni0426" unicode="&#x426;" horiz-adv-x="686" 
d="M77 0v700h130v-576h252v576h130v-576h73l-18 -248h-112v124h-455z" />
    <glyph glyph-name="uni0427" unicode="&#x427;" horiz-adv-x="648" 
d="M441 0v309q-61 -43 -164 -43q-99 0 -156.5 65t-57.5 199v170h130v-170q0 -69 28.5 -104.5t78.5 -35.5q52 0 80 14t61 47v249h130v-700h-130z" />
    <glyph glyph-name="uni0428" unicode="&#x428;" horiz-adv-x="966" 
d="M418 124v576h130v-576h211v576h130v-700h-812v700h130v-576h211z" />
    <glyph glyph-name="uni0429" unicode="&#x429;" horiz-adv-x="986" 
d="M418 124v576h130v-576h211v576h130v-576h73l-18 -248h-112v124h-755v700h130v-576h211z" />
    <glyph glyph-name="uni042A" unicode="&#x42a;" horiz-adv-x="670" 
d="M9 580v120h257v-272h131q109 0 170 -55.5t61 -158.5t-61 -158.5t-170 -55.5h-261v580h-127zM385 308h-119v-188h119q113 0 113 94t-113 94z" />
    <glyph glyph-name="uni042B" unicode="&#x42b;" horiz-adv-x="864" 
d="M77 0v700h130v-272h131q109 0 170 -55.5t61 -158.5t-61 -158.5t-170 -55.5h-261zM326 308h-119v-188h119q113 0 113 94t-113 94zM663 708h124v-708h-124v708z" />
    <glyph glyph-name="uni042C" unicode="&#x42c;" horiz-adv-x="611" 
d="M77 0v700h130v-272h131q109 0 170 -55.5t61 -158.5t-61 -158.5t-170 -55.5h-261zM326 308h-119v-188h119q113 0 113 94t-113 94z" />
    <glyph glyph-name="uni042D" unicode="&#x42d;" horiz-adv-x="674" 
d="M181 290v120h316q-13 88 -60 133t-119 45q-121 0 -174 -124l-117 32q32 96 110 154t181 58q140 0 227.5 -93.5t87.5 -264.5t-87.5 -264.5t-227.5 -93.5q-103 0 -181 58t-110 154l117 32q53 -124 174 -124q72 0 119 45t60 133h-316z" />
    <glyph glyph-name="uni042E" unicode="&#x42e;" horiz-adv-x="1012" 
d="M641 708q91 0 164 -37.5t119.5 -120.5t46.5 -200t-46.5 -200t-119.5 -120.5t-164 -37.5q-128 0 -219.5 76.5t-108.5 221.5h-106v-290h-130v700h130v-290h106q17 145 108.5 221.5t219.5 76.5zM641 588q-85 0 -141.5 -60t-56.5 -178t56.5 -178t141.5 -60t141.5 60t56.5 178
t-56.5 178t-141.5 60z" />
    <glyph glyph-name="uni042F" unicode="&#x42f;" horiz-adv-x="636" 
d="M113 501q0 90 55.5 144.5t157.5 54.5h255v-700h-130v302h-68l-188 -302h-145l194 313q-63 19 -97 68.5t-34 119.5zM325 422h126v158h-126q-82 0 -82 -79t82 -79z" />
    <glyph glyph-name="uni0430" unicode="&#x430;" horiz-adv-x="601" 
d="M37 252q0 118 64 189t176 71q40 0 77 -17t55 -39v48h124v-504h-124v52q-44 -60 -132 -60q-112 0 -176 71t-64 189zM167 252q0 -71 37.5 -112.5t89.5 -41.5t89 41t37 113t-37 113t-89 41t-89.5 -41.5t-37.5 -112.5z" />
    <glyph glyph-name="uni0431" unicode="&#x431;" horiz-adv-x="586" 
d="M37 310q0 210 68.5 300t193.5 90h36q56 0 75 47h77q0 -155 -145 -155h-39q-128 0 -136 -133q57 53 143 53q111 0 175 -72.5t64 -187.5q0 -114 -71 -187t-187 -73t-185 86t-69 232zM167 252q0 -65 34 -109.5t92 -44.5t92 44.5t34 109.5t-34 109.5t-92 44.5t-92 -44.5
t-34 -109.5z" />
    <glyph glyph-name="uni0432" unicode="&#x432;" horiz-adv-x="503" 
d="M68 504h194q79 0 124.5 -34t45.5 -104q0 -27 -13.5 -52t-34.5 -39q35 -17 57.5 -50.5t22.5 -76.5q0 -74 -45.5 -111t-125.5 -37h-225v504zM255 404h-63v-84h63q57 0 57 42t-57 42zM260 212h-68v-106h68q78 0 78 52q0 54 -78 54z" />
    <glyph glyph-name="uni0433" unicode="&#x433;" horiz-adv-x="418" 
d="M192 0h-124v504h341v-106h-217v-398z" />
    <glyph glyph-name="uni0434" unicode="&#x434;" horiz-adv-x="569" 
d="M411 -114v114h-258v-114h-107l-16 220h42l64 398h361v-398h37l-15 -220h-108zM238 398l-45 -292h180v292h-135z" />
    <glyph glyph-name="uni0435" unicode="&#x435;" horiz-adv-x="545" 
d="M514 263v-51h-347q2 -46 33.5 -80t85.5 -34q75 0 119 72l100 -37q-66 -141 -226 -141q-62 0 -110.5 23.5t-76 62t-41.5 83t-14 91.5t14 91.5t41.5 83t76 62t110.5 23.5q60 0 107 -23t74 -60.5t40.5 -80t13.5 -85.5zM279 406q-44 0 -73 -28t-36 -68h217q-21 96 -108 96z
" />
    <glyph glyph-name="uni0436" unicode="&#x436;" horiz-adv-x="790" 
d="M333 504h124v-198l164 198h153l-202 -232l215 -272h-152l-178 238v-238h-124v238l-178 -238h-152l215 272l-202 232h153l164 -198v198z" />
    <glyph glyph-name="uni0437" unicode="&#x437;" horiz-adv-x="433" 
d="M37 146l111 15q4 -30 24.5 -47.5t48.5 -17.5t46 17t18 45t-25 45t-61 17h-24v84h24q35 0 55 15.5t20 42.5q0 24 -15 39t-42 15q-51 0 -64 -55l-103 27q13 54 56 89t113 35q78 0 119.5 -37.5t41.5 -93.5q0 -74 -55 -110q78 -30 78 -120q0 -72 -49.5 -115.5t-132.5 -43.5
q-75 0 -126 43.5t-58 110.5z" />
    <glyph glyph-name="uni0438" unicode="&#x438;" horiz-adv-x="568" 
d="M68 504h124v-311l173 311h135v-504h-124v311l-173 -311h-135v504z" />
    <glyph glyph-name="uni0439" unicode="&#x439;" horiz-adv-x="568" 
d="M68 504h124v-311l173 311h135v-504h-124v311l-173 -311h-135v504zM166 700h91q0 -12 7.5 -20t19.5 -8t19.5 8t7.5 20h91q0 -45 -32.5 -77t-85.5 -32t-85.5 32t-32.5 77z" />
    <glyph glyph-name="uni043A" unicode="&#x43a;" horiz-adv-x="525" 
d="M68 504h124v-198l164 198h153l-202 -232l215 -272h-152l-178 238v-238h-124v504z" />
    <glyph glyph-name="uni043B" unicode="&#x43b;" horiz-adv-x="584" 
d="M116 177l33 327h367v-504h-124v398h-128l-30 -266q-5 -44 -21.5 -71.5t-47 -40.5t-60.5 -16.5t-79 -3.5v106q44 0 65 16t25 55z" />
    <glyph glyph-name="uni043C" unicode="&#x43c;" horiz-adv-x="624" 
d="M68 0v504h130l114 -290l114 290h130v-504h-124v252l-77 -206h-86l-77 206v-252h-124z" />
    <glyph glyph-name="uni043D" unicode="&#x43d;" horiz-adv-x="552" 
d="M68 0v504h124v-183h168v183h124v-504h-124v215h-168v-215h-124z" />
    <glyph glyph-name="uni043E" unicode="&#x43e;" horiz-adv-x="586" 
d="M37 252q0 113 69 186.5t187 73.5t187 -73.5t69 -186.5t-69 -186.5t-187 -73.5t-187 73.5t-69 186.5zM167 252q0 -65 34 -109.5t92 -44.5t92 44.5t34 109.5t-34 109.5t-92 44.5t-92 -44.5t-34 -109.5z" />
    <glyph glyph-name="uni043F" unicode="&#x43f;" horiz-adv-x="549" 
d="M68 0v504h413v-504h-124v398h-165v-398h-124z" />
    <glyph glyph-name="uni0440" unicode="&#x440;" horiz-adv-x="581" 
d="M544 252q0 -119 -59.5 -189.5t-170.5 -70.5q-37 0 -71 16t-51 38v-250h-124v708h124v-52q12 22 45.5 41t76.5 19q111 0 170.5 -70.5t59.5 -189.5zM414 252q0 72 -33 113t-84 41t-83.5 -40.5t-32.5 -113.5t32.5 -113.5t83.5 -40.5t84 41t33 113z" />
    <glyph glyph-name="uni0441" unicode="&#x441;" horiz-adv-x="541" 
d="M401 181l111 -45q-58 -144 -229 -144q-118 0 -182 74t-64 186t64 186t182 74q171 0 229 -144l-111 -45q-41 83 -118 83q-57 0 -86.5 -42.5t-29.5 -111.5t29.5 -111.5t86.5 -42.5q77 0 118 83z" />
    <glyph glyph-name="uni0442" unicode="&#x442;" horiz-adv-x="448" 
d="M27 398v106h394v-106h-135v-398h-124v398h-135z" />
    <glyph glyph-name="uni0443" unicode="&#x443;" horiz-adv-x="481" 
d="M3 504h125l117 -316l110 316h124l-260 -708h-120l87 236z" />
    <glyph glyph-name="uni0444" unicode="&#x444;" horiz-adv-x="710" 
d="M417 -8v-196h-124v196q-114 0 -185 75t-71 185t71 185t185 75v196h124v-196q114 0 185 -75t71 -185t-71 -185t-185 -75zM422 406h-5v-308h5q54 0 87.5 44.5t33.5 109.5t-33.5 109.5t-87.5 44.5zM293 98v308h-5q-54 0 -87.5 -44.5t-33.5 -109.5t33.5 -109.5t87.5 -44.5h5z
" />
    <glyph glyph-name="uni0445" unicode="&#x445;" horiz-adv-x="480" 
d="M322 504h130l-146 -235l167 -269h-130l-103 164l-103 -164h-130l167 269l-146 235h130l82 -131z" />
    <glyph glyph-name="uni0446" unicode="&#x446;" horiz-adv-x="553" 
d="M68 0v504h124v-398h165v398h124v-398h37l-15 -220h-108v114h-327z" />
    <glyph glyph-name="uni0447" unicode="&#x447;" horiz-adv-x="554" 
d="M486 0h-124v209q-35 -31 -68 -43t-80 -12q-70 0 -112 39.5t-42 111.5v199h124v-154q0 -84 72 -84q61 0 106 91v147h124v-504z" />
    <glyph glyph-name="uni0448" unicode="&#x448;" horiz-adv-x="806" 
d="M68 0v504h124v-398h149v398h124v-398h149v398h124v-504h-670z" />
    <glyph glyph-name="uni0449" unicode="&#x449;" horiz-adv-x="810" 
d="M68 0v504h124v-398h149v398h124v-398h149v398h124v-398h37l-15 -220h-108v114h-584z" />
    <glyph glyph-name="uni044A" unicode="&#x44a;" horiz-adv-x="540" 
d="M24 398v106h211v-192h92q80 0 127 -42.5t47 -113.5t-47 -113.5t-127 -42.5h-216v398h-87zM305 206h-70v-100h70q70 0 70 50t-70 50z" />
    <glyph glyph-name="uni044B" unicode="&#x44b;" horiz-adv-x="755" 
d="M68 0v504h124v-192h92q80 0 127 -42.5t47 -113.5t-47 -113.5t-127 -42.5h-216zM262 206h-70v-100h70q70 0 70 50t-70 50zM563 504h124v-504h-124v504z" />
    <glyph glyph-name="uni044C" unicode="&#x44c;" horiz-adv-x="497" 
d="M68 0v504h124v-192h92q80 0 127 -42.5t47 -113.5t-47 -113.5t-127 -42.5h-216zM262 206h-70v-100h70q70 0 70 50t-70 50z" />
    <glyph glyph-name="uni044D" unicode="&#x44d;" horiz-adv-x="543" 
d="M154 203v98h216q-8 47 -39.5 76t-76.5 29q-80 0 -123 -77l-102 52q76 131 221 131q121 0 188.5 -74t67.5 -186t-67.5 -186t-188.5 -74q-145 0 -221 131l102 52q43 -77 123 -77q45 0 76.5 29t39.5 76h-216z" />
    <glyph glyph-name="uni044E" unicode="&#x44e;" horiz-adv-x="805" 
d="M68 0v504h124v-199h68q16 92 82.5 149.5t169.5 57.5q118 0 187 -73.5t69 -186.5t-69 -186.5t-187 -73.5q-104 0 -170.5 57t-81.5 150h-68v-199h-124zM386 252q0 -65 34 -109.5t92 -44.5t92 44.5t34 109.5t-34 109.5t-92 44.5t-92 -44.5t-34 -109.5z" />
    <glyph glyph-name="uni044F" unicode="&#x44f;" horiz-adv-x="476" 
d="M49 361q0 63 47.5 103t119.5 40h192v-504h-124v218h-14l-122 -218h-132l132 224q-46 14 -72.5 50t-26.5 87zM209 324h75v74h-75q-40 0 -40 -37t40 -37z" />
    <glyph glyph-name="uni0450" unicode="&#x450;" horiz-adv-x="545" 
d="M514 263v-51h-347q2 -46 33.5 -80t85.5 -34q75 0 119 72l100 -37q-66 -141 -226 -141q-62 0 -110.5 23.5t-76 62t-41.5 83t-14 91.5t14 91.5t41.5 83t76 62t110.5 23.5q60 0 107 -23t74 -60.5t40.5 -80t13.5 -85.5zM279 406q-44 0 -73 -28t-36 -68h217q-21 96 -108 96z
M282 708l64 -148h-95l-137 148h168z" />
    <glyph glyph-name="uni0451" unicode="&#x451;" horiz-adv-x="545" 
d="M514 263v-51h-347q2 -46 33.5 -80t85.5 -34q75 0 119 72l100 -37q-66 -141 -226 -141q-62 0 -110.5 23.5t-76 62t-41.5 83t-14 91.5t14 91.5t41.5 83t76 62t110.5 23.5q60 0 107 -23t74 -60.5t40.5 -80t13.5 -85.5zM279 406q-44 0 -73 -28t-36 -68h217q-21 96 -108 96z
M105 651q0 31 20 51t51 20t51 -20t20 -51t-20 -51t-51 -20t-51 20t-20 51zM312 651q0 31 20 51t51 20t51 -20t20 -51t-20 -51t-51 -20t-51 20t-20 51z" />
    <glyph glyph-name="uni0452" unicode="&#x452;" horiz-adv-x="582" 
d="M314 559h-111v-136q56 89 160 89q73 0 115 -38.5t42 -113.5v-302q0 -118 -51.5 -181.5t-159.5 -88.5l-30 109q59 15 88 47t29 99v273q0 90 -75 90q-48 0 -83 -49t-35 -144v-213h-124v559h-72v92h72v57h124v-57h111v-92z" />
    <glyph glyph-name="uni0453" unicode="&#x453;" horiz-adv-x="418" 
d="M192 0h-124v504h341v-106h-217v-398zM152 560l64 148h168l-137 -148h-95z" />
    <glyph glyph-name="uni0454" unicode="&#x454;" horiz-adv-x="543" 
d="M389 301v-98h-216q8 -47 39.5 -76t76.5 -29q80 0 123 77l102 -52q-76 -131 -221 -131q-121 0 -188.5 74t-67.5 186t67.5 186t188.5 74q145 0 221 -131l-102 -52q-43 77 -123 77q-45 0 -76.5 -29t-39.5 -76h216z" />
    <glyph glyph-name="uni0455" unicode="&#x455;" horiz-adv-x="445" 
d="M226 512q50 0 92 -22.5t66 -59.5l-74 -68q-34 44 -84 44q-19 0 -32.5 -11t-13.5 -31q0 -31 48 -49q6 -2 36.5 -12.5t42.5 -15.5t36.5 -18.5t35.5 -26.5t21 -34.5t10 -47.5q0 -70 -49.5 -119t-129.5 -49q-72 0 -125 41t-75 95l99 53q30 -83 101 -83q62 0 62 54
q0 12 -6.5 21.5t-20.5 16.5t-27.5 12.5t-35.5 13t-36 13.5q-48 20 -75 51t-27 85q0 61 45 104t116 43z" />
    <glyph glyph-name="uni0456" unicode="&#x456;" horiz-adv-x="246" 
d="M43 649q0 34 23 57t57 23t57 -23t23 -57t-23 -57t-57 -23t-57 23t-23 57zM61 504h124v-504h-124v504z" />
    <glyph glyph-name="uni0457" unicode="&#x457;" horiz-adv-x="248" 
d="M62 504h124v-504h-124v504zM-50 651q0 31 20 51t51 20t51 -20t20 -51t-20 -51t-51 -20t-51 20t-20 51zM157 651q0 31 20 51t51 20t51 -20t20 -51t-20 -51t-51 -20t-51 20t-20 51z" />
    <glyph glyph-name="uni0458" unicode="&#x458;" horiz-adv-x="249" 
d="M64 504h124v-508q0 -208 -152 -208q-38 0 -61 9v108q21 -8 35 -8q54 0 54 81v526zM46 649q0 34 23 57t57 23t57 -23t23 -57t-23 -57t-57 -23t-57 23t-23 57z" />
    <glyph glyph-name="uni0459" unicode="&#x459;" horiz-adv-x="785" 
d="M116 177l33 327h331v-192h92q80 0 127 -42.5t47 -113.5t-47 -113.5t-127 -42.5h-216v398h-92l-30 -266q-5 -44 -21.5 -71.5t-47 -40.5t-60.5 -16.5t-79 -3.5v106q44 0 65 16t25 55zM550 206h-70v-100h70q70 0 70 50t-70 50z" />
    <glyph glyph-name="uni045A" unicode="&#x45a;" horiz-adv-x="799" 
d="M68 0v504h124v-192h178v192h124v-192h92q80 0 127 -42.5t47 -113.5t-47 -113.5t-127 -42.5h-216v206h-178v-206h-124zM564 206h-70v-100h70q70 0 70 50t-70 50z" />
    <glyph glyph-name="uni045B" unicode="&#x45b;" horiz-adv-x="582" 
d="M7 559v92h72v57h124v-57h111v-92h-111v-136q56 89 160 89q73 0 115 -38.5t42 -113.5v-360h-124v316q0 90 -75 90q-48 0 -83 -49t-35 -144v-213h-124v559h-72z" />
    <glyph glyph-name="uni045C" unicode="&#x45c;" horiz-adv-x="525" 
d="M68 504h124v-198l164 198h153l-202 -232l215 -272h-152l-178 238v-238h-124v504zM206 560l64 148h168l-137 -148h-95z" />
    <glyph glyph-name="uni045D" unicode="&#x45d;" horiz-adv-x="568" 
d="M68 504h124v-311l173 311h135v-504h-124v311l-173 -311h-135v504zM289 708l64 -148h-95l-137 148h168z" />
    <glyph glyph-name="uni045E" unicode="&#x45e;" horiz-adv-x="481" 
d="M3 504h125l117 -316l110 316h124l-260 -708h-120l87 236zM127 700h91q0 -12 7.5 -20t19.5 -8t19.5 8t7.5 20h91q0 -45 -32.5 -77t-85.5 -32t-85.5 32t-32.5 77z" />
    <glyph glyph-name="uni045F" unicode="&#x45f;" horiz-adv-x="550" 
d="M68 0v504h124v-398h166v398h124v-504h-145v-114h-124v114h-145z" />
    <glyph glyph-name="endash" unicode="&#x2013;" horiz-adv-x="567" 
d="M56 263v108h455v-108h-455z" />
    <glyph glyph-name="emdash" unicode="&#x2014;" horiz-adv-x="753" 
d="M56 263v108h641v-108h-641z" />
    <glyph glyph-name="quoteleft" unicode="&#x2018;" horiz-adv-x="321" 
d="M206 708l78 -244h-92l-149 244h163z" />
    <glyph glyph-name="quoteright" unicode="&#x2019;" horiz-adv-x="321" 
d="M43 464l78 244h163l-149 -244h-92z" />
    <glyph glyph-name="quotesinglbase" unicode="&#x201a;" horiz-adv-x="321" 
d="M37 -14l78 244h163l-149 -244h-92z" />
    <glyph glyph-name="quotedblleft" unicode="&#x201c;" horiz-adv-x="541" 
d="M426 708l78 -244h-92l-149 244h163zM206 708l78 -244h-92l-149 244h163z" />
    <glyph glyph-name="quotedblright" unicode="&#x201d;" horiz-adv-x="541" 
d="M37 464l78 244h163l-149 -244h-92zM257 464l78 244h163l-149 -244h-92z" />
    <glyph glyph-name="quotedblbase" unicode="&#x201e;" horiz-adv-x="541" 
d="M37 -14l78 244h163l-149 -244h-92zM257 -14l78 244h163l-149 -244h-92z" />
    <glyph glyph-name="dagger" unicode="&#x2020;" horiz-adv-x="510" 
d="M45 396v108h149v246h122v-246h149v-108h-149v-446h-122v446h-149z" />
    <glyph glyph-name="daggerdbl" unicode="&#x2021;" horiz-adv-x="510" 
d="M45 396v108h149v246h122v-246h149v-108h-149v-92h149v-108h-149v-246h-122v246h-149v108h149v92h-149z" />
    <glyph glyph-name="bullet" unicode="&#x2022;" horiz-adv-x="370" 
d="M67 330q0 49 34.5 83.5t83.5 34.5t83.5 -34.5t34.5 -83.5t-34.5 -83.5t-83.5 -34.5t-83.5 34.5t-34.5 83.5z" />
    <glyph glyph-name="ellipsis" unicode="&#x2026;" horiz-adv-x="948" 
d="M68 78q0 36 24 60t60 24t60 -24t24 -60t-24 -60t-60 -24t-60 24t-24 60zM390 78q0 36 24 60t60 24t60 -24t24 -60t-24 -60t-60 -24t-60 24t-24 60zM712 78q0 36 24 60t60 24t60 -24t24 -60t-24 -60t-60 -24t-60 24t-24 60z" />
    <glyph glyph-name="perthousand" unicode="&#x2030;" horiz-adv-x="1223" 
d="M45 548q0 68 46.5 114t117.5 46t117.5 -46t46.5 -114t-46.5 -114t-117.5 -46t-117.5 46t-46.5 114zM147 548q0 -28 16.5 -46.5t45.5 -18.5t45.5 18.5t16.5 46.5t-16.5 46.5t-45.5 18.5t-45.5 -18.5t-16.5 -46.5zM451 152q0 68 46.5 114t117.5 46t117.5 -46t46.5 -114
t-46.5 -114t-117.5 -46t-117.5 46t-46.5 114zM553 152q0 -28 16.5 -46.5t45.5 -18.5t45.5 18.5t16.5 46.5t-16.5 46.5t-45.5 18.5t-45.5 -18.5t-16.5 -46.5zM850 152q0 68 46.5 114t117.5 46t117.5 -46t46.5 -114t-46.5 -114t-117.5 -46t-117.5 46t-46.5 114zM952 152
q0 -28 16.5 -46.5t45.5 -18.5t45.5 18.5t16.5 46.5t-16.5 46.5t-45.5 18.5t-45.5 -18.5t-16.5 -46.5zM651 738l72 -57l-538 -719l-72 58z" />
    <glyph glyph-name="guilsinglleft" unicode="&#x2039;" horiz-adv-x="390" 
d="M38 269v82l309 218v-128l-185 -131l185 -131v-128z" />
    <glyph glyph-name="guilsinglright" unicode="&#x203a;" horiz-adv-x="390" 
d="M352 351v-82l-309 -218v128l185 131l-185 131v128z" />
    <glyph glyph-name="fraction" unicode="&#x2044;" horiz-adv-x="616" 
d="M541 738l72 -57l-538 -719l-72 58z" />
    <glyph glyph-name="zerosuperior" unicode="&#x2070;" horiz-adv-x="402" 
d="M201 704q77 0 121.5 -53.5t44.5 -150.5t-44.5 -150.5t-121.5 -53.5t-121.5 53.5t-44.5 150.5t44.5 150.5t121.5 53.5zM201 621q-32 0 -53 -29.5t-21 -91.5t21 -91.5t53 -29.5t53 29.5t21 91.5t-21 91.5t-53 29.5z" />
    <glyph glyph-name="foursuperior" unicode="&#x2074;" horiz-adv-x="344" 
d="M191 300v65h-167v45l161 290h95v-252h43v-83h-43v-65h-89zM128 448h63v122z" />
    <glyph glyph-name="fivesuperior" unicode="&#x2075;" horiz-adv-x="345" 
d="M36 414l87 10q10 -45 51 -45q54 0 54 59q0 55 -54 55q-32 0 -58 -23l-71 15l21 215h230v-83h-155l-10 -67q27 15 63 15q61 0 94 -35.5t33 -91.5q0 -66 -40 -104t-107 -38q-54 0 -93.5 33.5t-44.5 84.5z" />
    <glyph glyph-name="sixsuperior" unicode="&#x2076;" horiz-adv-x="361" 
d="M273 704l-89 -148q8 3 18 3q51 0 86 -33t35 -98q0 -58 -39.5 -95t-101.5 -37t-101 36.5t-39 95.5q0 43 18 75l113 201h100zM182 476q-20 0 -33.5 -13t-13.5 -35q0 -21 13.5 -35t33.5 -14t33.5 13.5t13.5 35.5t-13 35t-34 13z" />
    <glyph glyph-name="sevensuperior" unicode="&#x2077;" horiz-adv-x="308" 
d="M295 700v-35l-150 -365h-95l132 317h-148v83h261z" />
    <glyph glyph-name="eightsuperior" unicode="&#x2078;" horiz-adv-x="350" 
d="M175 704q57 0 91 -32t34 -76q0 -55 -45 -80q58 -27 58 -90q0 -59 -38 -94.5t-100 -35.5t-100 35.5t-38 94.5q0 63 58 90q-45 25 -45 80q0 44 34 76t91 32zM175 473q-21 0 -33 -13t-12 -34t12 -34t33 -13t33 13t12 34t-12 34t-33 13zM175 637q-19 0 -30 -12t-11 -32
t11 -32t30 -12t30 12t11 32t-11 32t-30 12z" />
    <glyph glyph-name="ninesuperior" unicode="&#x2079;" horiz-adv-x="361" 
d="M88 296l89 148q-7 -3 -18 -3q-51 0 -86 33t-35 98q0 58 39.5 95t101.5 37t101 -36.5t39 -95.5q0 -44 -18 -75l-113 -201h-100zM179 524q20 0 33.5 13t13.5 35q0 21 -13.5 35t-33.5 14t-33.5 -13.5t-13.5 -35.5t13 -35t34 -13z" />
    <glyph glyph-name="zeroinferior" unicode="&#x2080;" horiz-adv-x="402" 
d="M201 200q77 0 121.5 -53.5t44.5 -150.5t-44.5 -150.5t-121.5 -53.5t-121.5 53.5t-44.5 150.5t44.5 150.5t121.5 53.5zM201 117q-32 0 -53 -29.5t-21 -91.5t21 -91.5t53 -29.5t53 29.5t21 91.5t-21 91.5t-53 29.5z" />
    <glyph glyph-name="oneinferior" unicode="&#x2081;" horiz-adv-x="287" 
d="M182 196h37v-400h-89v278l-85 -38v95z" />
    <glyph glyph-name="twoinferior" unicode="&#x2082;" horiz-adv-x="364" 
d="M46 -204v35l145 177q27 32 27 68q0 20 -10.5 30.5t-27.5 10.5q-41 0 -51 -53l-80 23q6 50 42.5 81.5t88.5 31.5q59 0 95 -33t36 -89q0 -50 -40 -99l-82 -100h128v-83h-271z" />
    <glyph glyph-name="threeinferior" unicode="&#x2083;" horiz-adv-x="373" 
d="M46 -82l80 10q5 -26 21 -39.5t37 -13.5q49 0 49 59q0 26 -13.5 39.5t-34.5 13.5q-18 0 -37 -10l-40 50l66 86h-110v83h237v-35l-89 -114q49 0 81.5 -34t32.5 -82q0 -64 -35.5 -101.5t-104.5 -37.5q-60 0 -98.5 36t-41.5 90z" />
    <glyph glyph-name="fourinferior" unicode="&#x2084;" horiz-adv-x="344" 
d="M191 -204v65h-167v45l161 290h95v-252h43v-83h-43v-65h-89zM128 -56h63v122z" />
    <glyph glyph-name="fiveinferior" unicode="&#x2085;" horiz-adv-x="345" 
d="M36 -90l87 10q10 -45 51 -45q54 0 54 59q0 55 -54 55q-32 0 -58 -23l-71 15l21 215h230v-83h-155l-10 -67q27 15 63 15q61 0 94 -35.5t33 -91.5q0 -66 -40 -104t-107 -38q-54 0 -93.5 33.5t-44.5 84.5z" />
    <glyph glyph-name="sixinferior" unicode="&#x2086;" horiz-adv-x="361" 
d="M273 200l-89 -148q8 3 18 3q51 0 86 -33t35 -98q0 -58 -39.5 -95t-101.5 -37t-101 36.5t-39 95.5q0 43 18 75l113 201h100zM182 -28q-20 0 -33.5 -13t-13.5 -35q0 -21 13.5 -35t33.5 -14t33.5 13.5t13.5 35.5t-13 35t-34 13z" />
    <glyph glyph-name="seveninferior" unicode="&#x2087;" horiz-adv-x="308" 
d="M295 196v-35l-150 -365h-95l132 317h-148v83h261z" />
    <glyph glyph-name="eightinferior" unicode="&#x2088;" horiz-adv-x="350" 
d="M175 200q57 0 91 -32t34 -76q0 -55 -45 -80q58 -27 58 -90q0 -59 -38 -94.5t-100 -35.5t-100 35.5t-38 94.5q0 63 58 90q-45 25 -45 80q0 44 34 76t91 32zM175 -31q-21 0 -33 -13t-12 -34t12 -34t33 -13t33 13t12 34t-12 34t-33 13zM175 133q-19 0 -30 -12t-11 -32
t11 -32t30 -12t30 12t11 32t-11 32t-30 12z" />
    <glyph glyph-name="nineinferior" unicode="&#x2089;" horiz-adv-x="361" 
d="M88 -208l89 148q-7 -3 -18 -3q-51 0 -86 33t-35 98q0 58 39.5 95t101.5 37t101 -36.5t39 -95.5q0 -44 -18 -75l-113 -201h-100zM179 20q20 0 33.5 13t13.5 35q0 21 -13.5 35t-33.5 14t-33.5 -13.5t-13.5 -35.5t13 -35t34 -13z" />
    <glyph glyph-name="Euro" unicode="&#x20ac;" horiz-adv-x="636" 
d="M22 376l50 108h50q25 109 96 166.5t171 57.5q153 0 216 -117l-108 -64q-34 65 -108 65q-108 0 -140 -108h210l-50 -108h-174v-52h224l-50 -108h-160q32 -108 140 -108q74 0 108 65l108 -64q-63 -117 -216 -117q-100 0 -171 57.5t-96 166.5h-100l50 108h39v52h-89z" />
    <glyph glyph-name="trademark" unicode="&#x2122;" horiz-adv-x="838" 
d="M20 610v90h305v-90h-104v-310h-97v310h-104zM385 300v400h97l97 -233l97 233h97v-400h-97v193l-65 -156h-64l-65 156v-193h-97z" />
    <glyph glyph-name="Omega" unicode="&#x2126;" horiz-adv-x="676" 
d="M617 108v-108h-245v40q11 22 27.5 61t44 144.5t27.5 194.5q0 75 -34.5 117.5t-98.5 42.5t-98.5 -42.5t-34.5 -117.5q0 -56 10 -118t24.5 -110t29.5 -88t25 -62l10 -22v-40h-245v108h130q-4 6 -11.5 18t-26 48.5t-33 73.5t-26 90t-11.5 102q0 118 69.5 193t187.5 75
t187.5 -75t69.5 -193q0 -77 -27 -160t-54 -128l-27 -44h130z" />
    <glyph glyph-name="onethird" unicode="&#x2153;" horiz-adv-x="874" 
d="M646 738l72 -57l-538 -719l-72 58zM194 700h37v-400h-89v278l-85 -38v95zM547 122l80 10q5 -26 21 -39.5t37 -13.5q49 0 49 59q0 26 -13 39.5t-35 13.5q-18 0 -37 -10l-40 50l66 86h-110v83h237v-35l-89 -114q49 0 81.5 -34t32.5 -82q0 -64 -35.5 -101.5t-104.5 -37.5
q-60 0 -98.5 36t-41.5 90z" />
    <glyph glyph-name="twothirds" unicode="&#x2154;" horiz-adv-x="906" 
d="M682 738l72 -57l-538 -719l-72 58zM30 300v35l145 177q27 32 27 68q0 20 -10.5 30.5t-27.5 10.5q-41 0 -51 -53l-80 23q6 50 42.5 81.5t88.5 31.5q59 0 95 -33t36 -89q0 -50 -40 -99l-82 -100h128v-83h-271zM579 122l80 10q5 -26 21 -39.5t37 -13.5q49 0 49 59
q0 26 -13 39.5t-35 13.5q-18 0 -37 -10l-40 50l66 86h-110v83h237v-35l-89 -114q49 0 81.5 -34t32.5 -82q0 -64 -35.5 -101.5t-104.5 -37.5q-60 0 -98.5 36t-41.5 90z" />
    <glyph glyph-name="oneeighth" unicode="&#x215b;" horiz-adv-x="853" 
d="M647 738l72 -57l-538 -719l-72 58zM194 700h37v-400h-89v278l-85 -38v95zM669 404q57 0 91 -32t34 -76q0 -55 -45 -80q58 -27 58 -90q0 -59 -38 -94.5t-100 -35.5t-100 35.5t-38 94.5q0 63 58 90q-45 25 -45 80q0 44 34 76t91 32zM669 173q-21 0 -33 -13t-12 -34t12 -34
t33 -13t33 13t12 34t-12 34t-33 13zM669 337q-19 0 -30 -12t-11 -32t11 -32t30 -12t30 12t11 32t-11 32t-30 12z" />
    <glyph glyph-name="threeeighths" unicode="&#x215c;" horiz-adv-x="882" 
d="M676 738l72 -57l-538 -719l-72 58zM46 422l80 10q5 -26 21 -39.5t37 -13.5q49 0 49 59q0 26 -13.5 39.5t-34.5 13.5q-18 0 -37 -10l-40 50l66 86h-110v83h237v-35l-89 -114q49 0 81.5 -34t32.5 -82q0 -64 -35.5 -101.5t-104.5 -37.5q-60 0 -98.5 36t-41.5 90zM698 404
q57 0 91 -32t34 -76q0 -55 -45 -80q58 -27 58 -90q0 -59 -38 -94.5t-100 -35.5t-100 35.5t-38 94.5q0 63 58 90q-45 25 -45 80q0 44 34 76t91 32zM698 173q-21 0 -33 -13t-12 -34t12 -34t33 -13t33 13t12 34t-12 34t-33 13zM698 337q-19 0 -30 -12t-11 -32t11 -32t30 -12
t30 12t11 32t-11 32t-30 12z" />
    <glyph glyph-name="fiveeighths" unicode="&#x215d;" horiz-adv-x="884" 
d="M678 738l72 -57l-538 -719l-72 58zM34 414l87 10q10 -45 51 -45q54 0 54 59q0 55 -54 55q-32 0 -58 -23l-71 15l21 215h230v-83h-155l-10 -67q27 15 63 15q61 0 94 -35.5t33 -91.5q0 -66 -40 -104t-107 -38q-54 0 -93.5 33.5t-44.5 84.5zM700 404q57 0 91 -32t34 -76
q0 -55 -45 -80q58 -27 58 -90q0 -59 -38 -94.5t-100 -35.5t-100 35.5t-38 94.5q0 63 58 90q-45 25 -45 80q0 44 34 76t91 32zM700 173q-21 0 -33 -13t-12 -34t12 -34t33 -13t33 13t12 34t-12 34t-33 13zM700 337q-19 0 -30 -12t-11 -32t11 -32t30 -12t30 12t11 32t-11 32
t-30 12z" />
    <glyph glyph-name="seveneighths" unicode="&#x215e;" horiz-adv-x="818" 
d="M611 738l72 -57l-538 -719l-72 58zM304 700v-35l-150 -365h-95l132 317h-148v83h261zM634 404q57 0 91 -32t34 -76q0 -55 -45 -80q58 -27 58 -90q0 -59 -38 -94.5t-100 -35.5t-100 35.5t-38 94.5q0 63 58 90q-45 25 -45 80q0 44 34 76t91 32zM634 173q-21 0 -33 -13
t-12 -34t12 -34t33 -13t33 13t12 34t-12 34t-33 13zM634 337q-19 0 -30 -12t-11 -32t11 -32t30 -12t30 12t11 32t-11 32t-30 12z" />
    <glyph glyph-name="partialdiff" unicode="&#x2202;" horiz-adv-x="616" 
d="M209 528l-113 35q19 62 81 103.5t135 41.5q134 0 194.5 -84.5t60.5 -255.5q0 -79 -16.5 -144t-51.5 -118.5t-97 -83.5t-146 -30q-96 0 -157 60t-61 157q0 131 88 217t223 86q48 0 87 -22q-9 57 -36 84.5t-76 27.5q-79 0 -115 -74zM338 406q-70 0 -116.5 -58t-46.5 -131
q0 -51 25 -85t76 -34q70 0 110.5 55.5t40.5 133.5q0 60 -21 89.5t-68 29.5z" />
    <glyph glyph-name="Delta" unicode="&#x2206;" horiz-adv-x="682" 
d="M42 0v32l248 668h102l248 -668v-32h-598zM341 548l-153 -440h306z" />
    <glyph glyph-name="product" unicode="&#x220f;" horiz-adv-x="559" 
d="M75 0v700h409v-700h-124v592h-161v-592h-124z" />
    <glyph glyph-name="summation" unicode="&#x2211;" horiz-adv-x="537" 
d="M486 0h-441v55l186 295l-186 295v55h441v-108h-272l141 -228v-28l-141 -228h272v-108z" />
    <glyph glyph-name="minus" unicode="&#x2212;" horiz-adv-x="577" 
d="M51 263v108h476v-108h-476z" />
    <glyph glyph-name="radical" unicode="&#x221a;" horiz-adv-x="592" 
d="M45 277v112h184l71 -226l155 545h120l-220 -708h-102l-92 277h-116z" />
    <glyph glyph-name="infinity" unicode="&#x221e;" horiz-adv-x="870" 
d="M633 168q-56 0 -110.5 23t-87.5 72q-33 -49 -87.5 -72t-110.5 -23q-92 0 -142.5 52t-50.5 139t50.5 139t142.5 52q56 0 110.5 -23t87.5 -72q33 49 87.5 72t110.5 23q92 0 142.5 -52t50.5 -139t-50.5 -139t-142.5 -52zM254 272q70 0 116 87q-46 87 -116 87
q-41 0 -65.5 -22t-24.5 -65t24.5 -65t65.5 -22zM616 272q41 0 65.5 22t24.5 65t-24.5 65t-65.5 22q-70 0 -116 -87q46 -87 116 -87z" />
    <glyph glyph-name="integral" unicode="&#x222b;" horiz-adv-x="469" 
d="M87 -43l112 573q35 178 204 178q62 0 94 -20l-46 -100q-30 14 -57 14q-57 0 -70 -63l-112 -573q-35 -178 -201 -178q-65 0 -97 20l46 100q30 -14 57 -14q57 0 70 63z" />
    <glyph glyph-name="approxequal" unicode="&#x2248;" horiz-adv-x="611" 
d="M118 144l-64 69q19 46 60.5 78.5t90.5 32.5q45 0 106 -29.5t94 -29.5q51 0 91 51l64 -69q-19 -46 -60.5 -78.5t-90.5 -32.5q-45 0 -106 29.5t-94 29.5q-51 0 -91 -51zM115 351l-64 69q19 46 60.5 78.5t90.5 32.5q45 0 106.5 -29.5t93.5 -29.5q51 0 91 51l64 -69
q-19 -46 -60.5 -78.5t-90.5 -32.5q-44 0 -106 29.5t-94 29.5q-51 0 -91 -51z" />
    <glyph glyph-name="notequal" unicode="&#x2260;" horiz-adv-x="557" 
d="M60 346v108h238l59 103l94 -52l-29 -51h75v-108h-136l-41 -72h177v-108h-238l-59 -103l-94 52l29 51h-75v108h136l41 72h-177z" />
    <glyph glyph-name="lessequal" unicode="&#x2264;" horiz-adv-x="561" 
d="M84 344v116l391 204v-131l-252 -131l252 -131v-131zM42 0v108h476v-108h-476z" />
    <glyph glyph-name="greaterequal" unicode="&#x2265;" horiz-adv-x="561" 
d="M477 460v-116l-391 -204v131l252 131l-252 131v131zM519 108v-108h-476v108h476z" />
    <glyph glyph-name="lozenge" unicode="&#x25ca;" horiz-adv-x="588" 
d="M234 0l-182 350l182 350h120l182 -350l-182 -350h-120zM294 106l118 244l-118 244l-118 -244z" />
    <glyph glyph-name="apple" unicode="&#xf8ff;" horiz-adv-x="746" 
d="M669 617v-595q0 -9 -6.5 -15.5t-15.5 -6.5q-3 0 -7 1l-267 77l-267 -77q-4 -1 -7 -1q-9 0 -15.5 6.5t-6.5 15.5v595q0 17 16 22l270 78q6 2 10 2t10 -2l270 -78q16 -5 16 -22zM351 366v303l-230 -67q6 -94 71.5 -161t158.5 -75zM395 669v-303q93 8 158.5 75t71.5 161z
M120 463v-412l231 67v204q-73 6 -134 43.5t-97 97.5zM626 51v412q-37 -60 -97.5 -97.5t-133.5 -43.5v-204z" />
    <glyph glyph-name="No" horiz-adv-x="1251" 
d="M471 700h130v-700h-137l-257 462v-462h-130v700h137l257 -462v462zM731 0v108h455v-108h-455zM702 448q0 113 69 186.5t187 73.5t187 -73.5t69 -186.5t-69 -186.5t-187 -73.5t-187 73.5t-69 186.5zM832 448q0 -65 34 -109.5t92 -44.5t92 44.5t34 109.5t-34 109.5
t-92 44.5t-92 -44.5t-34 -109.5z" />
    <glyph glyph-name="zero.tn" horiz-adv-x="606" 
d="M303 708q124 0 191 -94.5t67 -263.5t-67 -263.5t-191 -94.5t-191 94.5t-67 263.5t67 263.5t191 94.5zM303 592q-134 0 -134 -242t134 -242t134 242t-134 242z" />
    <glyph glyph-name="one.tn" horiz-adv-x="567" 
d="M339 700h55v-700h-126v524l-134 -80v136z" />
    <glyph glyph-name="two.tn" horiz-adv-x="594" 
d="M74 0v50l250 323q54 68 54 127q0 43 -22 67.5t-64 24.5q-38 0 -61.5 -24t-29.5 -68l-116 22q5 80 64 133t146 53q98 0 153.5 -56t55.5 -147q0 -87 -60 -166l-171 -223h246v-116h-445z" />
    <glyph glyph-name="three.tn" horiz-adv-x="598" 
d="M63 194l121 16q25 -102 113 -102q49 0 80 32t31 85q0 59 -30.5 91t-79.5 32q-32 0 -61 -15l-50 70l132 181h-223v116h401v-44l-165 -223q18 2 28 2q80 0 127 -57.5t47 -150.5q0 -107 -67 -171t-170 -64q-96 0 -160.5 56.5t-73.5 145.5z" />
    <glyph glyph-name="four.tn" horiz-adv-x="604" 
d="M350 0v130h-301v64l295 506h132v-454h78v-116h-78v-130h-126zM202 246h148v267z" />
    <glyph glyph-name="five.tn" horiz-adv-x="596" 
d="M71 183l119 22q19 -97 105 -97q51 0 77.5 32t26.5 92q0 59 -28.5 90t-81.5 31q-68 0 -124 -63l-79 16l39 394h360v-116h-257l-16 -146q44 26 99 26q106 0 160 -62.5t54 -169.5t-63 -173.5t-167 -66.5q-90 0 -152.5 52.5t-71.5 138.5z" />
    <glyph glyph-name="six.tn" horiz-adv-x="598" 
d="M291 448h16q97 0 161.5 -63.5t64.5 -164.5q0 -98 -67 -163t-167 -65q-99 0 -166.5 65t-67.5 163q0 64 34 123l204 365h140zM299 332q-47 0 -77.5 -30t-30.5 -82q0 -50 31.5 -81t76.5 -31q46 0 77 31t31 81q0 52 -30.5 82t-77.5 30z" />
    <glyph glyph-name="seven.tn" horiz-adv-x="592" 
d="M508 700v-52l-264 -648h-124l239 584h-275v116h424z" />
    <glyph glyph-name="eight.tn" horiz-adv-x="596" 
d="M298 708q88 0 144.5 -55.5t56.5 -135.5q0 -88 -66 -140q93 -52 93 -168q0 -99 -66.5 -158t-161.5 -59t-161.5 59t-66.5 158q0 116 92 168q-65 51 -65 140q0 80 56.5 135.5t144.5 55.5zM298 310q-44 0 -73 -27t-29 -74t29 -74t73 -27t73 27t29 74t-29 74t-73 27zM298 602
q-38 0 -61 -24t-23 -63q0 -40 23 -64.5t61 -24.5t61 24.5t23 64.5q0 39 -23 63t-61 24z" />
    <glyph glyph-name="nine.tn" horiz-adv-x="598" 
d="M307 252h-16q-97 0 -161.5 63.5t-64.5 164.5q0 98 67 163t167 65q99 0 166.5 -65t67.5 -163q0 -64 -34 -123l-204 -365h-140zM299 368q47 0 77.5 30t30.5 82q0 50 -31.5 81t-76.5 31q-46 0 -77 -31t-31 -81q0 -52 30.5 -82t77.5 -30z" />
    <glyph glyph-name="quotedblleft.alt" horiz-adv-x="482" 
d="M198 708l28 -36q-35 -29 -53.5 -54.5t-20.5 -57.5q58 -22 58 -76q0 -35 -23 -57t-60 -22q-36 0 -58.5 24.5t-22.5 60.5q0 122 152 218zM398 708l28 -36q-35 -29 -53.5 -54.5t-20.5 -57.5q58 -22 58 -76q0 -35 -23 -57t-60 -22q-36 0 -58.5 24.5t-22.5 60.5q0 122 152 218
z" />
    <glyph glyph-name="quotedblright.alt" horiz-adv-x="482" 
d="M284 405l-28 36q35 29 53.5 54.5t20.5 57.5q-58 22 -58 76q0 35 23 57t60 22q36 0 58.5 -24.5t22.5 -60.5q0 -122 -152 -218zM84 405l-28 36q35 29 53.5 54.5t20.5 57.5q-58 22 -58 76q0 35 23 57t60 22q36 0 58.5 -24.5t22.5 -60.5q0 -122 -152 -218z" />
    <glyph glyph-name="quoteleft.alt" horiz-adv-x="282" 
d="M198 708l28 -36q-35 -29 -53.5 -54.5t-20.5 -57.5q58 -22 58 -76q0 -35 -23 -57t-60 -22q-36 0 -58.5 24.5t-22.5 60.5q0 122 152 218z" />
    <glyph glyph-name="quoteright.alt" horiz-adv-x="282" 
d="M84 405l-28 36q35 29 53.5 54.5t20.5 57.5q-58 22 -58 76q0 35 23 57t60 22q36 0 58.5 -24.5t22.5 -60.5q0 -122 -152 -218z" />
    <glyph glyph-name="quotesinglbase.alt" horiz-adv-x="282" 
d="M84 -122l-28 36q35 29 53.5 54.5t20.5 57.5q-58 22 -58 76q0 35 23 57t60 22q36 0 58.5 -24.5t22.5 -60.5q0 -122 -152 -218z" />
    <glyph glyph-name="quotedblbase.alt" horiz-adv-x="482" 
d="M284 -122l-28 36q35 29 53.5 54.5t20.5 57.5q-58 22 -58 76q0 35 23 57t60 22q36 0 58.5 -24.5t22.5 -60.5q0 -122 -152 -218zM84 -122l-28 36q35 29 53.5 54.5t20.5 57.5q-58 22 -58 76q0 35 23 57t60 22q36 0 58.5 -24.5t22.5 -60.5q0 -122 -152 -218z" />
    <glyph glyph-name="arrow.l" horiz-adv-x="650" 
d="M286 95l-255 255l255 255l71 -73l-127 -129h380v-106h-380l127 -129z" />
    <glyph glyph-name="arrow.r" horiz-adv-x="650" 
d="M610 350l-255 -255l-71 73l127 129h-380v106h380l-127 129l71 73z" />
    <glyph glyph-name="arrow.u" horiz-adv-x="630" 
d="M60 385l255 255l255 -255l-73 -71l-129 127v-381h-106v381l-129 -127z" />
    <glyph glyph-name="arrow.d" horiz-adv-x="630" 
d="M315 60l-255 255l73 71l129 -127v381h106v-381l129 127l73 -71z" />
    <glyph glyph-name="arrow.ul" horiz-adv-x="620" 
d="M84 213v361h361v-106h-181l268 -267l-75 -75l-267 268v-181h-106z" />
    <glyph glyph-name="arrow.ur" horiz-adv-x="620" 
d="M536 574v-361h-106v181l-267 -268l-75 75l268 267h-181v106h361z" />
    <glyph glyph-name="arrow.dl" horiz-adv-x="620" 
d="M84 126v361h106v-181l267 268l75 -75l-268 -267h181v-106h-361z" />
    <glyph glyph-name="arrow.dr" horiz-adv-x="620" 
d="M536 487v-361h-361v106h181l-268 267l75 75l267 -268v181h106z" />
    <glyph glyph-name="arrow.l.xl" horiz-adv-x="771" 
d="M286 95l-255 255l255 255l71 -73l-127 -129h501v-106h-501l127 -129z" />
    <glyph glyph-name="arrow.r.xl" horiz-adv-x="771" 
d="M740 350l-255 -255l-71 73l127 129h-501v106h501l-127 129l71 73z" />
    <glyph glyph-name="arrow.u.xl" horiz-adv-x="630" 
d="M60 445l255 255l255 -255l-73 -71l-129 127v-501h-106v501l-129 -127z" />
    <glyph glyph-name="arrow.d.xl" horiz-adv-x="630" 
d="M315 0l-255 255l73 71l129 -127v501h106v-501l129 127l73 -71z" />
    <glyph glyph-name="arrow.ul.xl" horiz-adv-x="704" 
d="M84 255v361h361v-106h-181l352 -351l-75 -75l-351 352v-181h-106z" />
    <glyph glyph-name="arrow.ur.xl" horiz-adv-x="704" 
d="M620 616v-361h-106v181l-351 -352l-75 75l352 351h-181v106h361z" />
    <glyph glyph-name="arrow.dl.xl" horiz-adv-x="704" 
d="M84 84v361h106v-181l351 352l75 -75l-352 -351h181v-106h-361z" />
    <glyph glyph-name="arrow.dr.xl" horiz-adv-x="704" 
d="M620 445v-361h-361v106h181l-352 351l75 75l351 -352v181h106z" />
    <glyph glyph-name="dcaron.alt" horiz-adv-x="726" 
d="M593 528l-18 24q47 33 60 93q-51 20 -51 66q0 27 19.5 47t50.5 20t50.5 -21t19.5 -52q0 -54 -34.5 -95.5t-96.5 -81.5zM37 252q0 119 59.5 189.5t170.5 70.5q37 0 71 -16t51 -38v250h124v-708h-124v52q-12 -22 -45.5 -41t-76.5 -19q-111 0 -170.5 70.5t-59.5 189.5z
M167 252q0 -72 33 -113t84 -41t83.5 40.5t32.5 113.5t-32.5 113.5t-83.5 40.5t-84 -41t-33 -113z" />
    <glyph glyph-name="uni0123.alt" horiz-adv-x="509" 
d="M325 812l18 -24q-47 -33 -60 -93q51 -20 51 -66q0 -27 -19.5 -47t-50.5 -20t-50.5 21t-19.5 52q0 54 34.5 95.5t96.5 81.5zM76 342q0 77 53 123.5t132 46.5q49 0 93 -22l95 50l49 -82l-72 -36q20 -35 20 -80q0 -77 -53 -122.5t-132 -45.5q-38 0 -73 11q-24 -14 -24 -38
q0 -37 47 -37h103q81 0 129 -38.5t48 -109.5q0 -59 -35 -99.5t-84.5 -57.5t-109.5 -17q-101 0 -164.5 43t-63.5 123q0 62 41 100q-26 31 -26 78q0 69 62 106q-35 43 -35 104zM286 6h-68q-34 0 -58 4q-11 -17 -11 -46q0 -35 31 -53.5t82 -18.5q105 0 105 62q0 52 -81 52z
M192 342q0 -30 19.5 -49t49.5 -19t49.5 19t19.5 49q0 31 -19.5 50.5t-49.5 19.5t-49.5 -19.5t-19.5 -50.5z" />
    <glyph glyph-name="lcaron.alt" horiz-adv-x="403" 
d="M266 528l-18 24q47 33 60 93q-51 20 -51 66q0 27 19.5 47t50.5 20t50.5 -21t19.5 -52q0 -54 -34.5 -95.5t-96.5 -81.5zM67 708h124v-708h-124v708z" />
    <glyph glyph-name="napostrophe.alt" horiz-adv-x="613" 
d="M24 528l-18 24q47 33 60 93q-51 20 -51 66q0 27 19.5 47t50.5 20t50.5 -21t19.5 -52q0 -54 -34.5 -95.5t-96.5 -81.5zM116 504h124v-81q62 89 156 89q70 0 112.5 -39t42.5 -113v-360h-124v323q0 83 -72 83q-48 0 -81.5 -55t-33.5 -150v-201h-124v504z" />
    <glyph glyph-name="tcaron.alt" horiz-adv-x="386" 
d="M288 528l-18 24q47 33 60 93q-51 20 -51 66q0 27 19.5 47t50.5 20t50.5 -21t19.5 -52q0 -54 -34.5 -95.5t-96.5 -81.5zM345 114v-111q-37 -11 -75 -11q-81 0 -128.5 47.5t-47.5 138.5v220h-78v106h78v126l124 78v-204h133v-106h-133v-218q0 -45 16.5 -63.5t49.5 -18.5
q27 0 61 16z" />
    <glyph glyph-name="plus.alt" horiz-adv-x="569" 
d="M231 555h108v-184h184v-108h-184v-184h-108v184h-184v108h184v184z" />
    <glyph glyph-name="plus.cap" horiz-adv-x="800" 
d="M346 700h108v-296h296v-108h-296v-296h-108v296h-296v108h296v296z" />
    </font>
</defs>
</svg>
